<?xml version="1.0" encoding="utf-8"?>
<svg xmlns="http://www.w3.org/2000/svg" viewBox="-242 -241.9164 484 483.8329" width="484px" height="483.833px">
  <path id="gearpoly3" data-id="3" class="gear" fill="none" stroke="white" stroke-width="3" stroke-miterlimit="10" d="M158.3333333,0 158.3388591,-0.5714606 158.6380731,-0.6408235 158.948111,-0.715552 159.2689011,-0.7958402 159.600369,-0.8818812 159.942438,-0.9738672 160.2950287,-1.0719895 160.658059,-1.1764387 161.0314447,-1.287404 161.4150988,-1.4050739 161.8089317,-1.5296359 162.2128517,-1.6612763 162.6267643,-1.8001803 163.0505726,-1.9465321 163.4841773,-2.1005146 163.9274767,-2.2623098 164.3803667,-2.4320981 164.8427405,-2.6100591 165.3144893,-2.7963708 165.7955016,-2.9912101 166.2856638,-3.1947525 166.7848596,-3.4071722 167.2929708,-3.628642 167.8098766,-3.8593333 168.3354538,-4.0994162 168.8695771,-4.3490591 169.4121189,-4.6084292 169.9629492,-4.8776919 170.521936,-5.1570114 171.0889449,-5.4465499 171.6638392,-5.7464686 172.2464802,-6.0569265 172.8367269,-6.3780813 173.4344362,-6.710089 174.039463,-7.0531038 174.6516597,-7.4072783 175.270877,-7.7727633 175.8969632,-8.1497079 176.0545401,-8.2457519 176.0557728,-8.2465051 176.0569376,-8.2472552 175.8165136,-12.353787 175.8152692,-12.354396 175.813957,-12.3550002 175.646249,-12.4319998 174.9804532,-12.7333089 174.3228167,-13.0240383 173.6734727,-13.3043537 173.0325519,-13.5744224 172.400183,-13.834413 171.7764922,-14.0844958 171.1616034,-14.3248422 170.5556382,-14.5556254 169.9587159,-14.7770196 169.3709534,-14.9892006 168.7924651,-15.1923454 168.2233632,-15.3866324 167.6637573,-15.572241 167.1137548,-15.7493522 166.5734604,-15.9181479 166.0429765,-16.0788114 165.5224032,-16.2315269 165.0118377,-16.37648 164.5113752,-16.5138571 164.0211081,-16.6438459 163.5411263,-16.7666351 163.0715173,-16.8824141 162.6123661,-16.9913737 162.163755,-17.0937054 161.7257639,-17.1896016 161.29847,-17.2792557 160.881948,-17.3628619 160.4762702,-17.4406151 160.0815059,-17.5127113 159.6977223,-17.5793468 159.3249836,-17.640719 158.9633517,-17.697026 158.6128855,-17.7484663 158.2736418,-17.7952393 157.9456742,-17.8375448 157.6290341,-17.8755834 157.3237702,-17.9095561 157.2515965,-18.4764677 156.3839873,-24.7687903 156.3000488,-25.3340797 156.5847283,-25.449396 156.879259,-25.5717051 157.1835398,-25.7011874 157.497467,-25.8380221 157.8209348,-25.982387 158.1538348,-26.1344586 158.4960562,-26.2944123 158.8474861,-26.4624218 159.208009,-26.6386598 159.5775075,-26.8232972 159.9558614,-27.0165039 160.3429487,-27.218448 160.7386448,-27.4292961 161.1428229,-27.6492136 161.5553543,-27.8783641 161.9761076,-28.1169097 162.4049496,-28.3650109 162.8417448,-28.6228265 163.2863555,-28.8905139 163.7386419,-29.1682286 164.1984621,-29.4561245 164.6656721,-29.7543538 165.1401258,-30.0630668 165.621675,-30.3824122 166.1101696,-30.7125369 166.6054574,-31.053586 167.1073842,-31.4057025 167.6157937,-31.7690278 168.1305279,-32.1437014 168.6514267,-32.5298608 169.1783281,-32.9276416 169.7110682,-33.3371774 170.2494814,-33.7585999 170.7933999,-34.1920387 171.3426543,-34.6376214 171.8970736,-35.0954736 172.4564845,-35.5657188 172.5970968,-35.6852308 172.5981965,-35.6861676 172.5992296,-35.6870906 171.7193625,-39.7054536 171.7180382,-39.7058605 171.7166476,-39.706252 171.538959,-39.7560683 170.8342251,-39.9495144 170.1392051,-40.1337874 169.4540046,-40.3090719 168.7787266,-40.4755534 168.1134717,-40.6334189 167.458338,-40.7828559 166.813421,-40.9240535 166.1788138,-41.0572015 165.554607,-41.1824908 164.9408883,-41.3001132 164.3377434,-41.4102614 163.7452548,-41.5131292 163.1635031,-41.6089111 162.5925656,-41.6978024 162.0325177,-41.7799993 161.4834317,-41.8556987 160.9453775,-41.9250985 160.4184223,-41.9883969 159.9026308,-42.0457931 159.3980649,-42.0974869 158.9047841,-42.1436786 158.4228449,-42.1845692 157.9523016,-42.2203602 157.4932054,-42.2512538 157.0456052,-42.2774525 156.609547,-42.2991593 156.1850743,-42.3165777 155.7722277,-42.3299117 155.3710453,-42.3393655 154.9815626,-42.3451436 154.6038122,-42.3474511 154.2378242,-42.3464931 153.8836259,-42.3424751 153.5412418,-42.3356028 153.2106941,-42.3260821 152.8920018,-42.314119 152.5851817,-42.2999195 152.425212,-42.8485611 150.5839484,-48.9276908 150.4126127,-49.4728897 150.6757478,-49.6313199 150.947519,-49.798198 151.2277981,-49.9736861 151.5164547,-50.1579452 151.8133564,-50.3511342 152.1183686,-50.5534106 152.4313544,-50.7649302 152.7521751,-50.985847 153.0806898,-51.2163134 153.4167554,-51.45648 153.760227,-51.7064955 154.1109576,-51.9665071 154.4687981,-52.2366599 154.8335974,-52.5170972 155.2052028,-52.8079606 155.5834592,-53.1093896 155.9682099,-53.4215219 156.3592962,-53.7444933 156.7565574,-54.0784374 157.1598313,-54.4234862 157.5689535,-54.7797693 157.983758,-55.1474146 158.404077,-55.5265478 158.829741,-55.9172925 159.2605785,-56.3197702 159.6964167,-56.7341004 160.1370807,-57.1604004 160.5823943,-57.5987854 161.0321794,-58.0493683 161.4862564,-58.51226 161.9444442,-58.987569 162.4065599,-59.4754016 162.8724192,-59.9758621 163.3418364,-60.4890521 163.8146242,-61.0150713 164.2905937,-61.5540168 164.7695548,-62.1059837 164.8897401,-62.2460209 164.8906797,-62.2471182 164.8915558,-62.2481915 163.3939108,-66.0794402 163.3925391,-66.0796349 163.3911044,-66.079804 163.2078105,-66.1012104 162.4814914,-66.1820302 161.7662016,-66.2553094 161.0620165,-66.3212469 160.3690088,-66.380042 159.6872487,-66.431895 159.0168037,-66.4770068 158.3577386,-66.5155788 157.7101155,-66.5478131 157.0739941,-66.5739123 156.4494312,-66.5940799 155.8364809,-66.6085193 155.2351949,-66.617435 154.6456218,-66.6210316 154.0678079,-66.6195143 153.5017967,-66.6130884 152.9476288,-66.6019599 152.4053425,-66.586335 151.8749729,-66.5664201 151.3565529,-66.5424221 150.8501124,-66.514548 150.3556787,-66.4830048 149.8732763,-66.4480001 149.4029272,-66.4097413 148.9446505,-66.3684361 148.4984626,-66.3242921 148.0643773,-66.2775172 147.6424056,-66.228319 147.232556,-66.1769054 146.834834,-66.123484 146.4492425,-66.0682625 146.0757819,-66.0114484 145.7144497,-65.953249 145.3652406,-65.8938717 145.028147,-65.8335234 144.7031582,-65.7724108 144.390261,-65.7107405 144.0894396,-65.6487186 143.845613,-66.1655807 141.076033,-71.8818291 140.8215188,-72.3935129 141.0566303,-72.591156 141.2989501,-72.7984939 141.5483261,-73.0156668 141.8046044,-73.2428132 142.0676293,-73.4800694 142.3372433,-73.7275698 142.6132868,-73.985447 142.8955987,-74.2538314 143.1840159,-74.5328514 143.4783737,-74.8226334 143.7785055,-75.1233016 144.0842432,-75.4349784 144.3954169,-75.7577837 144.7118549,-76.0918356 145.0333841,-76.4372498 145.3598297,-76.7941401 145.6910152,-77.1626178 146.0267627,-77.5427922 146.3668926,-77.9347703 146.711224,-78.3386569 147.0595743,-78.7545544 147.4117595,-79.1825631 147.7675942,-79.6227809 148.1268916,-80.0753034 148.4894634,-80.5402237 148.8551201,-81.017633 149.2236708,-81.5076196 149.5949234,-82.0102697 149.9686842,-82.5256671 150.3447585,-83.0538931 150.7229505,-83.5950266 151.103063,-84.1491441 151.4848976,-84.7163194 151.8682549,-85.2966243 152.2529343,-85.8901276 152.6387342,-86.4968959 153.0254518,-87.1169932 153.1222508,-87.2741074 153.1230072,-87.2753381 153.1237045,-87.2765353 151.0451587,-90.8263317 151.0437735,-90.8263094 151.04233,-90.826252 150.857944,-90.8187213 150.1279241,-90.7849247 149.4099774,-90.7454058 148.704147,-90.7003726 148.0104738,-90.6500337 147.3289957,-90.5945975 146.659748,-90.5342732 146.002763,-90.4692697 145.3580708,-90.3997966 144.7256982,-90.3260632 144.1056698,-90.2482793 143.4980072,-90.1666545 142.9027292,-90.0813985 142.3198522,-89.9927213 141.7493895,-89.9008326 141.191352,-89.8059422 140.6457478,-89.7082597 140.1125821,-89.6079949 139.5918577,-89.5053572 139.0835744,-89.4005559 138.5877295,-89.2938001 138.1043175,-89.1852989 137.6333302,-89.0752608 137.1747569,-88.9638942 136.7285839,-88.8514072 136.2947949,-88.7380076 135.8733711,-88.6239026 135.464291,-88.5092992 135.0675301,-88.394404 134.6830616,-88.2794229 134.310856,-88.1645614 133.950881,-88.0500247 133.6031018,-87.9360171 133.2674807,-87.8227425 132.9439778,-87.710404 132.6325503,-87.5992044 132.3331528,-87.4893454 132.0457373,-87.3810283 131.7240576,-87.8533841 128.0943574,-93.0659983 127.7629317,-93.5315676 127.9642305,-93.7635569 128.1711321,-94.0062493 128.3834645,-94.2597595 128.6010541,-94.5242 128.8237257,-94.7996814 129.0513027,-95.0863116 129.2836067,-95.3841966 129.5204583,-95.6934401 129.7616763,-96.0141432 130.0070782,-96.3464052 130.25648,-96.6903227 130.5096966,-97.0459901 130.7665413,-97.4134995 131.0268263,-97.7929404 131.2903622,-98.1844003 131.5569588,-98.587964 131.8264242,-99.003714 132.0985657,-99.4317303 132.3731892,-99.8720905 132.6500995,-100.3248699 132.9291003,-100.790141 133.2099942,-101.2679741 133.4925828,-101.7584369 133.7766665,-102.2615945 134.0620449,-102.7775097 134.3485165,-103.3062426 134.635879,-103.8478507 134.9239289,-104.402389 135.2124622,-104.9699101 135.5012737,-105.5504637 135.7901576,-106.1440972 136.0789072,-106.7508553 136.367315,-107.3707799 136.6551728,-108.0039105 136.9422718,-108.6502839 137.2284024,-109.3099343 137.5133544,-109.9828931 137.5843835,-110.1532157 137.5849381,-110.1545496 137.5854395,-110.1558411 134.9771736,-113.3367774 134.9758089,-113.3365387 134.9743922,-113.3362562 134.7934543,-113.2999739 134.0777091,-113.1523932 133.3747836,-113.0010492 132.684688,-112.8461542 132.0074298,-112.6879206 131.3430139,-112.5265603 130.6914425,-112.3622852 130.0527149,-112.195307 129.4268279,-112.0258371 128.8137753,-111.8540867 128.2135486,-111.6802666 127.6261362,-111.5045873 127.0515241,-111.327259 126.4896954,-111.1484915 125.9406306,-110.9684941 125.4043077,-110.7874756 124.8807016,-110.6056445 124.369785,-110.4232086 123.8715276,-110.2403753 123.3858966,-110.0573512 122.9128567,-109.8743426 122.4523696,-109.6915549 122.0043948,-109.5091929 121.5688888,-109.3274607 121.1458057,-109.1465618 120.7350971,-108.9666988 120.3367117,-108.7880734 119.9505959,-108.6108868 119.5766934,-108.435339 119.2149454,-108.2616294 118.8652905,-108.0899563 118.5276649,-107.9205172 118.2020021,-107.7535085 117.8882332,-107.5891258 117.5862867,-107.4275635 117.2960888,-107.2690149 117.0175631,-107.1136724 116.7506307,-106.9617272 116.3590187,-107.3779456 111.9585737,-111.9585737 111.5583973,-112.3665647 111.7209266,-112.6271879 111.8873154,-112.8992589 112.057376,-113.182864 112.2309191,-113.4780874 112.4077544,-113.7850106 112.5876907,-114.1037128 112.7705352,-114.4342707 112.9560945,-114.7767586 113.1441736,-115.1312482 113.3345769,-115.4978088 113.5271077,-115.8765072 113.7215681,-116.2674075 113.9177595,-116.6705716 114.1154823,-117.0860585 114.3145359,-117.513925 114.5147189,-117.954225 114.7158292,-118.4070101 114.9176636,-118.8723291 115.1200185,-119.3502284 115.3226893,-119.8407516 115.5254707,-120.3439398 115.7281568,-120.8598315 115.9305409,-121.3884624 116.1324159,-121.9298659 116.3335739,-122.4840723 116.5338065,-123.0511096 116.7329049,-123.631003 116.9306596,-124.223775 117.1268607,-124.8294455 117.3212979,-125.4480316 117.5137604,-126.0795479 117.7040371,-126.7240062 117.8919165,-127.3814154 118.0771869,-128.051782 118.2596362,-128.7351097 118.439052,-129.4313993 118.6152218,-130.1406492 118.6587321,-130.3199862 118.6590711,-130.3213905 118.6593644,-130.3227445 115.5856024,-133.0564955 115.5842919,-133.0560463 115.5829368,-133.0555457 115.4099024,-132.9914051 114.726056,-132.7336741 114.05546,-132.4742316 113.3980915,-132.213289 112.7539247,-131.951057 112.1229312,-131.6877458 111.50508,-131.4235649 110.9003374,-131.1587235 110.308667,-130.8934298 109.7300298,-130.6278913 109.1643843,-130.3623151 108.6116862,-130.0969072 108.0718888,-129.8318729 107.5449425,-129.567417 107.0307955,-129.303743 106.529393,-129.0410537 106.0406781,-128.7795512 105.564591,-128.5194365 105.1010694,-128.2609095 104.6500486,-128.0041694 104.2114615,-127.7494141 103.7852381,-127.4968408 103.3713062,-127.2466452 102.9695912,-126.9990224 102.5800158,-126.7541658 102.2025004,-126.5122682 101.836963,-126.2735208 101.483319,-126.0381138 101.1414816,-125.8062361 100.8113615,-125.5780753 100.4928671,-125.3538177 100.1859043,-125.1336484 99.8903768,-124.917751 99.6061861,-124.7063078 99.333231,-124.4994997 99.0714084,-124.2975062 98.8206127,-124.1005052 98.5807362,-123.9086733 98.1288346,-124.2585058 93.0659983,-128.0943574 92.6069249,-128.434724 92.7266827,-128.7175637 92.8484618,-129.012314 92.9720629,-129.3190308 93.0972863,-129.6377676 93.2239312,-129.9685752 93.3517961,-130.3115019 93.4806789,-130.6665933 93.6103767,-131.0338925 93.7406858,-131.4134398 93.8714023,-131.8052731 94.0023212,-132.2094274 94.1332372,-132.6259355 94.2639444,-133.054827 94.3942364,-133.4961293 94.5239062,-133.9498668 94.6527466,-134.4160616 94.7805497,-134.8947327 94.9071073,-135.3858967 95.032211,-135.8895675 95.1556518,-136.4057563 95.2772206,-136.9344714 95.396708,-137.4757187 95.5139044,-138.0295012 95.6285998,-138.5958192 95.7405842,-139.1746705 95.8496475,-139.7660499 95.9555793,-140.3699497 96.0581694,-140.9863594 96.1572072,-141.6152657 96.2524823,-142.2566527 96.3437844,-142.9105017 96.430903,-143.5767914 96.5136278,-144.2554977 96.5917488,-144.9465936 96.6650558,-145.6500498 96.733339,-146.3658338 96.7963887,-147.0939106 96.8113088,-147.2778462 96.8114241,-147.2792862 96.8115019,-147.2806695 93.3479302,-149.4999212 93.346706,-149.4992724 93.3454459,-149.498566 93.1845756,-149.4081466 92.5494665,-149.0466115 91.9277125,-148.6854589 91.3192577,-148.3248938 90.7240438,-147.9651204 90.1420098,-147.6063418 89.5730924,-147.2487603 89.0172254,-146.8925769 88.4743406,-146.5379917 87.9443668,-146.1852037 87.4272306,-145.8344107 86.9228561,-145.4858094 86.4311649,-145.1395953 85.9520763,-144.7959626 85.4855069,-144.4551046 85.0313712,-144.1172128 84.5895812,-143.782478 84.1600464,-143.4510893 83.7426741,-143.1232344 83.3373691,-142.7991 82.9440342,-142.4788711 82.5625695,-142.1627313 82.192873,-141.8508629 81.8348406,-141.5434466 81.4883655,-141.2406616 81.1533391,-140.9426857 80.8296503,-140.6496951 80.5171861,-140.3618642 80.2158309,-140.0793661 79.9254673,-139.8023722 79.6459757,-139.5310521 79.3772342,-139.2655739 79.119119,-139.0061039 78.8715041,-138.7528067 78.6342614,-138.5058452 78.4072611,-138.2653804 78.1903708,-138.0315717 77.9834567,-137.8045766 77.482393,-138.0794091 71.8818291,-141.076033 71.3751626,-141.3403942 71.4492002,-141.6384859 71.5233708,-141.9486577 71.5974692,-142.2709339 71.6712894,-142.6053358 71.7446254,-142.9518822 71.8172705,-143.3105894 71.889018,-143.6814707 71.9596607,-144.064537 72.0289913,-144.4597963 72.0968022,-144.867254 72.1628856,-145.2869128 72.2270336,-145.7187727 72.2890382,-146.162831 72.3486911,-146.6190823 72.4057843,-147.0875184 72.4601095,-147.5681286 72.5114585,-148.0608993 72.559623,-148.5658142 72.6043949,-149.0828546 72.6455663,-149.6119986 72.6829291,-150.1532219 72.7162758,-150.7064974 72.7453986,-151.2717955 72.7700902,-151.8490836 72.7901436,-152.4383264 72.805352,-153.0394863 72.8155089,-153.6525224 72.8204082,-154.2773917 72.819844,-154.914048 72.8136112,-155.5624428 72.8015046,-156.2225247 72.78332,-156.8942396 72.7588533,-157.5775309 72.7279013,-158.2723391 72.690261,-158.9786022 72.6457302,-159.6962556 72.5941073,-160.4252318 72.5800699,-160.6092369 72.5799584,-160.6106772 72.5798189,-160.6120555 68.8117221,-162.2621626 68.8106145,-162.2613303 68.8094804,-162.2604355 68.6647354,-162.1459636 68.0940021,-161.6895267 67.5363996,-161.2355567 66.9918407,-160.7842475 66.4602358,-160.3357915 65.941493,-159.8903799 65.4355179,-159.4482025 64.942214,-159.0094476 64.4614823,-158.574302 63.9932215,-158.1429513 63.5373283,-157.7155792 63.0936967,-157.2923681 62.6622189,-156.873499 62.2427846,-156.4591511 61.8352815,-156.0495021 61.4395949,-155.6447279 61.055608,-155.245003 60.6832021,-154.8505001 60.3222562,-154.4613903 59.972647,-154.0778429 59.6342495,-153.7000253 59.3069364,-153.3281035 58.9905785,-152.9622415 58.6850445,-152.6026014 58.3902011,-152.2493436 58.1059132,-151.9026266 57.8320434,-151.562607 57.5684527,-151.2294397 57.3150002,-150.9032773 57.0715429,-150.5842707 56.8379361,-150.2725689 56.6140332,-149.9683187 56.3996858,-149.6716651 56.1947439,-149.3827509 55.9990554,-149.101717 55.8124667,-148.8287021 55.6348225,-148.5638429 55.4659657,-148.3072739 54.9280776,-148.5003392 48.9276908,-150.5839484 48.385907,-150.7657947 48.4124012,-151.0717985 48.4371371,-151.3897545 48.4599081,-151.7196544 48.4805075,-152.0614873 48.4987288,-152.4152394 48.5143653,-152.7808945 48.5272109,-153.1584335 48.5370591,-153.5478345 48.5437039,-153.9490732 48.5469395,-154.3621224 48.5465602,-154.7869522 48.5423607,-155.2235302 48.5341359,-155.671821 48.521681,-156.1317869 48.5047917,-156.6033871 48.4832641,-157.0865785 48.4568945,-157.5813151 48.4254799,-158.0875483 48.3888178,-158.6052269 48.3467059,-159.1342969 48.2989427,-159.6747017 48.2453274,-160.2263821 48.1856596,-160.7892762 48.1197395,-161.3633195 48.0473681,-161.9484449 47.9683472,-162.5445825 47.882479,-163.1516601 47.7895669,-163.7696026 47.6894147,-164.3983324 47.5818273,-165.0377693 47.4666102,-165.6878306 47.3435701,-166.3484309 47.2125144,-167.0194823 47.0732514,-167.7008943 46.9255906,-168.3925739 46.7693424,-169.0944256 46.6043181,-169.8063513 46.5616687,-169.9858951 46.5613333,-169.9873002 46.5609799,-169.9886398 42.581141,-171.028971 42.5801772,-171.0279758 42.5791971,-171.0269145 42.4541415,-170.8912089 41.9618373,-170.3511091 41.4821164,-169.8155 41.0148622,-169.2845593 40.5599562,-168.7584633 40.1172777,-168.2373862 39.6867038,-167.7215008 39.2681097,-167.2109779 38.8613683,-166.7059867 38.4663508,-166.2066945 38.0829261,-165.7132666 37.7109611,-165.2258668 37.3503211,-164.7446566 37.0008691,-164.2697961 36.6624662,-163.8014429 36.3349718,-163.3397532 36.0182432,-162.8848808 35.7121361,-162.4369778 35.4165041,-161.9961942 35.1311993,-161.5626779 34.8560717,-161.1365749 34.5909698,-160.718029 34.3357402,-160.3071821 34.0902279,-159.9041737 33.8542763,-159.5091414 33.6277268,-159.1222206 33.4104196,-158.7435446 33.2021931,-158.3732444 33.002884,-158.0114489 32.8123277,-157.6582847 32.6303578,-157.3138763 32.4568068,-156.9783459 32.2915052,-156.6518132 32.1342826,-156.3343961 31.9849668,-156.0262097 31.8433843,-155.7273672 31.7093603,-155.4379791 31.5827186,-155.158154 31.0212507,-155.264698 24.7687903,-156.3839873 24.2052297,-156.4788411 24.1835282,-156.785222 24.1582203,-157.103133 24.1291032,-157.4325335 24.0959746,-157.7733803 24.0586325,-158.1256276 24.0168755,-158.489227 23.9705028,-158.8641273 23.919314,-159.2502748 23.8631095,-159.647613 23.8016901,-160.056083 23.7348574,-160.4756232 23.6624138,-160.9061692 23.5841621,-161.3476542 23.499906,-161.8000087 23.4094502,-162.2631607 23.3125998,-162.7370355 23.209161,-163.221556 23.0989409,-163.7166423 22.9817473,-164.2222122 22.8573891,-164.7381807 22.7256761,-165.2644604 22.586419,-165.8009614 22.4394297,-166.3475913 22.2845211,-166.904255 22.121507,-167.4708551 21.9502024,-168.0472917 21.7704236,-168.6334624 21.5819879,-169.2292623 21.3847137,-169.8345842 21.1784209,-170.4493182 20.9629303,-171.0733522 20.7380644,-171.7065717 20.5036466,-172.3488597 20.2595019,-173.0000969 20.0054565,-173.6601616 19.7413381,-174.3289297 19.4669759,-175.0062749 19.3967648,-175.1769364 19.3962137,-175.1782717 19.3956551,-175.1795395 15.3020709,-175.5844786 15.3012747,-175.5833448 15.3004727,-175.5821433 15.1981857,-175.4285454 14.7964328,-174.8180818 14.4064058,-174.2140221 14.0279617,-173.6165235 13.6609559,-173.0257416 13.3052419,-172.4418297 12.9606714,-171.8649391 12.6270942,-171.2952191 12.3043586,-170.7328168 11.9923108,-170.1778773 11.6907958,-169.6305435 11.3996566,-169.0909562 11.1187344,-168.559254 10.8478693,-168.0355734 10.5868993,-167.5200486 10.3356611,-167.0128116 10.0939897,-166.5139922 9.8617187,-166.0237179 9.6386802,-165.5421141 9.4247048,-165.0693036 9.2196217,-164.6054072 9.0232587,-164.1505432 8.835442,-163.7048278 8.6559968,-163.2683745 8.4847467,-162.8412948 8.3215142,-162.4236975 8.1661204,-162.0156893 8.0183852,-161.6173743 7.8781272,-161.2288543 7.745164,-160.8502286 7.6193119,-160.481594 7.5003861,-160.1230451 7.3882006,-159.7746738 7.2825687,-159.4365695 7.1833021,-159.1088193 7.090212,-158.7915076 7.0031083,-158.4847165 6.9218001,-158.1885253 6.3505777,-158.2059247 0,-158.3333333 -0.5714606,-158.3388591 -0.6408235,-158.6380731 -0.715552,-158.948111 -0.7958402,-159.2689011 -0.8818812,-159.600369 -0.9738672,-159.942438 -1.0719895,-160.2950287 -1.1764387,-160.658059 -1.287404,-161.0314447 -1.4050739,-161.4150988 -1.5296359,-161.8089317 -1.6612763,-162.2128517 -1.8001803,-162.6267643 -1.9465321,-163.0505726 -2.1005146,-163.4841773 -2.2623098,-163.9274767 -2.4320981,-164.3803667 -2.6100591,-164.8427405 -2.7963708,-165.3144893 -2.9912101,-165.7955016 -3.1947525,-166.2856638 -3.4071722,-166.7848596 -3.628642,-167.2929708 -3.8593333,-167.8098766 -4.0994162,-168.3354538 -4.3490591,-168.8695771 -4.6084292,-169.4121189 -4.8776919,-169.9629492 -5.1570114,-170.521936 -5.4465499,-171.0889449 -5.7464686,-171.6638392 -6.0569265,-172.2464802 -6.3780813,-172.8367269 -6.710089,-173.4344362 -7.0531038,-174.039463 -7.4072783,-174.6516597 -7.7727633,-175.270877 -8.1497079,-175.8969632 -8.2457519,-176.0545401 -8.2465051,-176.0557728 -8.2472552,-176.0569376 -12.353787,-175.8165136 -12.354396,-175.8152692 -12.3550002,-175.813957 -12.4319998,-175.646249 -12.7333089,-174.9804532 -13.0240383,-174.3228167 -13.3043537,-173.6734727 -13.5744224,-173.0325519 -13.834413,-172.400183 -14.0844958,-171.7764922 -14.3248422,-171.1616034 -14.5556254,-170.5556382 -14.7770196,-169.9587159 -14.9892006,-169.3709534 -15.1923454,-168.7924651 -15.3866324,-168.2233632 -15.572241,-167.6637573 -15.7493522,-167.1137548 -15.9181479,-166.5734604 -16.0788114,-166.0429765 -16.2315269,-165.5224032 -16.37648,-165.0118377 -16.5138571,-164.5113752 -16.6438459,-164.0211081 -16.7666351,-163.5411263 -16.8824141,-163.0715173 -16.9913737,-162.6123661 -17.0937054,-162.163755 -17.1896016,-161.7257639 -17.2792557,-161.29847 -17.3628619,-160.881948 -17.4406151,-160.4762702 -17.5127113,-160.0815059 -17.5793468,-159.6977223 -17.640719,-159.3249836 -17.697026,-158.9633517 -17.7484663,-158.6128855 -17.7952393,-158.2736418 -17.8375448,-157.9456742 -17.8755834,-157.6290341 -17.9095561,-157.3237702 -18.4764677,-157.2515965 -24.7687903,-156.3839873 -25.3340797,-156.3000488 -25.449396,-156.5847283 -25.5717051,-156.879259 -25.7011874,-157.1835398 -25.8380221,-157.497467 -25.982387,-157.8209348 -26.1344586,-158.1538348 -26.2944123,-158.4960562 -26.4624218,-158.8474861 -26.6386598,-159.208009 -26.8232972,-159.5775075 -27.0165039,-159.9558614 -27.218448,-160.3429487 -27.4292961,-160.7386448 -27.6492136,-161.1428229 -27.8783641,-161.5553543 -28.1169097,-161.9761076 -28.3650109,-162.4049496 -28.6228265,-162.8417448 -28.8905139,-163.2863555 -29.1682286,-163.7386419 -29.4561245,-164.1984621 -29.7543538,-164.6656721 -30.0630668,-165.1401258 -30.3824122,-165.621675 -30.7125369,-166.1101696 -31.053586,-166.6054574 -31.4057025,-167.1073842 -31.7690278,-167.6157937 -32.1437014,-168.1305279 -32.5298608,-168.6514267 -32.9276416,-169.1783281 -33.3371774,-169.7110682 -33.7585999,-170.2494814 -34.1920387,-170.7933999 -34.6376214,-171.3426543 -35.0954736,-171.8970736 -35.5657188,-172.4564845 -35.6852308,-172.5970968 -35.6861676,-172.5981965 -35.6870906,-172.5992296 -39.7054536,-171.7193625 -39.7058605,-171.7180382 -39.706252,-171.7166476 -39.7560683,-171.538959 -39.9495144,-170.8342251 -40.1337874,-170.1392051 -40.3090719,-169.4540046 -40.4755534,-168.7787266 -40.6334189,-168.1134717 -40.7828559,-167.458338 -40.9240535,-166.813421 -41.0572015,-166.1788138 -41.1824908,-165.554607 -41.3001132,-164.9408883 -41.4102614,-164.3377434 -41.5131292,-163.7452548 -41.6089111,-163.1635031 -41.6978024,-162.5925656 -41.7799993,-162.0325177 -41.8556987,-161.4834317 -41.9250985,-160.9453775 -41.9883969,-160.4184223 -42.0457931,-159.9026308 -42.0974869,-159.3980649 -42.1436786,-158.9047841 -42.1845692,-158.4228449 -42.2203602,-157.9523016 -42.2512538,-157.4932054 -42.2774525,-157.0456052 -42.2991593,-156.609547 -42.3165777,-156.1850743 -42.3299117,-155.7722277 -42.3393655,-155.3710453 -42.3451436,-154.9815626 -42.3474511,-154.6038122 -42.3464931,-154.2378242 -42.3424751,-153.8836259 -42.3356028,-153.5412418 -42.3260821,-153.2106941 -42.314119,-152.8920018 -42.2999195,-152.5851817 -42.8485611,-152.425212 -48.9276908,-150.5839484 -49.4728897,-150.4126127 -49.6313199,-150.6757478 -49.798198,-150.947519 -49.9736861,-151.2277981 -50.1579452,-151.5164547 -50.3511342,-151.8133564 -50.5534106,-152.1183686 -50.7649302,-152.4313544 -50.985847,-152.7521751 -51.2163134,-153.0806898 -51.45648,-153.4167554 -51.7064955,-153.760227 -51.9665071,-154.1109576 -52.2366599,-154.4687981 -52.5170972,-154.8335974 -52.8079606,-155.2052028 -53.1093896,-155.5834592 -53.4215219,-155.9682099 -53.7444933,-156.3592962 -54.0784374,-156.7565574 -54.4234862,-157.1598313 -54.7797693,-157.5689535 -55.1474146,-157.983758 -55.5265478,-158.404077 -55.9172925,-158.829741 -56.3197702,-159.2605785 -56.7341004,-159.6964167 -57.1604004,-160.1370807 -57.5987854,-160.5823943 -58.0493683,-161.0321794 -58.51226,-161.4862564 -58.987569,-161.9444442 -59.4754016,-162.4065599 -59.9758621,-162.8724192 -60.4890521,-163.3418364 -61.0150713,-163.8146242 -61.5540168,-164.2905937 -62.1059837,-164.7695548 -62.2460209,-164.8897401 -62.2471182,-164.8906797 -62.2481915,-164.8915558 -66.0794402,-163.3939108 -66.0796349,-163.3925391 -66.079804,-163.3911044 -66.1012104,-163.2078105 -66.1820302,-162.4814914 -66.2553094,-161.7662016 -66.3212469,-161.0620165 -66.380042,-160.3690088 -66.431895,-159.6872487 -66.4770068,-159.0168037 -66.5155788,-158.3577386 -66.5478131,-157.7101155 -66.5739123,-157.0739941 -66.5940799,-156.4494312 -66.6085193,-155.8364809 -66.617435,-155.2351949 -66.6210316,-154.6456218 -66.6195143,-154.0678079 -66.6130884,-153.5017967 -66.6019599,-152.9476288 -66.586335,-152.4053425 -66.5664201,-151.8749729 -66.5424221,-151.3565529 -66.514548,-150.8501124 -66.4830048,-150.3556787 -66.4480001,-149.8732763 -66.4097413,-149.4029272 -66.3684361,-148.9446505 -66.3242921,-148.4984626 -66.2775172,-148.0643773 -66.228319,-147.6424056 -66.1769054,-147.232556 -66.123484,-146.834834 -66.0682625,-146.4492425 -66.0114484,-146.0757819 -65.953249,-145.7144497 -65.8938717,-145.3652406 -65.8335234,-145.028147 -65.7724108,-144.7031582 -65.7107405,-144.390261 -65.6487186,-144.0894396 -66.1655807,-143.845613 -71.8818291,-141.076033 -72.3935129,-140.8215188 -72.591156,-141.0566303 -72.7984939,-141.2989501 -73.0156668,-141.5483261 -73.2428132,-141.8046044 -73.4800694,-142.0676293 -73.7275698,-142.3372433 -73.985447,-142.6132868 -74.2538314,-142.8955987 -74.5328514,-143.1840159 -74.8226334,-143.4783737 -75.1233016,-143.7785055 -75.4349784,-144.0842432 -75.7577837,-144.3954169 -76.0918356,-144.7118549 -76.4372498,-145.0333841 -76.7941401,-145.3598297 -77.1626178,-145.6910152 -77.5427922,-146.0267627 -77.9347703,-146.3668926 -78.3386569,-146.711224 -78.7545544,-147.0595743 -79.1825631,-147.4117595 -79.6227809,-147.7675942 -80.0753034,-148.1268916 -80.5402237,-148.4894634 -81.017633,-148.8551201 -81.5076196,-149.2236708 -82.0102697,-149.5949234 -82.5256671,-149.9686842 -83.0538931,-150.3447585 -83.5950266,-150.7229505 -84.1491441,-151.103063 -84.7163194,-151.4848976 -85.2966243,-151.8682549 -85.8901276,-152.2529343 -86.4968959,-152.6387342 -87.1169932,-153.0254518 -87.2741074,-153.1222508 -87.2753381,-153.1230072 -87.2765353,-153.1237045 -90.8263317,-151.0451587 -90.8263094,-151.0437735 -90.826252,-151.04233 -90.8187213,-150.857944 -90.7849247,-150.1279241 -90.7454058,-149.4099774 -90.7003726,-148.704147 -90.6500337,-148.0104738 -90.5945975,-147.3289957 -90.5342732,-146.659748 -90.4692697,-146.002763 -90.3997966,-145.3580708 -90.3260632,-144.7256982 -90.2482793,-144.1056698 -90.1666545,-143.4980072 -90.0813985,-142.9027292 -89.9927213,-142.3198522 -89.9008326,-141.7493895 -89.8059422,-141.191352 -89.7082597,-140.6457478 -89.6079949,-140.1125821 -89.5053572,-139.5918577 -89.4005559,-139.0835744 -89.2938001,-138.5877295 -89.1852989,-138.1043175 -89.0752608,-137.6333302 -88.9638942,-137.1747569 -88.8514072,-136.7285839 -88.7380076,-136.2947949 -88.6239026,-135.8733711 -88.5092992,-135.464291 -88.394404,-135.0675301 -88.2794229,-134.6830616 -88.1645614,-134.310856 -88.0500247,-133.950881 -87.9360171,-133.6031018 -87.8227425,-133.2674807 -87.710404,-132.9439778 -87.5992044,-132.6325503 -87.4893454,-132.3331528 -87.3810283,-132.0457373 -87.8533841,-131.7240576 -93.0659983,-128.0943574 -93.5315676,-127.7629317 -93.7635569,-127.9642305 -94.0062493,-128.1711321 -94.2597595,-128.3834645 -94.5242,-128.6010541 -94.7996814,-128.8237257 -95.0863116,-129.0513027 -95.3841966,-129.2836067 -95.6934401,-129.5204583 -96.0141432,-129.7616763 -96.3464052,-130.0070782 -96.6903227,-130.25648 -97.0459901,-130.5096966 -97.4134995,-130.7665413 -97.7929404,-131.0268263 -98.1844003,-131.2903622 -98.587964,-131.5569588 -99.003714,-131.8264242 -99.4317303,-132.0985657 -99.8720905,-132.3731892 -100.3248699,-132.6500995 -100.790141,-132.9291003 -101.2679741,-133.2099942 -101.7584369,-133.4925828 -102.2615945,-133.7766665 -102.7775097,-134.0620449 -103.3062426,-134.3485165 -103.8478507,-134.635879 -104.402389,-134.9239289 -104.9699101,-135.2124622 -105.5504637,-135.5012737 -106.1440972,-135.7901576 -106.7508553,-136.0789072 -107.3707799,-136.367315 -108.0039105,-136.6551728 -108.6502839,-136.9422718 -109.3099343,-137.2284024 -109.9828931,-137.5133544 -110.1532157,-137.5843835 -110.1545496,-137.5849381 -110.1558411,-137.5854395 -113.3367774,-134.9771736 -113.3365387,-134.9758089 -113.3362562,-134.9743922 -113.2999739,-134.7934543 -113.1523932,-134.0777091 -113.0010492,-133.3747836 -112.8461542,-132.684688 -112.6879206,-132.0074298 -112.5265603,-131.3430139 -112.3622852,-130.6914425 -112.195307,-130.0527149 -112.0258371,-129.4268279 -111.8540867,-128.8137753 -111.6802666,-128.2135486 -111.5045873,-127.6261362 -111.327259,-127.0515241 -111.1484915,-126.4896954 -110.9684941,-125.9406306 -110.7874756,-125.4043077 -110.6056445,-124.8807016 -110.4232086,-124.369785 -110.2403753,-123.8715276 -110.0573512,-123.3858966 -109.8743426,-122.9128567 -109.6915549,-122.4523696 -109.5091929,-122.0043948 -109.3274607,-121.5688888 -109.1465618,-121.1458057 -108.9666988,-120.7350971 -108.7880734,-120.3367117 -108.6108868,-119.9505959 -108.435339,-119.5766934 -108.2616294,-119.2149454 -108.0899563,-118.8652905 -107.9205172,-118.5276649 -107.7535085,-118.2020021 -107.5891258,-117.8882332 -107.4275635,-117.5862867 -107.2690149,-117.2960888 -107.1136724,-117.0175631 -106.9617272,-116.7506307 -107.3779456,-116.3590187 -111.9585737,-111.9585737 -112.3665647,-111.5583973 -112.6271879,-111.7209266 -112.8992589,-111.8873154 -113.182864,-112.057376 -113.4780874,-112.2309191 -113.7850106,-112.4077544 -114.1037128,-112.5876907 -114.4342707,-112.7705352 -114.7767586,-112.9560945 -115.1312482,-113.1441736 -115.4978088,-113.3345769 -115.8765072,-113.5271077 -116.2674075,-113.7215681 -116.6705716,-113.9177595 -117.0860585,-114.1154823 -117.513925,-114.3145359 -117.954225,-114.5147189 -118.4070101,-114.7158292 -118.8723291,-114.9176636 -119.3502284,-115.1200185 -119.8407516,-115.3226893 -120.3439398,-115.5254707 -120.8598315,-115.7281568 -121.3884624,-115.9305409 -121.9298659,-116.1324159 -122.4840723,-116.3335739 -123.0511096,-116.5338065 -123.631003,-116.7329049 -124.223775,-116.9306596 -124.8294455,-117.1268607 -125.4480316,-117.3212979 -126.0795479,-117.5137604 -126.7240062,-117.7040371 -127.3814154,-117.8919165 -128.051782,-118.0771869 -128.7351097,-118.2596362 -129.4313993,-118.439052 -130.1406492,-118.6152218 -130.3199862,-118.6587321 -130.3213905,-118.6590711 -130.3227445,-118.6593644 -133.0564955,-115.5856024 -133.0560463,-115.5842919 -133.0555457,-115.5829368 -132.9914051,-115.4099024 -132.7336741,-114.726056 -132.4742316,-114.05546 -132.213289,-113.3980915 -131.951057,-112.7539247 -131.6877458,-112.1229312 -131.4235649,-111.50508 -131.1587235,-110.9003374 -130.8934298,-110.308667 -130.6278913,-109.7300298 -130.3623151,-109.1643843 -130.0969072,-108.6116862 -129.8318729,-108.0718888 -129.567417,-107.5449425 -129.303743,-107.0307955 -129.0410537,-106.529393 -128.7795512,-106.0406781 -128.5194365,-105.564591 -128.2609095,-105.1010694 -128.0041694,-104.6500486 -127.7494141,-104.2114615 -127.4968408,-103.7852381 -127.2466452,-103.3713062 -126.9990224,-102.9695912 -126.7541658,-102.5800158 -126.5122682,-102.2025004 -126.2735208,-101.836963 -126.0381138,-101.483319 -125.8062361,-101.1414816 -125.5780753,-100.8113615 -125.3538177,-100.4928671 -125.1336484,-100.1859043 -124.917751,-99.8903768 -124.7063078,-99.6061861 -124.4994997,-99.333231 -124.2975062,-99.0714084 -124.1005052,-98.8206127 -123.9086733,-98.5807362 -124.2585058,-98.1288346 -128.0943574,-93.0659983 -128.434724,-92.6069249 -128.7175637,-92.7266827 -129.012314,-92.8484618 -129.3190308,-92.9720629 -129.6377676,-93.0972863 -129.9685752,-93.2239312 -130.3115019,-93.3517961 -130.6665933,-93.4806789 -131.0338925,-93.6103767 -131.4134398,-93.7406858 -131.8052731,-93.8714023 -132.2094274,-94.0023212 -132.6259355,-94.1332372 -133.054827,-94.2639444 -133.4961293,-94.3942364 -133.9498668,-94.5239062 -134.4160616,-94.6527466 -134.8947327,-94.7805497 -135.3858967,-94.9071073 -135.8895675,-95.032211 -136.4057563,-95.1556518 -136.9344714,-95.2772206 -137.4757187,-95.396708 -138.0295012,-95.5139044 -138.5958192,-95.6285998 -139.1746705,-95.7405842 -139.7660499,-95.8496475 -140.3699497,-95.9555793 -140.9863594,-96.0581694 -141.6152657,-96.1572072 -142.2566527,-96.2524823 -142.9105017,-96.3437844 -143.5767914,-96.430903 -144.2554977,-96.5136278 -144.9465936,-96.5917488 -145.6500498,-96.6650558 -146.3658338,-96.733339 -147.0939106,-96.7963887 -147.2778462,-96.8113088 -147.2792862,-96.8114241 -147.2806695,-96.8115019 -149.4999212,-93.3479302 -149.4992724,-93.346706 -149.498566,-93.3454459 -149.4081466,-93.1845756 -149.0466115,-92.5494665 -148.6854589,-91.9277125 -148.3248938,-91.3192577 -147.9651204,-90.7240438 -147.6063418,-90.1420098 -147.2487603,-89.5730924 -146.8925769,-89.0172254 -146.5379917,-88.4743406 -146.1852037,-87.9443668 -145.8344107,-87.4272306 -145.4858094,-86.9228561 -145.1395953,-86.4311649 -144.7959626,-85.9520763 -144.4551046,-85.4855069 -144.1172128,-85.0313712 -143.782478,-84.5895812 -143.4510893,-84.1600464 -143.1232344,-83.7426741 -142.7991,-83.3373691 -142.4788711,-82.9440342 -142.1627313,-82.5625695 -141.8508629,-82.192873 -141.5434466,-81.8348406 -141.2406616,-81.4883655 -140.9426857,-81.1533391 -140.6496951,-80.8296503 -140.3618642,-80.5171861 -140.0793661,-80.2158309 -139.8023722,-79.9254673 -139.5310521,-79.6459757 -139.2655739,-79.3772342 -139.0061039,-79.119119 -138.7528067,-78.8715041 -138.5058452,-78.6342614 -138.2653804,-78.4072611 -138.0315717,-78.1903708 -137.8045766,-77.9834567 -138.0794091,-77.482393 -141.076033,-71.8818291 -141.3403942,-71.3751626 -141.6384859,-71.4492002 -141.9486577,-71.5233708 -142.2709339,-71.5974692 -142.6053358,-71.6712894 -142.9518822,-71.7446254 -143.3105894,-71.8172705 -143.6814707,-71.889018 -144.064537,-71.9596607 -144.4597963,-72.0289913 -144.867254,-72.0968022 -145.2869128,-72.1628856 -145.7187727,-72.2270336 -146.162831,-72.2890382 -146.6190823,-72.3486911 -147.0875184,-72.4057843 -147.5681286,-72.4601095 -148.0608993,-72.5114585 -148.5658142,-72.559623 -149.0828546,-72.6043949 -149.6119986,-72.6455663 -150.1532219,-72.6829291 -150.7064974,-72.7162758 -151.2717955,-72.7453986 -151.8490836,-72.7700902 -152.4383264,-72.7901436 -153.0394863,-72.805352 -153.6525224,-72.8155089 -154.2773917,-72.8204082 -154.914048,-72.819844 -155.5624428,-72.8136112 -156.2225247,-72.8015046 -156.8942396,-72.78332 -157.5775309,-72.7588533 -158.2723391,-72.7279013 -158.9786022,-72.690261 -159.6962556,-72.6457302 -160.4252318,-72.5941073 -160.6092369,-72.5800699 -160.6106772,-72.5799584 -160.6120555,-72.5798189 -162.2621626,-68.8117221 -162.2613303,-68.8106145 -162.2604355,-68.8094804 -162.1459636,-68.6647354 -161.6895267,-68.0940021 -161.2355567,-67.5363996 -160.7842475,-66.9918407 -160.3357915,-66.4602358 -159.8903799,-65.941493 -159.4482025,-65.4355179 -159.0094476,-64.942214 -158.574302,-64.4614823 -158.1429513,-63.9932215 -157.7155792,-63.5373283 -157.2923681,-63.0936967 -156.873499,-62.6622189 -156.4591511,-62.2427846 -156.0495021,-61.8352815 -155.6447279,-61.4395949 -155.245003,-61.055608 -154.8505001,-60.6832021 -154.4613903,-60.3222562 -154.0778429,-59.972647 -153.7000253,-59.6342495 -153.3281035,-59.3069364 -152.9622415,-58.9905785 -152.6026014,-58.6850445 -152.2493436,-58.3902011 -151.9026266,-58.1059132 -151.562607,-57.8320434 -151.2294397,-57.5684527 -150.9032773,-57.3150002 -150.5842707,-57.0715429 -150.2725689,-56.8379361 -149.9683187,-56.6140332 -149.6716651,-56.3996858 -149.3827509,-56.1947439 -149.101717,-55.9990554 -148.8287021,-55.8124667 -148.5638429,-55.6348225 -148.3072739,-55.4659657 -148.5003392,-54.9280776 -150.5839484,-48.9276908 -150.7657947,-48.385907 -151.0717985,-48.4124012 -151.3897545,-48.4371371 -151.7196544,-48.4599081 -152.0614873,-48.4805075 -152.4152394,-48.4987288 -152.7808945,-48.5143653 -153.1584335,-48.5272109 -153.5478345,-48.5370591 -153.9490732,-48.5437039 -154.3621224,-48.5469395 -154.7869522,-48.5465602 -155.2235302,-48.5423607 -155.671821,-48.5341359 -156.1317869,-48.521681 -156.6033871,-48.5047917 -157.0865785,-48.4832641 -157.5813151,-48.4568945 -158.0875483,-48.4254799 -158.6052269,-48.3888178 -159.1342969,-48.3467059 -159.6747017,-48.2989427 -160.2263821,-48.2453274 -160.7892762,-48.1856596 -161.3633195,-48.1197395 -161.9484449,-48.0473681 -162.5445825,-47.9683472 -163.1516601,-47.882479 -163.7696026,-47.7895669 -164.3983324,-47.6894147 -165.0377693,-47.5818273 -165.6878306,-47.4666102 -166.3484309,-47.3435701 -167.0194823,-47.2125144 -167.7008943,-47.0732514 -168.3925739,-46.9255906 -169.0944256,-46.7693424 -169.8063513,-46.6043181 -169.9858951,-46.5616687 -169.9873002,-46.5613333 -169.9886398,-46.5609799 -171.028971,-42.581141 -171.0279758,-42.5801772 -171.0269145,-42.5791971 -170.8912089,-42.4541415 -170.3511091,-41.9618373 -169.8155,-41.4821164 -169.2845593,-41.0148622 -168.7584633,-40.5599562 -168.2373862,-40.1172777 -167.7215008,-39.6867038 -167.2109779,-39.2681097 -166.7059867,-38.8613683 -166.2066945,-38.4663508 -165.7132666,-38.0829261 -165.2258668,-37.7109611 -164.7446566,-37.3503211 -164.2697961,-37.0008691 -163.8014429,-36.6624662 -163.3397532,-36.3349718 -162.8848808,-36.0182432 -162.4369778,-35.7121361 -161.9961942,-35.4165041 -161.5626779,-35.1311993 -161.1365749,-34.8560717 -160.718029,-34.5909698 -160.3071821,-34.3357402 -159.9041737,-34.0902279 -159.5091414,-33.8542763 -159.1222206,-33.6277268 -158.7435446,-33.4104196 -158.3732444,-33.2021931 -158.0114489,-33.002884 -157.6582847,-32.8123277 -157.3138763,-32.6303578 -156.9783459,-32.4568068 -156.6518132,-32.2915052 -156.3343961,-32.1342826 -156.0262097,-31.9849668 -155.7273672,-31.8433843 -155.4379791,-31.7093603 -155.158154,-31.5827186 -155.264698,-31.0212507 -156.3839873,-24.7687903 -156.4788411,-24.2052297 -156.785222,-24.1835282 -157.103133,-24.1582203 -157.4325335,-24.1291032 -157.7733803,-24.0959746 -158.1256276,-24.0586325 -158.489227,-24.0168755 -158.8641273,-23.9705028 -159.2502748,-23.919314 -159.647613,-23.8631095 -160.056083,-23.8016901 -160.4756232,-23.7348574 -160.9061692,-23.6624138 -161.3476542,-23.5841621 -161.8000087,-23.499906 -162.2631607,-23.4094502 -162.7370355,-23.3125998 -163.221556,-23.209161 -163.7166423,-23.0989409 -164.2222122,-22.9817473 -164.7381807,-22.8573891 -165.2644604,-22.7256761 -165.8009614,-22.586419 -166.3475913,-22.4394297 -166.904255,-22.2845211 -167.4708551,-22.121507 -168.0472917,-21.9502024 -168.6334624,-21.7704236 -169.2292623,-21.5819879 -169.8345842,-21.3847137 -170.4493182,-21.1784209 -171.0733522,-20.9629303 -171.7065717,-20.7380644 -172.3488597,-20.5036466 -173.0000969,-20.2595019 -173.6601616,-20.0054565 -174.3289297,-19.7413381 -175.0062749,-19.4669759 -175.1769364,-19.3967648 -175.1782717,-19.3962137 -175.1795395,-19.3956551 -175.5844786,-15.3020709 -175.5833448,-15.3012747 -175.5821433,-15.3004727 -175.4285454,-15.1981857 -174.8180818,-14.7964328 -174.2140221,-14.4064058 -173.6165235,-14.0279617 -173.0257416,-13.6609559 -172.4418297,-13.3052419 -171.8649391,-12.9606714 -171.2952191,-12.6270942 -170.7328168,-12.3043586 -170.1778773,-11.9923108 -169.6305435,-11.6907958 -169.0909562,-11.3996566 -168.559254,-11.1187344 -168.0355734,-10.8478693 -167.5200486,-10.5868993 -167.0128116,-10.3356611 -166.5139922,-10.0939897 -166.0237179,-9.8617187 -165.5421141,-9.6386802 -165.0693036,-9.4247048 -164.6054072,-9.2196217 -164.1505432,-9.0232587 -163.7048278,-8.835442 -163.2683745,-8.6559968 -162.8412948,-8.4847467 -162.4236975,-8.3215142 -162.0156893,-8.1661204 -161.6173743,-8.0183852 -161.2288543,-7.8781272 -160.8502286,-7.745164 -160.481594,-7.6193119 -160.1230451,-7.5003861 -159.7746738,-7.3882006 -159.4365695,-7.2825687 -159.1088193,-7.1833021 -158.7915076,-7.090212 -158.4847165,-7.0031083 -158.1885253,-6.9218001 -158.2059247,-6.3505777 -158.3333333,0 -158.3388591,0.5714606 -158.6380731,0.6408235 -158.948111,0.715552 -159.2689011,0.7958402 -159.600369,0.8818812 -159.942438,0.9738672 -160.2950287,1.0719895 -160.658059,1.1764387 -161.0314447,1.287404 -161.4150988,1.4050739 -161.8089317,1.5296359 -162.2128517,1.6612763 -162.6267643,1.8001803 -163.0505726,1.9465321 -163.4841773,2.1005146 -163.9274767,2.2623098 -164.3803667,2.4320981 -164.8427405,2.6100591 -165.3144893,2.7963708 -165.7955016,2.9912101 -166.2856638,3.1947525 -166.7848596,3.4071722 -167.2929708,3.628642 -167.8098766,3.8593333 -168.3354538,4.0994162 -168.8695771,4.3490591 -169.4121189,4.6084292 -169.9629492,4.8776919 -170.521936,5.1570114 -171.0889449,5.4465499 -171.6638392,5.7464686 -172.2464802,6.0569265 -172.8367269,6.3780813 -173.4344362,6.710089 -174.039463,7.0531038 -174.6516597,7.4072783 -175.270877,7.7727633 -175.8969632,8.1497079 -176.0545401,8.2457519 -176.0557728,8.2465051 -176.0569376,8.2472552 -175.8165136,12.353787 -175.8152692,12.354396 -175.813957,12.3550002 -175.646249,12.4319998 -174.9804532,12.7333089 -174.3228167,13.0240383 -173.6734727,13.3043537 -173.0325519,13.5744224 -172.400183,13.834413 -171.7764922,14.0844958 -171.1616034,14.3248422 -170.5556382,14.5556254 -169.9587159,14.7770196 -169.3709534,14.9892006 -168.7924651,15.1923454 -168.2233632,15.3866324 -167.6637573,15.572241 -167.1137548,15.7493522 -166.5734604,15.9181479 -166.0429765,16.0788114 -165.5224032,16.2315269 -165.0118377,16.37648 -164.5113752,16.5138571 -164.0211081,16.6438459 -163.5411263,16.7666351 -163.0715173,16.8824141 -162.6123661,16.9913737 -162.163755,17.0937054 -161.7257639,17.1896016 -161.29847,17.2792557 -160.881948,17.3628619 -160.4762702,17.4406151 -160.0815059,17.5127113 -159.6977223,17.5793468 -159.3249836,17.640719 -158.9633517,17.697026 -158.6128855,17.7484663 -158.2736418,17.7952393 -157.9456742,17.8375448 -157.6290341,17.8755834 -157.3237702,17.9095561 -157.2515965,18.4764677 -156.3839873,24.7687903 -156.3000488,25.3340797 -156.5847283,25.449396 -156.879259,25.5717051 -157.1835398,25.7011874 -157.497467,25.8380221 -157.8209348,25.982387 -158.1538348,26.1344586 -158.4960562,26.2944123 -158.8474861,26.4624218 -159.208009,26.6386598 -159.5775075,26.8232972 -159.9558614,27.0165039 -160.3429487,27.218448 -160.7386448,27.4292961 -161.1428229,27.6492136 -161.5553543,27.8783641 -161.9761076,28.1169097 -162.4049496,28.3650109 -162.8417448,28.6228265 -163.2863555,28.8905139 -163.7386419,29.1682286 -164.1984621,29.4561245 -164.6656721,29.7543538 -165.1401258,30.0630668 -165.621675,30.3824122 -166.1101696,30.7125369 -166.6054574,31.053586 -167.1073842,31.4057025 -167.6157937,31.7690278 -168.1305279,32.1437014 -168.6514267,32.5298608 -169.1783281,32.9276416 -169.7110682,33.3371774 -170.2494814,33.7585999 -170.7933999,34.1920387 -171.3426543,34.6376214 -171.8970736,35.0954736 -172.4564845,35.5657188 -172.5970968,35.6852308 -172.5981965,35.6861676 -172.5992296,35.6870906 -171.7193625,39.7054536 -171.7180382,39.7058605 -171.7166476,39.706252 -171.538959,39.7560683 -170.8342251,39.9495144 -170.1392051,40.1337874 -169.4540046,40.3090719 -168.7787266,40.4755534 -168.1134717,40.6334189 -167.458338,40.7828559 -166.813421,40.9240535 -166.1788138,41.0572015 -165.554607,41.1824908 -164.9408883,41.3001132 -164.3377434,41.4102614 -163.7452548,41.5131292 -163.1635031,41.6089111 -162.5925656,41.6978024 -162.0325177,41.7799993 -161.4834317,41.8556987 -160.9453775,41.9250985 -160.4184223,41.9883969 -159.9026308,42.0457931 -159.3980649,42.0974869 -158.9047841,42.1436786 -158.4228449,42.1845692 -157.9523016,42.2203602 -157.4932054,42.2512538 -157.0456052,42.2774525 -156.609547,42.2991593 -156.1850743,42.3165777 -155.7722277,42.3299117 -155.3710453,42.3393655 -154.9815626,42.3451436 -154.6038122,42.3474511 -154.2378242,42.3464931 -153.8836259,42.3424751 -153.5412418,42.3356028 -153.2106941,42.3260821 -152.8920018,42.314119 -152.5851817,42.2999195 -152.425212,42.8485611 -150.5839484,48.9276908 -150.4126127,49.4728897 -150.6757478,49.6313199 -150.947519,49.798198 -151.2277981,49.9736861 -151.5164547,50.1579452 -151.8133564,50.3511342 -152.1183686,50.5534106 -152.4313544,50.7649302 -152.7521751,50.985847 -153.0806898,51.2163134 -153.4167554,51.45648 -153.760227,51.7064955 -154.1109576,51.9665071 -154.4687981,52.2366599 -154.8335974,52.5170972 -155.2052028,52.8079606 -155.5834592,53.1093896 -155.9682099,53.4215219 -156.3592962,53.7444933 -156.7565574,54.0784374 -157.1598313,54.4234862 -157.5689535,54.7797693 -157.983758,55.1474146 -158.404077,55.5265478 -158.829741,55.9172925 -159.2605785,56.3197702 -159.6964167,56.7341004 -160.1370807,57.1604004 -160.5823943,57.5987854 -161.0321794,58.0493683 -161.4862564,58.51226 -161.9444442,58.987569 -162.4065599,59.4754016 -162.8724192,59.9758621 -163.3418364,60.4890521 -163.8146242,61.0150713 -164.2905937,61.5540168 -164.7695548,62.1059837 -164.8897401,62.2460209 -164.8906797,62.2471182 -164.8915558,62.2481915 -163.3939108,66.0794402 -163.3925391,66.0796349 -163.3911044,66.079804 -163.2078105,66.1012104 -162.4814914,66.1820302 -161.7662016,66.2553094 -161.0620165,66.3212469 -160.3690088,66.380042 -159.6872487,66.431895 -159.0168037,66.4770068 -158.3577386,66.5155788 -157.7101155,66.5478131 -157.0739941,66.5739123 -156.4494312,66.5940799 -155.8364809,66.6085193 -155.2351949,66.617435 -154.6456218,66.6210316 -154.0678079,66.6195143 -153.5017967,66.6130884 -152.9476288,66.6019599 -152.4053425,66.586335 -151.8749729,66.5664201 -151.3565529,66.5424221 -150.8501124,66.514548 -150.3556787,66.4830048 -149.8732763,66.4480001 -149.4029272,66.4097413 -148.9446505,66.3684361 -148.4984626,66.3242921 -148.0643773,66.2775172 -147.6424056,66.228319 -147.232556,66.1769054 -146.834834,66.123484 -146.4492425,66.0682625 -146.0757819,66.0114484 -145.7144497,65.953249 -145.3652406,65.8938717 -145.028147,65.8335234 -144.7031582,65.7724108 -144.390261,65.7107405 -144.0894396,65.6487186 -143.845613,66.1655807 -141.076033,71.8818291 -140.8215188,72.3935129 -141.0566303,72.591156 -141.2989501,72.7984939 -141.5483261,73.0156668 -141.8046044,73.2428132 -142.0676293,73.4800694 -142.3372433,73.7275698 -142.6132868,73.985447 -142.8955987,74.2538314 -143.1840159,74.5328514 -143.4783737,74.8226334 -143.7785055,75.1233016 -144.0842432,75.4349784 -144.3954169,75.7577837 -144.7118549,76.0918356 -145.0333841,76.4372498 -145.3598297,76.7941401 -145.6910152,77.1626178 -146.0267627,77.5427922 -146.3668926,77.9347703 -146.711224,78.3386569 -147.0595743,78.7545544 -147.4117595,79.1825631 -147.7675942,79.6227809 -148.1268916,80.0753034 -148.4894634,80.5402237 -148.8551201,81.017633 -149.2236708,81.5076196 -149.5949234,82.0102697 -149.9686842,82.5256671 -150.3447585,83.0538931 -150.7229505,83.5950266 -151.103063,84.1491441 -151.4848976,84.7163194 -151.8682549,85.2966243 -152.2529343,85.8901276 -152.6387342,86.4968959 -153.0254518,87.1169932 -153.1222508,87.2741074 -153.1230072,87.2753381 -153.1237045,87.2765353 -151.0451587,90.8263317 -151.0437735,90.8263094 -151.04233,90.826252 -150.857944,90.8187213 -150.1279241,90.7849247 -149.4099774,90.7454058 -148.704147,90.7003726 -148.0104738,90.6500337 -147.3289957,90.5945975 -146.659748,90.5342732 -146.002763,90.4692697 -145.3580708,90.3997966 -144.7256982,90.3260632 -144.1056698,90.2482793 -143.4980072,90.1666545 -142.9027292,90.0813985 -142.3198522,89.9927213 -141.7493895,89.9008326 -141.191352,89.8059422 -140.6457478,89.7082597 -140.1125821,89.6079949 -139.5918577,89.5053572 -139.0835744,89.4005559 -138.5877295,89.2938001 -138.1043175,89.1852989 -137.6333302,89.0752608 -137.1747569,88.9638942 -136.7285839,88.8514072 -136.2947949,88.7380076 -135.8733711,88.6239026 -135.464291,88.5092992 -135.0675301,88.394404 -134.6830616,88.2794229 -134.310856,88.1645614 -133.950881,88.0500247 -133.6031018,87.9360171 -133.2674807,87.8227425 -132.9439778,87.710404 -132.6325503,87.5992044 -132.3331528,87.4893454 -132.0457373,87.3810283 -131.7240576,87.8533841 -128.0943574,93.0659983 -127.7629317,93.5315676 -127.9642305,93.7635569 -128.1711321,94.0062493 -128.3834645,94.2597595 -128.6010541,94.5242 -128.8237257,94.7996814 -129.0513027,95.0863116 -129.2836067,95.3841966 -129.5204583,95.6934401 -129.7616763,96.0141432 -130.0070782,96.3464052 -130.25648,96.6903227 -130.5096966,97.0459901 -130.7665413,97.4134995 -131.0268263,97.7929404 -131.2903622,98.1844003 -131.5569588,98.587964 -131.8264242,99.003714 -132.0985657,99.4317303 -132.3731892,99.8720905 -132.6500995,100.3248699 -132.9291003,100.790141 -133.2099942,101.2679741 -133.4925828,101.7584369 -133.7766665,102.2615945 -134.0620449,102.7775097 -134.3485165,103.3062426 -134.635879,103.8478507 -134.9239289,104.402389 -135.2124622,104.9699101 -135.5012737,105.5504637 -135.7901576,106.1440972 -136.0789072,106.7508553 -136.367315,107.3707799 -136.6551728,108.0039105 -136.9422718,108.6502839 -137.2284024,109.3099343 -137.5133544,109.9828931 -137.5843835,110.1532157 -137.5849381,110.1545496 -137.5854395,110.1558411 -134.9771736,113.3367774 -134.9758089,113.3365387 -134.9743922,113.3362562 -134.7934543,113.2999739 -134.0777091,113.1523932 -133.3747836,113.0010492 -132.684688,112.8461542 -132.0074298,112.6879206 -131.3430139,112.5265603 -130.6914425,112.3622852 -130.0527149,112.195307 -129.4268279,112.0258371 -128.8137753,111.8540867 -128.2135486,111.6802666 -127.6261362,111.5045873 -127.0515241,111.327259 -126.4896954,111.1484915 -125.9406306,110.9684941 -125.4043077,110.7874756 -124.8807016,110.6056445 -124.369785,110.4232086 -123.8715276,110.2403753 -123.3858966,110.0573512 -122.9128567,109.8743426 -122.4523696,109.6915549 -122.0043948,109.5091929 -121.5688888,109.3274607 -121.1458057,109.1465618 -120.7350971,108.9666988 -120.3367117,108.7880734 -119.9505959,108.6108868 -119.5766934,108.435339 -119.2149454,108.2616294 -118.8652905,108.0899563 -118.5276649,107.9205172 -118.2020021,107.7535085 -117.8882332,107.5891258 -117.5862867,107.4275635 -117.2960888,107.2690149 -117.0175631,107.1136724 -116.7506307,106.9617272 -116.3590187,107.3779456 -111.9585737,111.9585737 -111.5583973,112.3665647 -111.7209266,112.6271879 -111.8873154,112.8992589 -112.057376,113.182864 -112.2309191,113.4780874 -112.4077544,113.7850106 -112.5876907,114.1037128 -112.7705352,114.4342707 -112.9560945,114.7767586 -113.1441736,115.1312482 -113.3345769,115.4978088 -113.5271077,115.8765072 -113.7215681,116.2674075 -113.9177595,116.6705716 -114.1154823,117.0860585 -114.3145359,117.513925 -114.5147189,117.954225 -114.7158292,118.4070101 -114.9176636,118.8723291 -115.1200185,119.3502284 -115.3226893,119.8407516 -115.5254707,120.3439398 -115.7281568,120.8598315 -115.9305409,121.3884624 -116.1324159,121.9298659 -116.3335739,122.4840723 -116.5338065,123.0511096 -116.7329049,123.631003 -116.9306596,124.223775 -117.1268607,124.8294455 -117.3212979,125.4480316 -117.5137604,126.0795479 -117.7040371,126.7240062 -117.8919165,127.3814154 -118.0771869,128.051782 -118.2596362,128.7351097 -118.439052,129.4313993 -118.6152218,130.1406492 -118.6587321,130.3199862 -118.6590711,130.3213905 -118.6593644,130.3227445 -115.5856024,133.0564955 -115.5842919,133.0560463 -115.5829368,133.0555457 -115.4099024,132.9914051 -114.726056,132.7336741 -114.05546,132.4742316 -113.3980915,132.213289 -112.7539247,131.951057 -112.1229312,131.6877458 -111.50508,131.4235649 -110.9003374,131.1587235 -110.308667,130.8934298 -109.7300298,130.6278913 -109.1643843,130.3623151 -108.6116862,130.0969072 -108.0718888,129.8318729 -107.5449425,129.567417 -107.0307955,129.303743 -106.529393,129.0410537 -106.0406781,128.7795512 -105.564591,128.5194365 -105.1010694,128.2609095 -104.6500486,128.0041694 -104.2114615,127.7494141 -103.7852381,127.4968408 -103.3713062,127.2466452 -102.9695912,126.9990224 -102.5800158,126.7541658 -102.2025004,126.5122682 -101.836963,126.2735208 -101.483319,126.0381138 -101.1414816,125.8062361 -100.8113615,125.5780753 -100.4928671,125.3538177 -100.1859043,125.1336484 -99.8903768,124.917751 -99.6061861,124.7063078 -99.333231,124.4994997 -99.0714084,124.2975062 -98.8206127,124.1005052 -98.5807362,123.9086733 -98.1288346,124.2585058 -93.0659983,128.0943574 -92.6069249,128.434724 -92.7266827,128.7175637 -92.8484618,129.012314 -92.9720629,129.3190308 -93.0972863,129.6377676 -93.2239312,129.9685752 -93.3517961,130.3115019 -93.4806789,130.6665933 -93.6103767,131.0338925 -93.7406858,131.4134398 -93.8714023,131.8052731 -94.0023212,132.2094274 -94.1332372,132.6259355 -94.2639444,133.054827 -94.3942364,133.4961293 -94.5239062,133.9498668 -94.6527466,134.4160616 -94.7805497,134.8947327 -94.9071073,135.3858967 -95.032211,135.8895675 -95.1556518,136.4057563 -95.2772206,136.9344714 -95.396708,137.4757187 -95.5139044,138.0295012 -95.6285998,138.5958192 -95.7405842,139.1746705 -95.8496475,139.7660499 -95.9555793,140.3699497 -96.0581694,140.9863594 -96.1572072,141.6152657 -96.2524823,142.2566527 -96.3437844,142.9105017 -96.430903,143.5767914 -96.5136278,144.2554977 -96.5917488,144.9465936 -96.6650558,145.6500498 -96.733339,146.3658338 -96.7963887,147.0939106 -96.8113088,147.2778462 -96.8114241,147.2792862 -96.8115019,147.2806695 -93.3479302,149.4999212 -93.346706,149.4992724 -93.3454459,149.498566 -93.1845756,149.4081466 -92.5494665,149.0466115 -91.9277125,148.6854589 -91.3192577,148.3248938 -90.7240438,147.9651204 -90.1420098,147.6063418 -89.5730924,147.2487603 -89.0172254,146.8925769 -88.4743406,146.5379917 -87.9443668,146.1852037 -87.4272306,145.8344107 -86.9228561,145.4858094 -86.4311649,145.1395953 -85.9520763,144.7959626 -85.4855069,144.4551046 -85.0313712,144.1172128 -84.5895812,143.782478 -84.1600464,143.4510893 -83.7426741,143.1232344 -83.3373691,142.7991 -82.9440342,142.4788711 -82.5625695,142.1627313 -82.192873,141.8508629 -81.8348406,141.5434466 -81.4883655,141.2406616 -81.1533391,140.9426857 -80.8296503,140.6496951 -80.5171861,140.3618642 -80.2158309,140.0793661 -79.9254673,139.8023722 -79.6459757,139.5310521 -79.3772342,139.2655739 -79.119119,139.0061039 -78.8715041,138.7528067 -78.6342614,138.5058452 -78.4072611,138.2653804 -78.1903708,138.0315717 -77.9834567,137.8045766 -77.482393,138.0794091 -71.8818291,141.076033 -71.3751626,141.3403942 -71.4492002,141.6384859 -71.5233708,141.9486577 -71.5974692,142.2709339 -71.6712894,142.6053358 -71.7446254,142.9518822 -71.8172705,143.3105894 -71.889018,143.6814707 -71.9596607,144.064537 -72.0289913,144.4597963 -72.0968022,144.867254 -72.1628856,145.2869128 -72.2270336,145.7187727 -72.2890382,146.162831 -72.3486911,146.6190823 -72.4057843,147.0875184 -72.4601095,147.5681286 -72.5114585,148.0608993 -72.559623,148.5658142 -72.6043949,149.0828546 -72.6455663,149.6119986 -72.6829291,150.1532219 -72.7162758,150.7064974 -72.7453986,151.2717955 -72.7700902,151.8490836 -72.7901436,152.4383264 -72.805352,153.0394863 -72.8155089,153.6525224 -72.8204082,154.2773917 -72.819844,154.914048 -72.8136112,155.5624428 -72.8015046,156.2225247 -72.78332,156.8942396 -72.7588533,157.5775309 -72.7279013,158.2723391 -72.690261,158.9786022 -72.6457302,159.6962556 -72.5941073,160.4252318 -72.5800699,160.6092369 -72.5799584,160.6106772 -72.5798189,160.6120555 -68.8117221,162.2621626 -68.8106145,162.2613303 -68.8094804,162.2604355 -68.6647354,162.1459636 -68.0940021,161.6895267 -67.5363996,161.2355567 -66.9918407,160.7842475 -66.4602358,160.3357915 -65.941493,159.8903799 -65.4355179,159.4482025 -64.942214,159.0094476 -64.4614823,158.574302 -63.9932215,158.1429513 -63.5373283,157.7155792 -63.0936967,157.2923681 -62.6622189,156.873499 -62.2427846,156.4591511 -61.8352815,156.0495021 -61.4395949,155.6447279 -61.055608,155.245003 -60.6832021,154.8505001 -60.3222562,154.4613903 -59.972647,154.0778429 -59.6342495,153.7000253 -59.3069364,153.3281035 -58.9905785,152.9622415 -58.6850445,152.6026014 -58.3902011,152.2493436 -58.1059132,151.9026266 -57.8320434,151.562607 -57.5684527,151.2294397 -57.3150002,150.9032773 -57.0715429,150.5842707 -56.8379361,150.2725689 -56.6140332,149.9683187 -56.3996858,149.6716651 -56.1947439,149.3827509 -55.9990554,149.101717 -55.8124667,148.8287021 -55.6348225,148.5638429 -55.4659657,148.3072739 -54.9280776,148.5003392 -48.9276908,150.5839484 -48.385907,150.7657947 -48.4124012,151.0717985 -48.4371371,151.3897545 -48.4599081,151.7196544 -48.4805075,152.0614873 -48.4987288,152.4152394 -48.5143653,152.7808945 -48.5272109,153.1584335 -48.5370591,153.5478345 -48.5437039,153.9490732 -48.5469395,154.3621224 -48.5465602,154.7869522 -48.5423607,155.2235302 -48.5341359,155.671821 -48.521681,156.1317869 -48.5047917,156.6033871 -48.4832641,157.0865785 -48.4568945,157.5813151 -48.4254799,158.0875483 -48.3888178,158.6052269 -48.3467059,159.1342969 -48.2989427,159.6747017 -48.2453274,160.2263821 -48.1856596,160.7892762 -48.1197395,161.3633195 -48.0473681,161.9484449 -47.9683472,162.5445825 -47.882479,163.1516601 -47.7895669,163.7696026 -47.6894147,164.3983324 -47.5818273,165.0377693 -47.4666102,165.6878306 -47.3435701,166.3484309 -47.2125144,167.0194823 -47.0732514,167.7008943 -46.9255906,168.3925739 -46.7693424,169.0944256 -46.6043181,169.8063513 -46.5616687,169.9858951 -46.5613333,169.9873002 -46.5609799,169.9886398 -42.581141,171.028971 -42.5801772,171.0279758 -42.5791971,171.0269145 -42.4541415,170.8912089 -41.9618373,170.3511091 -41.4821164,169.8155 -41.0148622,169.2845593 -40.5599562,168.7584633 -40.1172777,168.2373862 -39.6867038,167.7215008 -39.2681097,167.2109779 -38.8613683,166.7059867 -38.4663508,166.2066945 -38.0829261,165.7132666 -37.7109611,165.2258668 -37.3503211,164.7446566 -37.0008691,164.2697961 -36.6624662,163.8014429 -36.3349718,163.3397532 -36.0182432,162.8848808 -35.7121361,162.4369778 -35.4165041,161.9961942 -35.1311993,161.5626779 -34.8560717,161.1365749 -34.5909698,160.718029 -34.3357402,160.3071821 -34.0902279,159.9041737 -33.8542763,159.5091414 -33.6277268,159.1222206 -33.4104196,158.7435446 -33.2021931,158.3732444 -33.002884,158.0114489 -32.8123277,157.6582847 -32.6303578,157.3138763 -32.4568068,156.9783459 -32.2915052,156.6518132 -32.1342826,156.3343961 -31.9849668,156.0262097 -31.8433843,155.7273672 -31.7093603,155.4379791 -31.5827186,155.158154 -31.0212507,155.264698 -24.7687903,156.3839873 -24.2052297,156.4788411 -24.1835282,156.785222 -24.1582203,157.103133 -24.1291032,157.4325335 -24.0959746,157.7733803 -24.0586325,158.1256276 -24.0168755,158.489227 -23.9705028,158.8641273 -23.919314,159.2502748 -23.8631095,159.647613 -23.8016901,160.056083 -23.7348574,160.4756232 -23.6624138,160.9061692 -23.5841621,161.3476542 -23.499906,161.8000087 -23.4094502,162.2631607 -23.3125998,162.7370355 -23.209161,163.221556 -23.0989409,163.7166423 -22.9817473,164.2222122 -22.8573891,164.7381807 -22.7256761,165.2644604 -22.586419,165.8009614 -22.4394297,166.3475913 -22.2845211,166.904255 -22.121507,167.4708551 -21.9502024,168.0472917 -21.7704236,168.6334624 -21.5819879,169.2292623 -21.3847137,169.8345842 -21.1784209,170.4493182 -20.9629303,171.0733522 -20.7380644,171.7065717 -20.5036466,172.3488597 -20.2595019,173.0000969 -20.0054565,173.6601616 -19.7413381,174.3289297 -19.4669759,175.0062749 -19.3967648,175.1769364 -19.3962137,175.1782717 -19.3956551,175.1795395 -15.3020709,175.5844786 -15.3012747,175.5833448 -15.3004727,175.5821433 -15.1981857,175.4285454 -14.7964328,174.8180818 -14.4064058,174.2140221 -14.0279617,173.6165235 -13.6609559,173.0257416 -13.3052419,172.4418297 -12.9606714,171.8649391 -12.6270942,171.2952191 -12.3043586,170.7328168 -11.9923108,170.1778773 -11.6907958,169.6305435 -11.3996566,169.0909562 -11.1187344,168.559254 -10.8478693,168.0355734 -10.5868993,167.5200486 -10.3356611,167.0128116 -10.0939897,166.5139922 -9.8617187,166.0237179 -9.6386802,165.5421141 -9.4247048,165.0693036 -9.2196217,164.6054072 -9.0232587,164.1505432 -8.835442,163.7048278 -8.6559968,163.2683745 -8.4847467,162.8412948 -8.3215142,162.4236975 -8.1661204,162.0156893 -8.0183852,161.6173743 -7.8781272,161.2288543 -7.745164,160.8502286 -7.6193119,160.481594 -7.5003861,160.1230451 -7.3882006,159.7746738 -7.2825687,159.4365695 -7.1833021,159.1088193 -7.090212,158.7915076 -7.0031083,158.4847165 -6.9218001,158.1885253 -6.3505777,158.2059247 0,158.3333333 0.5714606,158.3388591 0.6408235,158.6380731 0.715552,158.948111 0.7958402,159.2689011 0.8818812,159.600369 0.9738672,159.942438 1.0719895,160.2950287 1.1764387,160.658059 1.287404,161.0314447 1.4050739,161.4150988 1.5296359,161.8089317 1.6612763,162.2128517 1.8001803,162.6267643 1.9465321,163.0505726 2.1005146,163.4841773 2.2623098,163.9274767 2.4320981,164.3803667 2.6100591,164.8427405 2.7963708,165.3144893 2.9912101,165.7955016 3.1947525,166.2856638 3.4071722,166.7848596 3.628642,167.2929708 3.8593333,167.8098766 4.0994162,168.3354538 4.3490591,168.8695771 4.6084292,169.4121189 4.8776919,169.9629492 5.1570114,170.521936 5.4465499,171.0889449 5.7464686,171.6638392 6.0569265,172.2464802 6.3780813,172.8367269 6.710089,173.4344362 7.0531038,174.039463 7.4072783,174.6516597 7.7727633,175.270877 8.1497079,175.8969632 8.2457519,176.0545401 8.2465051,176.0557728 8.2472552,176.0569376 12.353787,175.8165136 12.354396,175.8152692 12.3550002,175.813957 12.4319998,175.646249 12.7333089,174.9804532 13.0240383,174.3228167 13.3043537,173.6734727 13.5744224,173.0325519 13.834413,172.400183 14.0844958,171.7764922 14.3248422,171.1616034 14.5556254,170.5556382 14.7770196,169.9587159 14.9892006,169.3709534 15.1923454,168.7924651 15.3866324,168.2233632 15.572241,167.6637573 15.7493522,167.1137548 15.9181479,166.5734604 16.0788114,166.0429765 16.2315269,165.5224032 16.37648,165.0118377 16.5138571,164.5113752 16.6438459,164.0211081 16.7666351,163.5411263 16.8824141,163.0715173 16.9913737,162.6123661 17.0937054,162.163755 17.1896016,161.7257639 17.2792557,161.29847 17.3628619,160.881948 17.4406151,160.4762702 17.5127113,160.0815059 17.5793468,159.6977223 17.640719,159.3249836 17.697026,158.9633517 17.7484663,158.6128855 17.7952393,158.2736418 17.8375448,157.9456742 17.8755834,157.6290341 17.9095561,157.3237702 18.4764677,157.2515965 24.7687903,156.3839873 25.3340797,156.3000488 25.449396,156.5847283 25.5717051,156.879259 25.7011874,157.1835398 25.8380221,157.497467 25.982387,157.8209348 26.1344586,158.1538348 26.2944123,158.4960562 26.4624218,158.8474861 26.6386598,159.208009 26.8232972,159.5775075 27.0165039,159.9558614 27.218448,160.3429487 27.4292961,160.7386448 27.6492136,161.1428229 27.8783641,161.5553543 28.1169097,161.9761076 28.3650109,162.4049496 28.6228265,162.8417448 28.8905139,163.2863555 29.1682286,163.7386419 29.4561245,164.1984621 29.7543538,164.6656721 30.0630668,165.1401258 30.3824122,165.621675 30.7125369,166.1101696 31.053586,166.6054574 31.4057025,167.1073842 31.7690278,167.6157937 32.1437014,168.1305279 32.5298608,168.6514267 32.9276416,169.1783281 33.3371774,169.7110682 33.7585999,170.2494814 34.1920387,170.7933999 34.6376214,171.3426543 35.0954736,171.8970736 35.5657188,172.4564845 35.6852308,172.5970968 35.6861676,172.5981965 35.6870906,172.5992296 39.7054536,171.7193625 39.7058605,171.7180382 39.706252,171.7166476 39.7560683,171.538959 39.9495144,170.8342251 40.1337874,170.1392051 40.3090719,169.4540046 40.4755534,168.7787266 40.6334189,168.1134717 40.7828559,167.458338 40.9240535,166.813421 41.0572015,166.1788138 41.1824908,165.554607 41.3001132,164.9408883 41.4102614,164.3377434 41.5131292,163.7452548 41.6089111,163.1635031 41.6978024,162.5925656 41.7799993,162.0325177 41.8556987,161.4834317 41.9250985,160.9453775 41.9883969,160.4184223 42.0457931,159.9026308 42.0974869,159.3980649 42.1436786,158.9047841 42.1845692,158.4228449 42.2203602,157.9523016 42.2512538,157.4932054 42.2774525,157.0456052 42.2991593,156.609547 42.3165777,156.1850743 42.3299117,155.7722277 42.3393655,155.3710453 42.3451436,154.9815626 42.3474511,154.6038122 42.3464931,154.2378242 42.3424751,153.8836259 42.3356028,153.5412418 42.3260821,153.2106941 42.314119,152.8920018 42.2999195,152.5851817 42.8485611,152.425212 48.9276908,150.5839484 49.4728897,150.4126127 49.6313199,150.6757478 49.798198,150.947519 49.9736861,151.2277981 50.1579452,151.5164547 50.3511342,151.8133564 50.5534106,152.1183686 50.7649302,152.4313544 50.985847,152.7521751 51.2163134,153.0806898 51.45648,153.4167554 51.7064955,153.760227 51.9665071,154.1109576 52.2366599,154.4687981 52.5170972,154.8335974 52.8079606,155.2052028 53.1093896,155.5834592 53.4215219,155.9682099 53.7444933,156.3592962 54.0784374,156.7565574 54.4234862,157.1598313 54.7797693,157.5689535 55.1474146,157.983758 55.5265478,158.404077 55.9172925,158.829741 56.3197702,159.2605785 56.7341004,159.6964167 57.1604004,160.1370807 57.5987854,160.5823943 58.0493683,161.0321794 58.51226,161.4862564 58.987569,161.9444442 59.4754016,162.4065599 59.9758621,162.8724192 60.4890521,163.3418364 61.0150713,163.8146242 61.5540168,164.2905937 62.1059837,164.7695548 62.2460209,164.8897401 62.2471182,164.8906797 62.2481915,164.8915558 66.0794402,163.3939108 66.0796349,163.3925391 66.079804,163.3911044 66.1012104,163.2078105 66.1820302,162.4814914 66.2553094,161.7662016 66.3212469,161.0620165 66.380042,160.3690088 66.431895,159.6872487 66.4770068,159.0168037 66.5155788,158.3577386 66.5478131,157.7101155 66.5739123,157.0739941 66.5940799,156.4494312 66.6085193,155.8364809 66.617435,155.2351949 66.6210316,154.6456218 66.6195143,154.0678079 66.6130884,153.5017967 66.6019599,152.9476288 66.586335,152.4053425 66.5664201,151.8749729 66.5424221,151.3565529 66.514548,150.8501124 66.4830048,150.3556787 66.4480001,149.8732763 66.4097413,149.4029272 66.3684361,148.9446505 66.3242921,148.4984626 66.2775172,148.0643773 66.228319,147.6424056 66.1769054,147.232556 66.123484,146.834834 66.0682625,146.4492425 66.0114484,146.0757819 65.953249,145.7144497 65.8938717,145.3652406 65.8335234,145.028147 65.7724108,144.7031582 65.7107405,144.390261 65.6487186,144.0894396 66.1655807,143.845613 71.8818291,141.076033 72.3935129,140.8215188 72.591156,141.0566303 72.7984939,141.2989501 73.0156668,141.5483261 73.2428132,141.8046044 73.4800694,142.0676293 73.7275698,142.3372433 73.985447,142.6132868 74.2538314,142.8955987 74.5328514,143.1840159 74.8226334,143.4783737 75.1233016,143.7785055 75.4349784,144.0842432 75.7577837,144.3954169 76.0918356,144.7118549 76.4372498,145.0333841 76.7941401,145.3598297 77.1626178,145.6910152 77.5427922,146.0267627 77.9347703,146.3668926 78.3386569,146.711224 78.7545544,147.0595743 79.1825631,147.4117595 79.6227809,147.7675942 80.0753034,148.1268916 80.5402237,148.4894634 81.017633,148.8551201 81.5076196,149.2236708 82.0102697,149.5949234 82.5256671,149.9686842 83.0538931,150.3447585 83.5950266,150.7229505 84.1491441,151.103063 84.7163194,151.4848976 85.2966243,151.8682549 85.8901276,152.2529343 86.4968959,152.6387342 87.1169932,153.0254518 87.2741074,153.1222508 87.2753381,153.1230072 87.2765353,153.1237045 90.8263317,151.0451587 90.8263094,151.0437735 90.826252,151.04233 90.8187213,150.857944 90.7849247,150.1279241 90.7454058,149.4099774 90.7003726,148.704147 90.6500337,148.0104738 90.5945975,147.3289957 90.5342732,146.659748 90.4692697,146.002763 90.3997966,145.3580708 90.3260632,144.7256982 90.2482793,144.1056698 90.1666545,143.4980072 90.0813985,142.9027292 89.9927213,142.3198522 89.9008326,141.7493895 89.8059422,141.191352 89.7082597,140.6457478 89.6079949,140.1125821 89.5053572,139.5918577 89.4005559,139.0835744 89.2938001,138.5877295 89.1852989,138.1043175 89.0752608,137.6333302 88.9638942,137.1747569 88.8514072,136.7285839 88.7380076,136.2947949 88.6239026,135.8733711 88.5092992,135.464291 88.394404,135.0675301 88.2794229,134.6830616 88.1645614,134.310856 88.0500247,133.950881 87.9360171,133.6031018 87.8227425,133.2674807 87.710404,132.9439778 87.5992044,132.6325503 87.4893454,132.3331528 87.3810283,132.0457373 87.8533841,131.7240576 93.0659983,128.0943574 93.5315676,127.7629317 93.7635569,127.9642305 94.0062493,128.1711321 94.2597595,128.3834645 94.5242,128.6010541 94.7996814,128.8237257 95.0863116,129.0513027 95.3841966,129.2836067 95.6934401,129.5204583 96.0141432,129.7616763 96.3464052,130.0070782 96.6903227,130.25648 97.0459901,130.5096966 97.4134995,130.7665413 97.7929404,131.0268263 98.1844003,131.2903622 98.587964,131.5569588 99.003714,131.8264242 99.4317303,132.0985657 99.8720905,132.3731892 100.3248699,132.6500995 100.790141,132.9291003 101.2679741,133.2099942 101.7584369,133.4925828 102.2615945,133.7766665 102.7775097,134.0620449 103.3062426,134.3485165 103.8478507,134.635879 104.402389,134.9239289 104.9699101,135.2124622 105.5504637,135.5012737 106.1440972,135.7901576 106.7508553,136.0789072 107.3707799,136.367315 108.0039105,136.6551728 108.6502839,136.9422718 109.3099343,137.2284024 109.9828931,137.5133544 110.1532157,137.5843835 110.1545496,137.5849381 110.1558411,137.5854395 113.3367774,134.9771736 113.3365387,134.9758089 113.3362562,134.9743922 113.2999739,134.7934543 113.1523932,134.0777091 113.0010492,133.3747836 112.8461542,132.684688 112.6879206,132.0074298 112.5265603,131.3430139 112.3622852,130.6914425 112.195307,130.0527149 112.0258371,129.4268279 111.8540867,128.8137753 111.6802666,128.2135486 111.5045873,127.6261362 111.327259,127.0515241 111.1484915,126.4896954 110.9684941,125.9406306 110.7874756,125.4043077 110.6056445,124.8807016 110.4232086,124.369785 110.2403753,123.8715276 110.0573512,123.3858966 109.8743426,122.9128567 109.6915549,122.4523696 109.5091929,122.0043948 109.3274607,121.5688888 109.1465618,121.1458057 108.9666988,120.7350971 108.7880734,120.3367117 108.6108868,119.9505959 108.435339,119.5766934 108.2616294,119.2149454 108.0899563,118.8652905 107.9205172,118.5276649 107.7535085,118.2020021 107.5891258,117.8882332 107.4275635,117.5862867 107.2690149,117.2960888 107.1136724,117.0175631 106.9617272,116.7506307 107.3779456,116.3590187 111.9585737,111.9585737 112.3665647,111.5583973 112.6271879,111.7209266 112.8992589,111.8873154 113.182864,112.057376 113.4780874,112.2309191 113.7850106,112.4077544 114.1037128,112.5876907 114.4342707,112.7705352 114.7767586,112.9560945 115.1312482,113.1441736 115.4978088,113.3345769 115.8765072,113.5271077 116.2674075,113.7215681 116.6705716,113.9177595 117.0860585,114.1154823 117.513925,114.3145359 117.954225,114.5147189 118.4070101,114.7158292 118.8723291,114.9176636 119.3502284,115.1200185 119.8407516,115.3226893 120.3439398,115.5254707 120.8598315,115.7281568 121.3884624,115.9305409 121.9298659,116.1324159 122.4840723,116.3335739 123.0511096,116.5338065 123.631003,116.7329049 124.223775,116.9306596 124.8294455,117.1268607 125.4480316,117.3212979 126.0795479,117.5137604 126.7240062,117.7040371 127.3814154,117.8919165 128.051782,118.0771869 128.7351097,118.2596362 129.4313993,118.439052 130.1406492,118.6152218 130.3199862,118.6587321 130.3213905,118.6590711 130.3227445,118.6593644 133.0564955,115.5856024 133.0560463,115.5842919 133.0555457,115.5829368 132.9914051,115.4099024 132.7336741,114.726056 132.4742316,114.05546 132.213289,113.3980915 131.951057,112.7539247 131.6877458,112.1229312 131.4235649,111.50508 131.1587235,110.9003374 130.8934298,110.308667 130.6278913,109.7300298 130.3623151,109.1643843 130.0969072,108.6116862 129.8318729,108.0718888 129.567417,107.5449425 129.303743,107.0307955 129.0410537,106.529393 128.7795512,106.0406781 128.5194365,105.564591 128.2609095,105.1010694 128.0041694,104.6500486 127.7494141,104.2114615 127.4968408,103.7852381 127.2466452,103.3713062 126.9990224,102.9695912 126.7541658,102.5800158 126.5122682,102.2025004 126.2735208,101.836963 126.0381138,101.483319 125.8062361,101.1414816 125.5780753,100.8113615 125.3538177,100.4928671 125.1336484,100.1859043 124.917751,99.8903768 124.7063078,99.6061861 124.4994997,99.333231 124.2975062,99.0714084 124.1005052,98.8206127 123.9086733,98.5807362 124.2585058,98.1288346 128.0943574,93.0659983 128.434724,92.6069249 128.7175637,92.7266827 129.012314,92.8484618 129.3190308,92.9720629 129.6377676,93.0972863 129.9685752,93.2239312 130.3115019,93.3517961 130.6665933,93.4806789 131.0338925,93.6103767 131.4134398,93.7406858 131.8052731,93.8714023 132.2094274,94.0023212 132.6259355,94.1332372 133.054827,94.2639444 133.4961293,94.3942364 133.9498668,94.5239062 134.4160616,94.6527466 134.8947327,94.7805497 135.3858967,94.9071073 135.8895675,95.032211 136.4057563,95.1556518 136.9344714,95.2772206 137.4757187,95.396708 138.0295012,95.5139044 138.5958192,95.6285998 139.1746705,95.7405842 139.7660499,95.8496475 140.3699497,95.9555793 140.9863594,96.0581694 141.6152657,96.1572072 142.2566527,96.2524823 142.9105017,96.3437844 143.5767914,96.430903 144.2554977,96.5136278 144.9465936,96.5917488 145.6500498,96.6650558 146.3658338,96.733339 147.0939106,96.7963887 147.2778462,96.8113088 147.2792862,96.8114241 147.2806695,96.8115019 149.4999212,93.3479302 149.4992724,93.346706 149.498566,93.3454459 149.4081466,93.1845756 149.0466115,92.5494665 148.6854589,91.9277125 148.3248938,91.3192577 147.9651204,90.7240438 147.6063418,90.1420098 147.2487603,89.5730924 146.8925769,89.0172254 146.5379917,88.4743406 146.1852037,87.9443668 145.8344107,87.4272306 145.4858094,86.9228561 145.1395953,86.4311649 144.7959626,85.9520763 144.4551046,85.4855069 144.1172128,85.0313712 143.782478,84.5895812 143.4510893,84.1600464 143.1232344,83.7426741 142.7991,83.3373691 142.4788711,82.9440342 142.1627313,82.5625695 141.8508629,82.192873 141.5434466,81.8348406 141.2406616,81.4883655 140.9426857,81.1533391 140.6496951,80.8296503 140.3618642,80.5171861 140.0793661,80.2158309 139.8023722,79.9254673 139.5310521,79.6459757 139.2655739,79.3772342 139.0061039,79.119119 138.7528067,78.8715041 138.5058452,78.6342614 138.2653804,78.4072611 138.0315717,78.1903708 137.8045766,77.9834567 138.0794091,77.482393 141.076033,71.8818291 141.3403942,71.3751626 141.6384859,71.4492002 141.9486577,71.5233708 142.2709339,71.5974692 142.6053358,71.6712894 142.9518822,71.7446254 143.3105894,71.8172705 143.6814707,71.889018 144.064537,71.9596607 144.4597963,72.0289913 144.867254,72.0968022 145.2869128,72.1628856 145.7187727,72.2270336 146.162831,72.2890382 146.6190823,72.3486911 147.0875184,72.4057843 147.5681286,72.4601095 148.0608993,72.5114585 148.5658142,72.559623 149.0828546,72.6043949 149.6119986,72.6455663 150.1532219,72.6829291 150.7064974,72.7162758 151.2717955,72.7453986 151.8490836,72.7700902 152.4383264,72.7901436 153.0394863,72.805352 153.6525224,72.8155089 154.2773917,72.8204082 154.914048,72.819844 155.5624428,72.8136112 156.2225247,72.8015046 156.8942396,72.78332 157.5775309,72.7588533 158.2723391,72.7279013 158.9786022,72.690261 159.6962556,72.6457302 160.4252318,72.5941073 160.6092369,72.5800699 160.6106772,72.5799584 160.6120555,72.5798189 162.2621626,68.8117221 162.2613303,68.8106145 162.2604355,68.8094804 162.1459636,68.6647354 161.6895267,68.0940021 161.2355567,67.5363996 160.7842475,66.9918407 160.3357915,66.4602358 159.8903799,65.941493 159.4482025,65.4355179 159.0094476,64.942214 158.574302,64.4614823 158.1429513,63.9932215 157.7155792,63.5373283 157.2923681,63.0936967 156.873499,62.6622189 156.4591511,62.2427846 156.0495021,61.8352815 155.6447279,61.4395949 155.245003,61.055608 154.8505001,60.6832021 154.4613903,60.3222562 154.0778429,59.972647 153.7000253,59.6342495 153.3281035,59.3069364 152.9622415,58.9905785 152.6026014,58.6850445 152.2493436,58.3902011 151.9026266,58.1059132 151.562607,57.8320434 151.2294397,57.5684527 150.9032773,57.3150002 150.5842707,57.0715429 150.2725689,56.8379361 149.9683187,56.6140332 149.6716651,56.3996858 149.3827509,56.1947439 149.101717,55.9990554 148.8287021,55.8124667 148.5638429,55.6348225 148.3072739,55.4659657 148.5003392,54.9280776 150.5839484,48.9276908 150.7657947,48.385907 151.0717985,48.4124012 151.3897545,48.4371371 151.7196544,48.4599081 152.0614873,48.4805075 152.4152394,48.4987288 152.7808945,48.5143653 153.1584335,48.5272109 153.5478345,48.5370591 153.9490732,48.5437039 154.3621224,48.5469395 154.7869522,48.5465602 155.2235302,48.5423607 155.671821,48.5341359 156.1317869,48.521681 156.6033871,48.5047917 157.0865785,48.4832641 157.5813151,48.4568945 158.0875483,48.4254799 158.6052269,48.3888178 159.1342969,48.3467059 159.6747017,48.2989427 160.2263821,48.2453274 160.7892762,48.1856596 161.3633195,48.1197395 161.9484449,48.0473681 162.5445825,47.9683472 163.1516601,47.882479 163.7696026,47.7895669 164.3983324,47.6894147 165.0377693,47.5818273 165.6878306,47.4666102 166.3484309,47.3435701 167.0194823,47.2125144 167.7008943,47.0732514 168.3925739,46.9255906 169.0944256,46.7693424 169.8063513,46.6043181 169.9858951,46.5616687 169.9873002,46.5613333 169.9886398,46.5609799 171.028971,42.581141 171.0279758,42.5801772 171.0269145,42.5791971 170.8912089,42.4541415 170.3511091,41.9618373 169.8155,41.4821164 169.2845593,41.0148622 168.7584633,40.5599562 168.2373862,40.1172777 167.7215008,39.6867038 167.2109779,39.2681097 166.7059867,38.8613683 166.2066945,38.4663508 165.7132666,38.0829261 165.2258668,37.7109611 164.7446566,37.3503211 164.2697961,37.0008691 163.8014429,36.6624662 163.3397532,36.3349718 162.8848808,36.0182432 162.4369778,35.7121361 161.9961942,35.4165041 161.5626779,35.1311993 161.1365749,34.8560717 160.718029,34.5909698 160.3071821,34.3357402 159.9041737,34.0902279 159.5091414,33.8542763 159.1222206,33.6277268 158.7435446,33.4104196 158.3732444,33.2021931 158.0114489,33.002884 157.6582847,32.8123277 157.3138763,32.6303578 156.9783459,32.4568068 156.6518132,32.2915052 156.3343961,32.1342826 156.0262097,31.9849668 155.7273672,31.8433843 155.4379791,31.7093603 155.158154,31.5827186 155.264698,31.0212507 156.3839873,24.7687903 156.4788411,24.2052297 156.785222,24.1835282 157.103133,24.1582203 157.4325335,24.1291032 157.7733803,24.0959746 158.1256276,24.0586325 158.489227,24.0168755 158.8641273,23.9705028 159.2502748,23.919314 159.647613,23.8631095 160.056083,23.8016901 160.4756232,23.7348574 160.9061692,23.6624138 161.3476542,23.5841621 161.8000087,23.499906 162.2631607,23.4094502 162.7370355,23.3125998 163.221556,23.209161 163.7166423,23.0989409 164.2222122,22.9817473 164.7381807,22.8573891 165.2644604,22.7256761 165.8009614,22.586419 166.3475913,22.4394297 166.904255,22.2845211 167.4708551,22.121507 168.0472917,21.9502024 168.6334624,21.7704236 169.2292623,21.5819879 169.8345842,21.3847137 170.4493182,21.1784209 171.0733522,20.9629303 171.7065717,20.7380644 172.3488597,20.5036466 173.0000969,20.2595019 173.6601616,20.0054565 174.3289297,19.7413381 175.0062749,19.4669759 175.1769364,19.3967648 175.1782717,19.3962137 175.1795395,19.3956551 175.5844786,15.3020709 175.5833448,15.3012747 175.5821433,15.3004727 175.4285454,15.1981857 174.8180818,14.7964328 174.2140221,14.4064058 173.6165235,14.0279617 173.0257416,13.6609559 172.4418297,13.3052419 171.8649391,12.9606714 171.2952191,12.6270942 170.7328168,12.3043586 170.1778773,11.9923108 169.6305435,11.6907958 169.0909562,11.3996566 168.559254,11.1187344 168.0355734,10.8478693 167.5200486,10.5868993 167.0128116,10.3356611 166.5139922,10.0939897 166.0237179,9.8617187 165.5421141,9.6386802 165.0693036,9.4247048 164.6054072,9.2196217 164.1505432,9.0232587 163.7048278,8.835442 163.2683745,8.6559968 162.8412948,8.4847467 162.4236975,8.3215142 162.0156893,8.1661204 161.6173743,8.0183852 161.2288543,7.8781272 160.8502286,7.745164 160.481594,7.6193119 160.1230451,7.5003861 159.7746738,7.3882006 159.4365695,7.2825687 159.1088193,7.1833021 158.7915076,7.090212 158.4847165,7.0031083 158.1885253,6.9218001 158.2059247,6.3505777 zM-242,0a242,242,0 0,1 484,0a 242,242 0 0,1 -484,0z" transform="matrix(1, 0, 0, 1, 0, -5.684341886080802e-14)"/>
</svg>