<?xml version="1.0" encoding="utf-8"?>
<svg xmlns="http://www.w3.org/2000/svg" viewBox="-57.971 -57.971 115.942 115.942" width="115.942px" height="115.942px">
  <path id="gearpoly2" data-id="2" class="gear" fill="none" stroke="white" stroke-width="3" stroke-miterlimit="10" d="M40.4166667,0 46.3662531,-0.0000822 46.4093764,-0.0015576 46.4915914,-0.0066814 46.612689,-0.0177265 46.7723614,-0.0369563 46.970202,-0.0666199 47.2057061,-0.108949 47.4782717,-0.1661536 47.7872003,-0.2404186 48.1316978,-0.3338998 48.5108758,-0.4487205 48.9237528,-0.5869674 49.3692553,-0.7506875 49.8462197,-0.9418841 50.353394,-1.1625134 50.8894391,-1.4144814 51.4529312,-1.6996399 52.0423636,-2.0197837 52.6561487,-2.3766473 53.2926207,-2.7719014 53.9500374,-3.2071501 54.6265834,-3.6839278 55.3203718,-4.2036965 56.029448,-4.7678427 56.7517915,-5.3776747 57.4853193,-6.0344201 57.85561,-6.3807464 57.9485041,-6.4692214 57.9601244,-6.4803343 57.9659353,-6.4858952 57.9688409,-6.4886767 57.9702937,-6.4900678 57.9710254,-6.4913783 57.3046842,-10.9064636 57.3035983,-10.9074997 57.3017997,-10.9084001 57.2982026,-10.9102002 57.2910094,-10.9137985 57.276627,-10.920987 57.1617594,-10.9781058 56.7057523,-11.1997241 55.8110747,-11.6107347 54.9409287,-11.9802222 54.096942,-12.3099743 53.280659,-12.6018374 52.4935383,-12.857713 51.736951,-13.0795549 51.012179,-13.269365 50.3204133,-13.4291899 49.6627526,-13.5611178 49.0402017,-13.6672743 48.4536707,-13.7498188 47.9039734,-13.8109412 47.3918267,-13.8528574 46.9178496,-13.8778062 46.4825626,-13.888045 46.0863873,-13.8858465 45.7296455,-13.8734941 45.4125595,-13.8532786 45.1352518,-13.8274942 44.897745,-13.7984347 44.6999621,-13.7683893 44.5417265,-13.7396393 44.422763,-13.7144535 44.342698,-13.6950854 44.3010599,-13.6837683 38.6164521,-11.9279743 35.0018601,-20.2083333 40.154312,-23.1831977 40.1909202,-23.2060372 40.2595585,-23.2515819 40.3589095,-23.3216961 40.487575,-23.4181858 40.6440781,-23.5427955 40.8268662,-23.6972056 41.0343126,-23.8830291 41.2647201,-24.1018087 41.5163231,-24.3550146 41.7872906,-24.6440413 42.075729,-24.9702051 42.3796854,-25.3347421 42.6971505,-25.7388054 43.0260616,-26.1834632 43.3643064,-26.6696964 43.7097256,-27.1983969 44.0601171,-27.7703658 44.4132388,-28.3863113 44.7668126,-29.0468474 45.1185279,-29.7524922 45.466045,-30.5036668 45.8069991,-31.3006939 46.139004,-32.1437969 46.4596558,-33.0330986 46.7665368,-33.9686208 46.9140549,-34.4536935 46.950266,-34.5767621 46.954773,-34.5921963 46.9570249,-34.5999176 46.9581504,-34.6037793 46.9587131,-34.6057104 46.9586915,-34.6072112 44.1740805,-38.0976166 44.172622,-38.097971 44.1706142,-38.0978514 44.1665989,-38.0976118 44.1585703,-38.0971315 44.1425205,-38.0961657 44.0144828,-38.0881982 43.50876,-38.0521217 42.5284412,-37.9607286 41.5901288,-37.8456411 40.6943389,-37.7092215 39.8414856,-37.5538408 39.0318812,-37.3818753 38.2657364,-37.1957023 37.5431604,-36.9976967 36.8641613,-36.7902263 36.2286464,-36.5756488 35.6364234,-36.3563076 35.0872003,-36.1345278 34.5805873,-35.9126126 34.1160972,-35.6928397 33.6931466,-35.4774575 33.3110576,-35.2686811 32.9690589,-35.0686894 32.6662876,-34.879621 32.4017909,-34.7035709 32.1745276,-34.5425872 31.9833704,-34.3986675 31.827108,-34.273756 31.7044471,-34.1697399 31.6140145,-34.0884467 31.5543602,-34.0316408 31.5239592,-34.0010209 27.4788414,-29.6381548 20.2083333,-35.0018601 23.1830554,-40.1543941 23.2033393,-40.1924778 23.2400095,-40.2662399 23.2909929,-40.3766361 23.3541756,-40.5245313 23.4274064,-40.7106981 23.5085004,-40.9358151 23.5952426,-41.2004662 23.6853916,-41.5051387 23.7766832,-41.8502229 23.8668346,-42.2360111 23.9535477,-42.6626965 24.0345131,-43.130373 24.1074143,-43.6390346 24.1699308,-44.1885751 24.2197428,-44.7787878 24.2545343,-45.4093655 24.2719978,-46.0799008 24.2698374,-46.7898861 24.2457733,-47.538714 24.1975453,-48.325678 24.1229166,-49.1499728 24.0196779,-50.0106956 23.8856511,-50.9068467 23.7186929,-51.8373304 23.5166985,-52.8009569 23.4019165,-53.2948013 23.371742,-53.4194874 23.3679281,-53.4351073 23.3660177,-53.4429201 23.3650615,-53.4468272 23.3645833,-53.4487809 23.3638142,-53.4500698 19.2070676,-55.080544 19.2056273,-55.0801218 19.2039483,-55.0790142 19.2005907,-55.0767991 19.1938779,-55.0723688 19.1804613,-55.0635075 19.0735612,-54.9925886 18.6536306,-54.708484 17.8503461,-54.1391759 17.0952876,-53.570351 16.3877206,-53.0043132 15.7268182,-52.4433229 15.111663,-51.8895942 14.5412486,-51.3452913 14.0144823,-50.8125254 13.530187,-50.2933512 13.0871037,-49.7897643 12.6838941,-49.3036976 12.3191429,-48.8370192 11.9913608,-48.3915285 11.698987,-47.9689545 11.4403921,-47.5709527 11.2138815,-47.1991026 11.0176978,-46.8549054 10.8500244,-46.5397817 10.7089886,-46.2550695 10.5926646,-46.0020218 10.4990775,-45.7818051 10.4262061,-45.5954974 10.3719866,-45.4440863 10.3343164,-45.3284681 10.3110571,-45.2494456 10.300039,-45.2077275 8.9782973,-39.4068157 0,-40.4166667 -0.0000822,-46.3662531 -0.0015576,-46.4093764 -0.0066814,-46.4915914 -0.0177265,-46.612689 -0.0369563,-46.7723614 -0.0666199,-46.970202 -0.108949,-47.2057061 -0.1661536,-47.4782717 -0.2404186,-47.7872003 -0.3338998,-48.1316978 -0.4487205,-48.5108758 -0.5869674,-48.9237528 -0.7506875,-49.3692553 -0.9418841,-49.8462197 -1.1625134,-50.353394 -1.4144814,-50.8894391 -1.6996399,-51.4529312 -2.0197837,-52.0423636 -2.3766473,-52.6561487 -2.7719014,-53.2926207 -3.2071501,-53.9500374 -3.6839278,-54.6265834 -4.2036965,-55.3203718 -4.7678427,-56.029448 -5.3776747,-56.7517915 -6.0344201,-57.4853193 -6.3807464,-57.85561 -6.4692214,-57.9485041 -6.4803343,-57.9601244 -6.4858952,-57.9659353 -6.4886767,-57.9688409 -6.4900678,-57.9702937 -6.4913783,-57.9710254 -10.9064636,-57.3046842 -10.9074997,-57.3035983 -10.9084001,-57.3017997 -10.9102002,-57.2982026 -10.9137985,-57.2910094 -10.920987,-57.276627 -10.9781058,-57.1617594 -11.1997241,-56.7057523 -11.6107347,-55.8110747 -11.9802222,-54.9409287 -12.3099743,-54.096942 -12.6018374,-53.280659 -12.857713,-52.4935383 -13.0795549,-51.736951 -13.269365,-51.012179 -13.4291899,-50.3204133 -13.5611178,-49.6627526 -13.6672743,-49.0402017 -13.7498188,-48.4536707 -13.8109412,-47.9039734 -13.8528574,-47.3918267 -13.8778062,-46.9178496 -13.888045,-46.4825626 -13.8858465,-46.0863873 -13.8734941,-45.7296455 -13.8532786,-45.4125595 -13.8274942,-45.1352518 -13.7984347,-44.897745 -13.7683893,-44.6999621 -13.7396393,-44.5417265 -13.7144535,-44.422763 -13.6950854,-44.342698 -13.6837683,-44.3010599 -11.9279743,-38.6164521 -20.2083333,-35.0018601 -23.1831977,-40.154312 -23.2060372,-40.1909202 -23.2515819,-40.2595585 -23.3216961,-40.3589095 -23.4181858,-40.487575 -23.5427955,-40.6440781 -23.6972056,-40.8268662 -23.8830291,-41.0343126 -24.1018087,-41.2647201 -24.3550146,-41.5163231 -24.6440413,-41.7872906 -24.9702051,-42.075729 -25.3347421,-42.3796854 -25.7388054,-42.6971505 -26.1834632,-43.0260616 -26.6696964,-43.3643064 -27.1983969,-43.7097256 -27.7703658,-44.0601171 -28.3863113,-44.4132388 -29.0468474,-44.7668126 -29.7524922,-45.1185279 -30.5036668,-45.466045 -31.3006939,-45.8069991 -32.1437969,-46.139004 -33.0330986,-46.4596558 -33.9686208,-46.7665368 -34.4536935,-46.9140549 -34.5767621,-46.950266 -34.5921963,-46.954773 -34.5999176,-46.9570249 -34.6037793,-46.9581504 -34.6057104,-46.9587131 -34.6072112,-46.9586915 -38.0976166,-44.1740805 -38.097971,-44.172622 -38.0978514,-44.1706142 -38.0976118,-44.1665989 -38.0971315,-44.1585703 -38.0961657,-44.1425205 -38.0881982,-44.0144828 -38.0521217,-43.50876 -37.9607286,-42.5284412 -37.8456411,-41.5901288 -37.7092215,-40.6943389 -37.5538408,-39.8414856 -37.3818753,-39.0318812 -37.1957023,-38.2657364 -36.9976967,-37.5431604 -36.7902263,-36.8641613 -36.5756488,-36.2286464 -36.3563076,-35.6364234 -36.1345278,-35.0872003 -35.9126126,-34.5805873 -35.6928397,-34.1160972 -35.4774575,-33.6931466 -35.2686811,-33.3110576 -35.0686894,-32.9690589 -34.879621,-32.6662876 -34.7035709,-32.4017909 -34.5425872,-32.1745276 -34.3986675,-31.9833704 -34.273756,-31.827108 -34.1697399,-31.7044471 -34.0884467,-31.6140145 -34.0316408,-31.5543602 -34.0010209,-31.5239592 -29.6381548,-27.4788414 -35.0018601,-20.2083333 -40.1543941,-23.1830554 -40.1924778,-23.2033393 -40.2662399,-23.2400095 -40.3766361,-23.2909929 -40.5245313,-23.3541756 -40.7106981,-23.4274064 -40.9358151,-23.5085004 -41.2004662,-23.5952426 -41.5051387,-23.6853916 -41.8502229,-23.7766832 -42.2360111,-23.8668346 -42.6626965,-23.9535477 -43.130373,-24.0345131 -43.6390346,-24.1074143 -44.1885751,-24.1699308 -44.7787878,-24.2197428 -45.4093655,-24.2545343 -46.0799008,-24.2719978 -46.7898861,-24.2698374 -47.538714,-24.2457733 -48.325678,-24.1975453 -49.1499728,-24.1229166 -50.0106956,-24.0196779 -50.9068467,-23.8856511 -51.8373304,-23.7186929 -52.8009569,-23.5166985 -53.2948013,-23.4019165 -53.4194874,-23.371742 -53.4351073,-23.3679281 -53.4429201,-23.3660177 -53.4468272,-23.3650615 -53.4487809,-23.3645833 -53.4500698,-23.3638142 -55.080544,-19.2070676 -55.0801218,-19.2056273 -55.0790142,-19.2039483 -55.0767991,-19.2005907 -55.0723688,-19.1938779 -55.0635075,-19.1804613 -54.9925886,-19.0735612 -54.708484,-18.6536306 -54.1391759,-17.8503461 -53.570351,-17.0952876 -53.0043132,-16.3877206 -52.4433229,-15.7268182 -51.8895942,-15.111663 -51.3452913,-14.5412486 -50.8125254,-14.0144823 -50.2933512,-13.530187 -49.7897643,-13.0871037 -49.3036976,-12.6838941 -48.8370192,-12.3191429 -48.3915285,-11.9913608 -47.9689545,-11.698987 -47.5709527,-11.4403921 -47.1991026,-11.2138815 -46.8549054,-11.0176978 -46.5397817,-10.8500244 -46.2550695,-10.7089886 -46.0020218,-10.5926646 -45.7818051,-10.4990775 -45.5954974,-10.4262061 -45.4440863,-10.3719866 -45.3284681,-10.3343164 -45.2494456,-10.3110571 -45.2077275,-10.300039 -39.4068157,-8.9782973 -40.4166667,0 -46.3662531,0.0000822 -46.4093764,0.0015576 -46.4915914,0.0066814 -46.612689,0.0177265 -46.7723614,0.0369563 -46.970202,0.0666199 -47.2057061,0.108949 -47.4782717,0.1661536 -47.7872003,0.2404186 -48.1316978,0.3338998 -48.5108758,0.4487205 -48.9237528,0.5869674 -49.3692553,0.7506875 -49.8462197,0.9418841 -50.353394,1.1625134 -50.8894391,1.4144814 -51.4529312,1.6996399 -52.0423636,2.0197837 -52.6561487,2.3766473 -53.2926207,2.7719014 -53.9500374,3.2071501 -54.6265834,3.6839278 -55.3203718,4.2036965 -56.029448,4.7678427 -56.7517915,5.3776747 -57.4853193,6.0344201 -57.85561,6.3807464 -57.9485041,6.4692214 -57.9601244,6.4803343 -57.9659353,6.4858952 -57.9688409,6.4886767 -57.9702937,6.4900678 -57.9710254,6.4913783 -57.3046842,10.9064636 -57.3035983,10.9074997 -57.3017997,10.9084001 -57.2982026,10.9102002 -57.2910094,10.9137985 -57.276627,10.920987 -57.1617594,10.9781058 -56.7057523,11.1997241 -55.8110747,11.6107347 -54.9409287,11.9802222 -54.096942,12.3099743 -53.280659,12.6018374 -52.4935383,12.857713 -51.736951,13.0795549 -51.012179,13.269365 -50.3204133,13.4291899 -49.6627526,13.5611178 -49.0402017,13.6672743 -48.4536707,13.7498188 -47.9039734,13.8109412 -47.3918267,13.8528574 -46.9178496,13.8778062 -46.4825626,13.888045 -46.0863873,13.8858465 -45.7296455,13.8734941 -45.4125595,13.8532786 -45.1352518,13.8274942 -44.897745,13.7984347 -44.6999621,13.7683893 -44.5417265,13.7396393 -44.422763,13.7144535 -44.342698,13.6950854 -44.3010599,13.6837683 -38.6164521,11.9279743 -35.0018601,20.2083333 -40.154312,23.1831977 -40.1909202,23.2060372 -40.2595585,23.2515819 -40.3589095,23.3216961 -40.487575,23.4181858 -40.6440781,23.5427955 -40.8268662,23.6972056 -41.0343126,23.8830291 -41.2647201,24.1018087 -41.5163231,24.3550146 -41.7872906,24.6440413 -42.075729,24.9702051 -42.3796854,25.3347421 -42.6971505,25.7388054 -43.0260616,26.1834632 -43.3643064,26.6696964 -43.7097256,27.1983969 -44.0601171,27.7703658 -44.4132388,28.3863113 -44.7668126,29.0468474 -45.1185279,29.7524922 -45.466045,30.5036668 -45.8069991,31.3006939 -46.139004,32.1437969 -46.4596558,33.0330986 -46.7665368,33.9686208 -46.9140549,34.4536935 -46.950266,34.5767621 -46.954773,34.5921963 -46.9570249,34.5999176 -46.9581504,34.6037793 -46.9587131,34.6057104 -46.9586915,34.6072112 -44.1740805,38.0976166 -44.172622,38.097971 -44.1706142,38.0978514 -44.1665989,38.0976118 -44.1585703,38.0971315 -44.1425205,38.0961657 -44.0144828,38.0881982 -43.50876,38.0521217 -42.5284412,37.9607286 -41.5901288,37.8456411 -40.6943389,37.7092215 -39.8414856,37.5538408 -39.0318812,37.3818753 -38.2657364,37.1957023 -37.5431604,36.9976967 -36.8641613,36.7902263 -36.2286464,36.5756488 -35.6364234,36.3563076 -35.0872003,36.1345278 -34.5805873,35.9126126 -34.1160972,35.6928397 -33.6931466,35.4774575 -33.3110576,35.2686811 -32.9690589,35.0686894 -32.6662876,34.879621 -32.4017909,34.7035709 -32.1745276,34.5425872 -31.9833704,34.3986675 -31.827108,34.273756 -31.7044471,34.1697399 -31.6140145,34.0884467 -31.5543602,34.0316408 -31.5239592,34.0010209 -27.4788414,29.6381548 -20.2083333,35.0018601 -23.1830554,40.1543941 -23.2033393,40.1924778 -23.2400095,40.2662399 -23.2909929,40.3766361 -23.3541756,40.5245313 -23.4274064,40.7106981 -23.5085004,40.9358151 -23.5952426,41.2004662 -23.6853916,41.5051387 -23.7766832,41.8502229 -23.8668346,42.2360111 -23.9535477,42.6626965 -24.0345131,43.130373 -24.1074143,43.6390346 -24.1699308,44.1885751 -24.2197428,44.7787878 -24.2545343,45.4093655 -24.2719978,46.0799008 -24.2698374,46.7898861 -24.2457733,47.538714 -24.1975453,48.325678 -24.1229166,49.1499728 -24.0196779,50.0106956 -23.8856511,50.9068467 -23.7186929,51.8373304 -23.5166985,52.8009569 -23.4019165,53.2948013 -23.371742,53.4194874 -23.3679281,53.4351073 -23.3660177,53.4429201 -23.3650615,53.4468272 -23.3645833,53.4487809 -23.3638142,53.4500698 -19.2070676,55.080544 -19.2056273,55.0801218 -19.2039483,55.0790142 -19.2005907,55.0767991 -19.1938779,55.0723688 -19.1804613,55.0635075 -19.0735612,54.9925886 -18.6536306,54.708484 -17.8503461,54.1391759 -17.0952876,53.570351 -16.3877206,53.0043132 -15.7268182,52.4433229 -15.111663,51.8895942 -14.5412486,51.3452913 -14.0144823,50.8125254 -13.530187,50.2933512 -13.0871037,49.7897643 -12.6838941,49.3036976 -12.3191429,48.8370192 -11.9913608,48.3915285 -11.698987,47.9689545 -11.4403921,47.5709527 -11.2138815,47.1991026 -11.0176978,46.8549054 -10.8500244,46.5397817 -10.7089886,46.2550695 -10.5926646,46.0020218 -10.4990775,45.7818051 -10.4262061,45.5954974 -10.3719866,45.4440863 -10.3343164,45.3284681 -10.3110571,45.2494456 -10.300039,45.2077275 -8.9782973,39.4068157 0,40.4166667 0.0000822,46.3662531 0.0015576,46.4093764 0.0066814,46.4915914 0.0177265,46.612689 0.0369563,46.7723614 0.0666199,46.970202 0.108949,47.2057061 0.1661536,47.4782717 0.2404186,47.7872003 0.3338998,48.1316978 0.4487205,48.5108758 0.5869674,48.9237528 0.7506875,49.3692553 0.9418841,49.8462197 1.1625134,50.353394 1.4144814,50.8894391 1.6996399,51.4529312 2.0197837,52.0423636 2.3766473,52.6561487 2.7719014,53.2926207 3.2071501,53.9500374 3.6839278,54.6265834 4.2036965,55.3203718 4.7678427,56.029448 5.3776747,56.7517915 6.0344201,57.4853193 6.3807464,57.85561 6.4692214,57.9485041 6.4803343,57.9601244 6.4858952,57.9659353 6.4886767,57.9688409 6.4900678,57.9702937 6.4913783,57.9710254 10.9064636,57.3046842 10.9074997,57.3035983 10.9084001,57.3017997 10.9102002,57.2982026 10.9137985,57.2910094 10.920987,57.276627 10.9781058,57.1617594 11.1997241,56.7057523 11.6107347,55.8110747 11.9802222,54.9409287 12.3099743,54.096942 12.6018374,53.280659 12.857713,52.4935383 13.0795549,51.736951 13.269365,51.012179 13.4291899,50.3204133 13.5611178,49.6627526 13.6672743,49.0402017 13.7498188,48.4536707 13.8109412,47.9039734 13.8528574,47.3918267 13.8778062,46.9178496 13.888045,46.4825626 13.8858465,46.0863873 13.8734941,45.7296455 13.8532786,45.4125595 13.8274942,45.1352518 13.7984347,44.897745 13.7683893,44.6999621 13.7396393,44.5417265 13.7144535,44.422763 13.6950854,44.342698 13.6837683,44.3010599 11.9279743,38.6164521 20.2083333,35.0018601 23.1831977,40.154312 23.2060372,40.1909202 23.2515819,40.2595585 23.3216961,40.3589095 23.4181858,40.487575 23.5427955,40.6440781 23.6972056,40.8268662 23.8830291,41.0343126 24.1018087,41.2647201 24.3550146,41.5163231 24.6440413,41.7872906 24.9702051,42.075729 25.3347421,42.3796854 25.7388054,42.6971505 26.1834632,43.0260616 26.6696964,43.3643064 27.1983969,43.7097256 27.7703658,44.0601171 28.3863113,44.4132388 29.0468474,44.7668126 29.7524922,45.1185279 30.5036668,45.466045 31.3006939,45.8069991 32.1437969,46.139004 33.0330986,46.4596558 33.9686208,46.7665368 34.4536935,46.9140549 34.5767621,46.950266 34.5921963,46.954773 34.5999176,46.9570249 34.6037793,46.9581504 34.6057104,46.9587131 34.6072112,46.9586915 38.0976166,44.1740805 38.097971,44.172622 38.0978514,44.1706142 38.0976118,44.1665989 38.0971315,44.1585703 38.0961657,44.1425205 38.0881982,44.0144828 38.0521217,43.50876 37.9607286,42.5284412 37.8456411,41.5901288 37.7092215,40.6943389 37.5538408,39.8414856 37.3818753,39.0318812 37.1957023,38.2657364 36.9976967,37.5431604 36.7902263,36.8641613 36.5756488,36.2286464 36.3563076,35.6364234 36.1345278,35.0872003 35.9126126,34.5805873 35.6928397,34.1160972 35.4774575,33.6931466 35.2686811,33.3110576 35.0686894,32.9690589 34.879621,32.6662876 34.7035709,32.4017909 34.5425872,32.1745276 34.3986675,31.9833704 34.273756,31.827108 34.1697399,31.7044471 34.0884467,31.6140145 34.0316408,31.5543602 34.0010209,31.5239592 29.6381548,27.4788414 35.0018601,20.2083333 40.1543941,23.1830554 40.1924778,23.2033393 40.2662399,23.2400095 40.3766361,23.2909929 40.5245313,23.3541756 40.7106981,23.4274064 40.9358151,23.5085004 41.2004662,23.5952426 41.5051387,23.6853916 41.8502229,23.7766832 42.2360111,23.8668346 42.6626965,23.9535477 43.130373,24.0345131 43.6390346,24.1074143 44.1885751,24.1699308 44.7787878,24.2197428 45.4093655,24.2545343 46.0799008,24.2719978 46.7898861,24.2698374 47.538714,24.2457733 48.325678,24.1975453 49.1499728,24.1229166 50.0106956,24.0196779 50.9068467,23.8856511 51.8373304,23.7186929 52.8009569,23.5166985 53.2948013,23.4019165 53.4194874,23.371742 53.4351073,23.3679281 53.4429201,23.3660177 53.4468272,23.3650615 53.4487809,23.3645833 53.4500698,23.3638142 55.080544,19.2070676 55.0801218,19.2056273 55.0790142,19.2039483 55.0767991,19.2005907 55.0723688,19.1938779 55.0635075,19.1804613 54.9925886,19.0735612 54.708484,18.6536306 54.1391759,17.8503461 53.570351,17.0952876 53.0043132,16.3877206 52.4433229,15.7268182 51.8895942,15.111663 51.3452913,14.5412486 50.8125254,14.0144823 50.2933512,13.530187 49.7897643,13.0871037 49.3036976,12.6838941 48.8370192,12.3191429 48.3915285,11.9913608 47.9689545,11.698987 47.5709527,11.4403921 47.1991026,11.2138815 46.8549054,11.0176978 46.5397817,10.8500244 46.2550695,10.7089886 46.0020218,10.5926646 45.7818051,10.4990775 45.5954974,10.4262061 45.4440863,10.3719866 45.3284681,10.3343164 45.2494456,10.3110571 45.2077275,10.300039 39.4068157,8.9782973 z" transform="matrix(1, 0, 0, 1, 0, 1.4210854715202004e-14)"/>
  <g class="guides" transform="matrix(1, 0, 0, 1, 0, 1.4210854715202004e-14)">
    <polyline fill="none" stroke="#444" stroke-width="0.5" stroke-miterlimit="10" points="10,0 -10,0"/>
    <polyline fill="none" stroke="#444" stroke-width="0.5" stroke-miterlimit="10" points="0,10 0,-10"/>
  </g>
</svg>