<?xml version="1.0" encoding="utf-8"?>
<svg xmlns="http://www.w3.org/2000/svg" viewBox="-223.536 -223.536 447.072 447.072" width="447.072px" height="447.072px">
  <path id="gearpoly1" data-id="1" class="gear" fill="none" stroke="white" stroke-width="4" stroke-miterlimit="10" d="M171.25,0 178.2284444,-0.0003158 178.3386563,-0.0035967 178.5334795,-0.0135352 178.8126356,-0.0338224 179.1757257,-0.0681395 179.6222302,-0.1201545 180.1515098,-0.1935185 180.7628055,-0.2918619 181.4552394,-0.4187918 182.2278157,-0.5778877 183.0794209,-0.7726985 184.0088252,-1.0067389 185.0146832,-1.2834861 186.0955349,-1.6063765 187.2498073,-1.9788023 188.4758151,-2.4041079 189.7717623,-2.8855873 191.135744,-3.4264803 192.565747,-4.0299694 194.0596524,-4.699177 195.6152366,-5.4371617 197.2301734,-6.2469159 198.9020359,-7.1313622 200.6282982,-8.0933507 202.4063375,-9.1356564 204.2334365,-10.2609755 206.1067851,-11.4719235 208.0234832,-12.771032 209.9805424,-14.1607459 211.974889,-15.6434211 214.0033661,-17.2213218 216.0627366,-18.8966181 218.149685,-20.6713833 220.2608211,-22.5475918 222.3926819,-24.5271168 223.4652829,-25.5561801 223.532453,-25.6213738 223.5359928,-25.6253763 222.3410864,-34.4882775 222.336613,-34.4911996 222.254576,-34.536277 220.9477464,-35.2445428 218.3677678,-36.5888123 215.8351352,-37.8389427 213.3526917,-38.9976572 210.9231837,-40.0677578 208.5492591,-41.0521218 206.2334649,-41.9536989 203.9782456,-42.7755086 201.7859413,-43.5206367 199.658786,-44.1922323 197.598906,-44.7935045 195.6083183,-45.3277195 193.6889293,-45.7981973 191.8425332,-46.2083079 190.0708108,-46.5614689 188.3753285,-46.8611411 186.757537,-47.1108262 185.2187704,-47.3140624 183.7602451,-47.4744218 182.3830594,-47.5955064 181.0881925,-47.6809448 179.8765039,-47.734389 178.7487328,-47.7595104 177.705498,-47.7599966 176.747297,-47.7395479 175.8745064,-47.7018737 175.0873815,-47.6506889 174.3860558,-47.5897106 173.770542,-47.5226542 173.2407312,-47.4532303 172.7963939,-47.385141 172.4371796,-47.3220763 172.1626179,-47.2677106 171.9721188,-47.2256995 171.8649731,-47.199676 165.1356068,-45.3518892 158.2143699,-65.5345378 164.661491,-68.2053646 164.762058,-68.250572 164.9382479,-68.3343096 165.1883909,-68.4598809 165.5107098,-68.6305344 165.9033209,-68.8494599 166.3642363,-69.1197858 166.8913655,-69.4445761 167.4825171,-69.826827 168.1354011,-70.2694646 168.8476309,-70.7753415 169.6167251,-71.3472343 170.4401101,-71.9878405 171.3151221,-72.6997764 172.2390096,-73.4855739 173.2089356,-74.3476779 174.2219806,-75.2884444 175.2751446,-76.3101376 176.3653498,-77.4149273 177.4894438,-78.6048873 178.6442016,-79.8819926 179.8263292,-81.2481175 181.0324658,-82.7050333 182.2591871,-84.2544069 183.5030082,-85.8977979 184.7603865,-87.6366577 186.0277252,-89.4723273 187.301376,-91.4060356 188.5776425,-93.4388979 189.8527833,-95.5719146 191.1230153,-97.8059695 192.3845174,-100.1418283 193.6334331,-102.5801381 194.8658746,-105.1214256 196.0779258,-107.766096 196.6750743,-109.1272932 196.7121829,-109.2132292 196.7139216,-109.2182817 192.2182866,-116.9492638 192.2130354,-116.9502516 192.1199928,-116.9605035 190.641598,-117.1147537 187.7435789,-117.3693817 184.9253273,-117.555155 182.1884277,-117.6756777 179.5343453,-117.7345893 176.9644252,-117.7355614 174.4798916,-117.682294 172.0818477,-117.5785121 169.7712744,-117.4279621 167.5490307,-117.2344084 165.4158528,-117.0016295 163.3723544,-116.733415 161.4190262,-116.4335614 159.556236,-116.105869 157.7842291,-115.7541384 156.1031281,-115.3821665 154.5129333,-114.9937433 153.0135232,-114.5926486 151.6046546,-114.1826479 150.2859639,-113.7674894 149.056967,-113.3509001 147.9170605,-112.9365829 146.8655224,-112.5282128 145.9015129,-112.1294333 145.0240761,-111.7438535 144.23214,-111.3750446 143.5245189,-111.0265363 142.899914,-110.7018139 142.3569147,-110.404315 141.8940007,-110.1374259 141.5095432,-109.904479 141.2018063,-109.7087495 140.9689492,-109.5534519 140.8090279,-109.4417379 140.719997,-109.3766924 135.2099906,-105.094343 121.0920363,-121.0920363 126.0263183,-126.0267649 126.10193,-126.1070164 126.2326632,-126.2518048 126.4157112,-126.4635432 126.6481887,-126.7445526 126.9271349,-127.0970591 127.249516,-127.5231924 127.612228,-128.0249831 128.0120997,-128.6043608 128.4458959,-129.2631525 128.9103197,-130.0030804 129.4020162,-130.82576 129.9175753,-131.7326988 130.4535349,-132.7252944 131.006384,-133.804833 131.5725659,-134.9724879 132.1484817,-136.2293184 132.7304932,-137.5762681 133.3149268,-139.0141642 133.8980763,-140.5437161 134.4762064,-142.1655142 135.0455565,-143.8800297 135.6023439,-145.6876129 136.142767,-147.5884933 136.6630093,-149.5827784 137.1592425,-151.6704532 137.6276305,-153.8513803 138.0643323,-156.1252989 138.465506,-158.4918248 138.8273123,-160.9504506 139.145918,-163.5005448 139.4174994,-166.141353 139.6382463,-168.8719969 139.8043652,-171.6914753 139.9120829,-174.5986641 139.9428686,-176.0847651 139.9442662,-176.1783605 139.943939,-176.1836937 132.8319951,-181.6057848 132.8267656,-181.6046879 132.7368822,-181.5785535 131.3119945,-181.155305 128.5371321,-180.2815267 125.8623148,-179.3746606 123.2876272,-178.4386429 120.8130303,-177.4773968 118.4383617,-176.494829 116.1633365,-175.4948265 113.9875484,-174.4812529 111.9104701,-173.4579448 109.9314544,-172.4287086 108.0497356,-171.3973171 106.2644305,-170.3675062 104.5745395,-169.3429712 102.9789483,-168.327364 101.4764289,-167.3242896 100.0656416,-166.3373029 98.7451362,-165.3699055 97.5133541,-164.4255429 96.3686298,-163.507601 95.3091928,-162.6194034 94.3331695,-161.7642084 93.4385855,-160.9452059 92.6233674,-160.1655148 91.8853452,-159.4281801 91.2222542,-158.7361703 90.6317378,-158.0923745 90.1113495,-157.4996 89.6585556,-156.9605697 89.2707376,-156.4779197 88.9451949,-156.0541968 88.6791473,-155.6918564 88.4697379,-155.39326 88.3140359,-155.1606733 88.209039,-154.9962637 88.1516769,-154.9020989 84.699879,-148.8371358 65.5345378,-158.2143699 68.2047811,-164.6617327 68.2439262,-164.7648108 68.3092998,-164.9486072 68.3973854,-165.2142775 68.504629,-165.5628616 68.6274433,-165.9952832 68.7622104,-166.5123489 68.9052856,-167.1147469 69.0530007,-167.8030465 69.2016674,-168.5776972 69.3475809,-169.4390287 69.4870234,-170.3872497 69.6162674,-171.4224479 69.7315796,-172.5445895 69.829224,-173.7535192 69.9054657,-175.0489602 69.9565743,-176.4305135 69.9788275,-177.897659 69.9685148,-179.4497549 69.9219404,-181.0860381 69.8354277,-182.805625 69.705322,-184.6075116 69.5279943,-186.4905741 69.2998447,-188.4535696 69.017306,-190.4951368 68.6768472,-192.6137972 68.2749766,-194.8079554 67.8082455,-197.0759007 67.2732514,-199.4158081 66.6666415,-201.8257394 65.9851159,-204.3036444 65.2254309,-206.8473627 64.3844023,-209.4546249 63.4589085,-212.1230542 62.4458937,-214.8501682 61.9056297,-216.2349278 61.8711035,-216.3219334 61.8687603,-216.3267355 53.2232365,-218.6144714 53.2188248,-218.6114567 53.1457845,-218.5529148 51.9913302,-217.6166033 49.7620721,-215.7474435 47.6379057,-213.8860002 45.617403,-212.0359423 43.6990266,-210.2008795 41.8811312,-208.3843589 40.1619665,-206.5898626 38.5396782,-204.8208046 37.0123111,-203.0805277 35.5778106,-201.372301 34.2340256,-199.6993169 32.9787103,-198.064689 31.8095272,-196.4714488 30.7240492,-194.9225438 29.7197622,-193.4208346 28.7940681,-191.9690928 27.9442872,-190.5699987 27.1676609,-189.2261388 26.4613547,-187.940004 25.822461,-186.7139874 25.248002,-185.5503823 24.7349329,-184.4513802 24.2801445,-183.4190691 23.8804666,-182.4554318 23.532671,-181.5623442 23.233475,-180.7415735 22.9795439,-179.9947773 22.7674949,-179.3235015 22.5938999,-178.7291795 22.4552894,-178.2131308 22.3481552,-177.77656 22.268954,-177.4205554 22.2141111,-177.1460887 22.1800235,-176.9540135 22.1630632,-176.845065 21.2949786,-169.9208239 0,-171.25 -0.0003158,-178.2284444 -0.0035967,-178.3386563 -0.0135352,-178.5334795 -0.0338224,-178.8126356 -0.0681395,-179.1757257 -0.1201545,-179.6222302 -0.1935185,-180.1515098 -0.2918619,-180.7628055 -0.4187918,-181.4552394 -0.5778877,-182.2278157 -0.7726985,-183.0794209 -1.0067389,-184.0088252 -1.2834861,-185.0146832 -1.6063765,-186.0955349 -1.9788023,-187.2498073 -2.4041079,-188.4758151 -2.8855873,-189.7717623 -3.4264803,-191.135744 -4.0299694,-192.565747 -4.699177,-194.0596524 -5.4371617,-195.6152366 -6.2469159,-197.2301734 -7.1313622,-198.9020359 -8.0933507,-200.6282982 -9.1356564,-202.4063375 -10.2609755,-204.2334365 -11.4719235,-206.1067851 -12.771032,-208.0234832 -14.1607459,-209.9805424 -15.6434211,-211.974889 -17.2213218,-214.0033661 -18.8966181,-216.0627366 -20.6713833,-218.149685 -22.5475918,-220.2608211 -24.5271168,-222.3926819 -25.5561801,-223.4652829 -25.6213738,-223.532453 -25.6253763,-223.5359928 -34.4882775,-222.3410864 -34.4911996,-222.336613 -34.536277,-222.254576 -35.2445428,-220.9477464 -36.5888123,-218.3677678 -37.8389427,-215.8351352 -38.9976572,-213.3526917 -40.0677578,-210.9231837 -41.0521218,-208.5492591 -41.9536989,-206.2334649 -42.7755086,-203.9782456 -43.5206367,-201.7859413 -44.1922323,-199.658786 -44.7935045,-197.598906 -45.3277195,-195.6083183 -45.7981973,-193.6889293 -46.2083079,-191.8425332 -46.5614689,-190.0708108 -46.8611411,-188.3753285 -47.1108262,-186.757537 -47.3140624,-185.2187704 -47.4744218,-183.7602451 -47.5955064,-182.3830594 -47.6809448,-181.0881925 -47.734389,-179.8765039 -47.7595104,-178.7487328 -47.7599966,-177.705498 -47.7395479,-176.747297 -47.7018737,-175.8745064 -47.6506889,-175.0873815 -47.5897106,-174.3860558 -47.5226542,-173.770542 -47.4532303,-173.2407312 -47.385141,-172.7963939 -47.3220763,-172.4371796 -47.2677106,-172.1626179 -47.2256995,-171.9721188 -47.199676,-171.8649731 -45.3518892,-165.1356068 -65.5345378,-158.2143699 -68.2053646,-164.661491 -68.250572,-164.762058 -68.3343096,-164.9382479 -68.4598809,-165.1883909 -68.6305344,-165.5107098 -68.8494599,-165.9033209 -69.1197858,-166.3642363 -69.4445761,-166.8913655 -69.826827,-167.4825171 -70.2694646,-168.1354011 -70.7753415,-168.8476309 -71.3472343,-169.6167251 -71.9878405,-170.4401101 -72.6997764,-171.3151221 -73.4855739,-172.2390096 -74.3476779,-173.2089356 -75.2884444,-174.2219806 -76.3101376,-175.2751446 -77.4149273,-176.3653498 -78.6048873,-177.4894438 -79.8819926,-178.6442016 -81.2481175,-179.8263292 -82.7050333,-181.0324658 -84.2544069,-182.2591871 -85.8977979,-183.5030082 -87.6366577,-184.7603865 -89.4723273,-186.0277252 -91.4060356,-187.301376 -93.4388979,-188.5776425 -95.5719146,-189.8527833 -97.8059695,-191.1230153 -100.1418283,-192.3845174 -102.5801381,-193.6334331 -105.1214256,-194.8658746 -107.766096,-196.0779258 -109.1272932,-196.6750743 -109.2132292,-196.7121829 -109.2182817,-196.7139216 -116.9492638,-192.2182866 -116.9502516,-192.2130354 -116.9605035,-192.1199928 -117.1147537,-190.641598 -117.3693817,-187.7435789 -117.555155,-184.9253273 -117.6756777,-182.1884277 -117.7345893,-179.5343453 -117.7355614,-176.9644252 -117.682294,-174.4798916 -117.5785121,-172.0818477 -117.4279621,-169.7712744 -117.2344084,-167.5490307 -117.0016295,-165.4158528 -116.733415,-163.3723544 -116.4335614,-161.4190262 -116.105869,-159.556236 -115.7541384,-157.7842291 -115.3821665,-156.1031281 -114.9937433,-154.5129333 -114.5926486,-153.0135232 -114.1826479,-151.6046546 -113.7674894,-150.2859639 -113.3509001,-149.056967 -112.9365829,-147.9170605 -112.5282128,-146.8655224 -112.1294333,-145.9015129 -111.7438535,-145.0240761 -111.3750446,-144.23214 -111.0265363,-143.5245189 -110.7018139,-142.899914 -110.404315,-142.3569147 -110.1374259,-141.8940007 -109.904479,-141.5095432 -109.7087495,-141.2018063 -109.5534519,-140.9689492 -109.4417379,-140.8090279 -109.3766924,-140.719997 -105.094343,-135.2099906 -121.0920363,-121.0920363 -126.0267649,-126.0263183 -126.1070164,-126.10193 -126.2518048,-126.2326632 -126.4635432,-126.4157112 -126.7445526,-126.6481887 -127.0970591,-126.9271349 -127.5231924,-127.249516 -128.0249831,-127.612228 -128.6043608,-128.0120997 -129.2631525,-128.4458959 -130.0030804,-128.9103197 -130.82576,-129.4020162 -131.7326988,-129.9175753 -132.7252944,-130.4535349 -133.804833,-131.006384 -134.9724879,-131.5725659 -136.2293184,-132.1484817 -137.5762681,-132.7304932 -139.0141642,-133.3149268 -140.5437161,-133.8980763 -142.1655142,-134.4762064 -143.8800297,-135.0455565 -145.6876129,-135.6023439 -147.5884933,-136.142767 -149.5827784,-136.6630093 -151.6704532,-137.1592425 -153.8513803,-137.6276305 -156.1252989,-138.0643323 -158.4918248,-138.465506 -160.9504506,-138.8273123 -163.5005448,-139.145918 -166.141353,-139.4174994 -168.8719969,-139.6382463 -171.6914753,-139.8043652 -174.5986641,-139.9120829 -176.0847651,-139.9428686 -176.1783605,-139.9442662 -176.1836937,-139.943939 -181.6057848,-132.8319951 -181.6046879,-132.8267656 -181.5785535,-132.7368822 -181.155305,-131.3119945 -180.2815267,-128.5371321 -179.3746606,-125.8623148 -178.4386429,-123.2876272 -177.4773968,-120.8130303 -176.494829,-118.4383617 -175.4948265,-116.1633365 -174.4812529,-113.9875484 -173.4579448,-111.9104701 -172.4287086,-109.9314544 -171.3973171,-108.0497356 -170.3675062,-106.2644305 -169.3429712,-104.5745395 -168.327364,-102.9789483 -167.3242896,-101.4764289 -166.3373029,-100.0656416 -165.3699055,-98.7451362 -164.4255429,-97.5133541 -163.507601,-96.3686298 -162.6194034,-95.3091928 -161.7642084,-94.3331695 -160.9452059,-93.4385855 -160.1655148,-92.6233674 -159.4281801,-91.8853452 -158.7361703,-91.2222542 -158.0923745,-90.6317378 -157.4996,-90.1113495 -156.9605697,-89.6585556 -156.4779197,-89.2707376 -156.0541968,-88.9451949 -155.6918564,-88.6791473 -155.39326,-88.4697379 -155.1606733,-88.3140359 -154.9962637,-88.209039 -154.9020989,-88.1516769 -148.8371358,-84.699879 -158.2143699,-65.5345378 -164.6617327,-68.2047811 -164.7648108,-68.2439262 -164.9486072,-68.3092998 -165.2142775,-68.3973854 -165.5628616,-68.504629 -165.9952832,-68.6274433 -166.5123489,-68.7622104 -167.1147469,-68.9052856 -167.8030465,-69.0530007 -168.5776972,-69.2016674 -169.4390287,-69.3475809 -170.3872497,-69.4870234 -171.4224479,-69.6162674 -172.5445895,-69.7315796 -173.7535192,-69.829224 -175.0489602,-69.9054657 -176.4305135,-69.9565743 -177.897659,-69.9788275 -179.4497549,-69.9685148 -181.0860381,-69.9219404 -182.805625,-69.8354277 -184.6075116,-69.705322 -186.4905741,-69.5279943 -188.4535696,-69.2998447 -190.4951368,-69.017306 -192.6137972,-68.6768472 -194.8079554,-68.2749766 -197.0759007,-67.8082455 -199.4158081,-67.2732514 -201.8257394,-66.6666415 -204.3036444,-65.9851159 -206.8473627,-65.2254309 -209.4546249,-64.3844023 -212.1230542,-63.4589085 -214.8501682,-62.4458937 -216.2349278,-61.9056297 -216.3219334,-61.8711035 -216.3267355,-61.8687603 -218.6144714,-53.2232365 -218.6114567,-53.2188248 -218.5529148,-53.1457845 -217.6166033,-51.9913302 -215.7474435,-49.7620721 -213.8860002,-47.6379057 -212.0359423,-45.617403 -210.2008795,-43.6990266 -208.3843589,-41.8811312 -206.5898626,-40.1619665 -204.8208046,-38.5396782 -203.0805277,-37.0123111 -201.372301,-35.5778106 -199.6993169,-34.2340256 -198.064689,-32.9787103 -196.4714488,-31.8095272 -194.9225438,-30.7240492 -193.4208346,-29.7197622 -191.9690928,-28.7940681 -190.5699987,-27.9442872 -189.2261388,-27.1676609 -187.940004,-26.4613547 -186.7139874,-25.822461 -185.5503823,-25.248002 -184.4513802,-24.7349329 -183.4190691,-24.2801445 -182.4554318,-23.8804666 -181.5623442,-23.532671 -180.7415735,-23.233475 -179.9947773,-22.9795439 -179.3235015,-22.7674949 -178.7291795,-22.5938999 -178.2131308,-22.4552894 -177.77656,-22.3481552 -177.4205554,-22.268954 -177.1460887,-22.2141111 -176.9540135,-22.1800235 -176.845065,-22.1630632 -169.9208239,-21.2949786 -171.25,0 -178.2284444,0.0003158 -178.3386563,0.0035967 -178.5334795,0.0135352 -178.8126356,0.0338224 -179.1757257,0.0681395 -179.6222302,0.1201545 -180.1515098,0.1935185 -180.7628055,0.2918619 -181.4552394,0.4187918 -182.2278157,0.5778877 -183.0794209,0.7726985 -184.0088252,1.0067389 -185.0146832,1.2834861 -186.0955349,1.6063765 -187.2498073,1.9788023 -188.4758151,2.4041079 -189.7717623,2.8855873 -191.135744,3.4264803 -192.565747,4.0299694 -194.0596524,4.699177 -195.6152366,5.4371617 -197.2301734,6.2469159 -198.9020359,7.1313622 -200.6282982,8.0933507 -202.4063375,9.1356564 -204.2334365,10.2609755 -206.1067851,11.4719235 -208.0234832,12.771032 -209.9805424,14.1607459 -211.974889,15.6434211 -214.0033661,17.2213218 -216.0627366,18.8966181 -218.149685,20.6713833 -220.2608211,22.5475918 -222.3926819,24.5271168 -223.4652829,25.5561801 -223.532453,25.6213738 -223.5359928,25.6253763 -222.3410864,34.4882775 -222.336613,34.4911996 -222.254576,34.536277 -220.9477464,35.2445428 -218.3677678,36.5888123 -215.8351352,37.8389427 -213.3526917,38.9976572 -210.9231837,40.0677578 -208.5492591,41.0521218 -206.2334649,41.9536989 -203.9782456,42.7755086 -201.7859413,43.5206367 -199.658786,44.1922323 -197.598906,44.7935045 -195.6083183,45.3277195 -193.6889293,45.7981973 -191.8425332,46.2083079 -190.0708108,46.5614689 -188.3753285,46.8611411 -186.757537,47.1108262 -185.2187704,47.3140624 -183.7602451,47.4744218 -182.3830594,47.5955064 -181.0881925,47.6809448 -179.8765039,47.734389 -178.7487328,47.7595104 -177.705498,47.7599966 -176.747297,47.7395479 -175.8745064,47.7018737 -175.0873815,47.6506889 -174.3860558,47.5897106 -173.770542,47.5226542 -173.2407312,47.4532303 -172.7963939,47.385141 -172.4371796,47.3220763 -172.1626179,47.2677106 -171.9721188,47.2256995 -171.8649731,47.199676 -165.1356068,45.3518892 -158.2143699,65.5345378 -164.661491,68.2053646 -164.762058,68.250572 -164.9382479,68.3343096 -165.1883909,68.4598809 -165.5107098,68.6305344 -165.9033209,68.8494599 -166.3642363,69.1197858 -166.8913655,69.4445761 -167.4825171,69.826827 -168.1354011,70.2694646 -168.8476309,70.7753415 -169.6167251,71.3472343 -170.4401101,71.9878405 -171.3151221,72.6997764 -172.2390096,73.4855739 -173.2089356,74.3476779 -174.2219806,75.2884444 -175.2751446,76.3101376 -176.3653498,77.4149273 -177.4894438,78.6048873 -178.6442016,79.8819926 -179.8263292,81.2481175 -181.0324658,82.7050333 -182.2591871,84.2544069 -183.5030082,85.8977979 -184.7603865,87.6366577 -186.0277252,89.4723273 -187.301376,91.4060356 -188.5776425,93.4388979 -189.8527833,95.5719146 -191.1230153,97.8059695 -192.3845174,100.1418283 -193.6334331,102.5801381 -194.8658746,105.1214256 -196.0779258,107.766096 -196.6750743,109.1272932 -196.7121829,109.2132292 -196.7139216,109.2182817 -192.2182866,116.9492638 -192.2130354,116.9502516 -192.1199928,116.9605035 -190.641598,117.1147537 -187.7435789,117.3693817 -184.9253273,117.555155 -182.1884277,117.6756777 -179.5343453,117.7345893 -176.9644252,117.7355614 -174.4798916,117.682294 -172.0818477,117.5785121 -169.7712744,117.4279621 -167.5490307,117.2344084 -165.4158528,117.0016295 -163.3723544,116.733415 -161.4190262,116.4335614 -159.556236,116.105869 -157.7842291,115.7541384 -156.1031281,115.3821665 -154.5129333,114.9937433 -153.0135232,114.5926486 -151.6046546,114.1826479 -150.2859639,113.7674894 -149.056967,113.3509001 -147.9170605,112.9365829 -146.8655224,112.5282128 -145.9015129,112.1294333 -145.0240761,111.7438535 -144.23214,111.3750446 -143.5245189,111.0265363 -142.899914,110.7018139 -142.3569147,110.404315 -141.8940007,110.1374259 -141.5095432,109.904479 -141.2018063,109.7087495 -140.9689492,109.5534519 -140.8090279,109.4417379 -140.719997,109.3766924 -135.2099906,105.094343 -121.0920363,121.0920363 -126.0263183,126.0267649 -126.10193,126.1070164 -126.2326632,126.2518048 -126.4157112,126.4635432 -126.6481887,126.7445526 -126.9271349,127.0970591 -127.249516,127.5231924 -127.612228,128.0249831 -128.0120997,128.6043608 -128.4458959,129.2631525 -128.9103197,130.0030804 -129.4020162,130.82576 -129.9175753,131.7326988 -130.4535349,132.7252944 -131.006384,133.804833 -131.5725659,134.9724879 -132.1484817,136.2293184 -132.7304932,137.5762681 -133.3149268,139.0141642 -133.8980763,140.5437161 -134.4762064,142.1655142 -135.0455565,143.8800297 -135.6023439,145.6876129 -136.142767,147.5884933 -136.6630093,149.5827784 -137.1592425,151.6704532 -137.6276305,153.8513803 -138.0643323,156.1252989 -138.465506,158.4918248 -138.8273123,160.9504506 -139.145918,163.5005448 -139.4174994,166.141353 -139.6382463,168.8719969 -139.8043652,171.6914753 -139.9120829,174.5986641 -139.9428686,176.0847651 -139.9442662,176.1783605 -139.943939,176.1836937 -132.8319951,181.6057848 -132.8267656,181.6046879 -132.7368822,181.5785535 -131.3119945,181.155305 -128.5371321,180.2815267 -125.8623148,179.3746606 -123.2876272,178.4386429 -120.8130303,177.4773968 -118.4383617,176.494829 -116.1633365,175.4948265 -113.9875484,174.4812529 -111.9104701,173.4579448 -109.9314544,172.4287086 -108.0497356,171.3973171 -106.2644305,170.3675062 -104.5745395,169.3429712 -102.9789483,168.327364 -101.4764289,167.3242896 -100.0656416,166.3373029 -98.7451362,165.3699055 -97.5133541,164.4255429 -96.3686298,163.507601 -95.3091928,162.6194034 -94.3331695,161.7642084 -93.4385855,160.9452059 -92.6233674,160.1655148 -91.8853452,159.4281801 -91.2222542,158.7361703 -90.6317378,158.0923745 -90.1113495,157.4996 -89.6585556,156.9605697 -89.2707376,156.4779197 -88.9451949,156.0541968 -88.6791473,155.6918564 -88.4697379,155.39326 -88.3140359,155.1606733 -88.209039,154.9962637 -88.1516769,154.9020989 -84.699879,148.8371358 -65.5345378,158.2143699 -68.2047811,164.6617327 -68.2439262,164.7648108 -68.3092998,164.9486072 -68.3973854,165.2142775 -68.504629,165.5628616 -68.6274433,165.9952832 -68.7622104,166.5123489 -68.9052856,167.1147469 -69.0530007,167.8030465 -69.2016674,168.5776972 -69.3475809,169.4390287 -69.4870234,170.3872497 -69.6162674,171.4224479 -69.7315796,172.5445895 -69.829224,173.7535192 -69.9054657,175.0489602 -69.9565743,176.4305135 -69.9788275,177.897659 -69.9685148,179.4497549 -69.9219404,181.0860381 -69.8354277,182.805625 -69.705322,184.6075116 -69.5279943,186.4905741 -69.2998447,188.4535696 -69.017306,190.4951368 -68.6768472,192.6137972 -68.2749766,194.8079554 -67.8082455,197.0759007 -67.2732514,199.4158081 -66.6666415,201.8257394 -65.9851159,204.3036444 -65.2254309,206.8473627 -64.3844023,209.4546249 -63.4589085,212.1230542 -62.4458937,214.8501682 -61.9056297,216.2349278 -61.8711035,216.3219334 -61.8687603,216.3267355 -53.2232365,218.6144714 -53.2188248,218.6114567 -53.1457845,218.5529148 -51.9913302,217.6166033 -49.7620721,215.7474435 -47.6379057,213.8860002 -45.617403,212.0359423 -43.6990266,210.2008795 -41.8811312,208.3843589 -40.1619665,206.5898626 -38.5396782,204.8208046 -37.0123111,203.0805277 -35.5778106,201.372301 -34.2340256,199.6993169 -32.9787103,198.064689 -31.8095272,196.4714488 -30.7240492,194.9225438 -29.7197622,193.4208346 -28.7940681,191.9690928 -27.9442872,190.5699987 -27.1676609,189.2261388 -26.4613547,187.940004 -25.822461,186.7139874 -25.248002,185.5503823 -24.7349329,184.4513802 -24.2801445,183.4190691 -23.8804666,182.4554318 -23.532671,181.5623442 -23.233475,180.7415735 -22.9795439,179.9947773 -22.7674949,179.3235015 -22.5938999,178.7291795 -22.4552894,178.2131308 -22.3481552,177.77656 -22.268954,177.4205554 -22.2141111,177.1460887 -22.1800235,176.9540135 -22.1630632,176.845065 -21.2949786,169.9208239 0,171.25 0.0003158,178.2284444 0.0035967,178.3386563 0.0135352,178.5334795 0.0338224,178.8126356 0.0681395,179.1757257 0.1201545,179.6222302 0.1935185,180.1515098 0.2918619,180.7628055 0.4187918,181.4552394 0.5778877,182.2278157 0.7726985,183.0794209 1.0067389,184.0088252 1.2834861,185.0146832 1.6063765,186.0955349 1.9788023,187.2498073 2.4041079,188.4758151 2.8855873,189.7717623 3.4264803,191.135744 4.0299694,192.565747 4.699177,194.0596524 5.4371617,195.6152366 6.2469159,197.2301734 7.1313622,198.9020359 8.0933507,200.6282982 9.1356564,202.4063375 10.2609755,204.2334365 11.4719235,206.1067851 12.771032,208.0234832 14.1607459,209.9805424 15.6434211,211.974889 17.2213218,214.0033661 18.8966181,216.0627366 20.6713833,218.149685 22.5475918,220.2608211 24.5271168,222.3926819 25.5561801,223.4652829 25.6213738,223.532453 25.6253763,223.5359928 34.4882775,222.3410864 34.4911996,222.336613 34.536277,222.254576 35.2445428,220.9477464 36.5888123,218.3677678 37.8389427,215.8351352 38.9976572,213.3526917 40.0677578,210.9231837 41.0521218,208.5492591 41.9536989,206.2334649 42.7755086,203.9782456 43.5206367,201.7859413 44.1922323,199.658786 44.7935045,197.598906 45.3277195,195.6083183 45.7981973,193.6889293 46.2083079,191.8425332 46.5614689,190.0708108 46.8611411,188.3753285 47.1108262,186.757537 47.3140624,185.2187704 47.4744218,183.7602451 47.5955064,182.3830594 47.6809448,181.0881925 47.734389,179.8765039 47.7595104,178.7487328 47.7599966,177.705498 47.7395479,176.747297 47.7018737,175.8745064 47.6506889,175.0873815 47.5897106,174.3860558 47.5226542,173.770542 47.4532303,173.2407312 47.385141,172.7963939 47.3220763,172.4371796 47.2677106,172.1626179 47.2256995,171.9721188 47.199676,171.8649731 45.3518892,165.1356068 65.5345378,158.2143699 68.2053646,164.661491 68.250572,164.762058 68.3343096,164.9382479 68.4598809,165.1883909 68.6305344,165.5107098 68.8494599,165.9033209 69.1197858,166.3642363 69.4445761,166.8913655 69.826827,167.4825171 70.2694646,168.1354011 70.7753415,168.8476309 71.3472343,169.6167251 71.9878405,170.4401101 72.6997764,171.3151221 73.4855739,172.2390096 74.3476779,173.2089356 75.2884444,174.2219806 76.3101376,175.2751446 77.4149273,176.3653498 78.6048873,177.4894438 79.8819926,178.6442016 81.2481175,179.8263292 82.7050333,181.0324658 84.2544069,182.2591871 85.8977979,183.5030082 87.6366577,184.7603865 89.4723273,186.0277252 91.4060356,187.301376 93.4388979,188.5776425 95.5719146,189.8527833 97.8059695,191.1230153 100.1418283,192.3845174 102.5801381,193.6334331 105.1214256,194.8658746 107.766096,196.0779258 109.1272932,196.6750743 109.2132292,196.7121829 109.2182817,196.7139216 116.9492638,192.2182866 116.9502516,192.2130354 116.9605035,192.1199928 117.1147537,190.641598 117.3693817,187.7435789 117.555155,184.9253273 117.6756777,182.1884277 117.7345893,179.5343453 117.7355614,176.9644252 117.682294,174.4798916 117.5785121,172.0818477 117.4279621,169.7712744 117.2344084,167.5490307 117.0016295,165.4158528 116.733415,163.3723544 116.4335614,161.4190262 116.105869,159.556236 115.7541384,157.7842291 115.3821665,156.1031281 114.9937433,154.5129333 114.5926486,153.0135232 114.1826479,151.6046546 113.7674894,150.2859639 113.3509001,149.056967 112.9365829,147.9170605 112.5282128,146.8655224 112.1294333,145.9015129 111.7438535,145.0240761 111.3750446,144.23214 111.0265363,143.5245189 110.7018139,142.899914 110.404315,142.3569147 110.1374259,141.8940007 109.904479,141.5095432 109.7087495,141.2018063 109.5534519,140.9689492 109.4417379,140.8090279 109.3766924,140.719997 105.094343,135.2099906 121.0920363,121.0920363 126.0267649,126.0263183 126.1070164,126.10193 126.2518048,126.2326632 126.4635432,126.4157112 126.7445526,126.6481887 127.0970591,126.9271349 127.5231924,127.249516 128.0249831,127.612228 128.6043608,128.0120997 129.2631525,128.4458959 130.0030804,128.9103197 130.82576,129.4020162 131.7326988,129.9175753 132.7252944,130.4535349 133.804833,131.006384 134.9724879,131.5725659 136.2293184,132.1484817 137.5762681,132.7304932 139.0141642,133.3149268 140.5437161,133.8980763 142.1655142,134.4762064 143.8800297,135.0455565 145.6876129,135.6023439 147.5884933,136.142767 149.5827784,136.6630093 151.6704532,137.1592425 153.8513803,137.6276305 156.1252989,138.0643323 158.4918248,138.465506 160.9504506,138.8273123 163.5005448,139.145918 166.141353,139.4174994 168.8719969,139.6382463 171.6914753,139.8043652 174.5986641,139.9120829 176.0847651,139.9428686 176.1783605,139.9442662 176.1836937,139.943939 181.6057848,132.8319951 181.6046879,132.8267656 181.5785535,132.7368822 181.155305,131.3119945 180.2815267,128.5371321 179.3746606,125.8623148 178.4386429,123.2876272 177.4773968,120.8130303 176.494829,118.4383617 175.4948265,116.1633365 174.4812529,113.9875484 173.4579448,111.9104701 172.4287086,109.9314544 171.3973171,108.0497356 170.3675062,106.2644305 169.3429712,104.5745395 168.327364,102.9789483 167.3242896,101.4764289 166.3373029,100.0656416 165.3699055,98.7451362 164.4255429,97.5133541 163.507601,96.3686298 162.6194034,95.3091928 161.7642084,94.3331695 160.9452059,93.4385855 160.1655148,92.6233674 159.4281801,91.8853452 158.7361703,91.2222542 158.0923745,90.6317378 157.4996,90.1113495 156.9605697,89.6585556 156.4779197,89.2707376 156.0541968,88.9451949 155.6918564,88.6791473 155.39326,88.4697379 155.1606733,88.3140359 154.9962637,88.209039 154.9020989,88.1516769 148.8371358,84.699879 158.2143699,65.5345378 164.6617327,68.2047811 164.7648108,68.2439262 164.9486072,68.3092998 165.2142775,68.3973854 165.5628616,68.504629 165.9952832,68.6274433 166.5123489,68.7622104 167.1147469,68.9052856 167.8030465,69.0530007 168.5776972,69.2016674 169.4390287,69.3475809 170.3872497,69.4870234 171.4224479,69.6162674 172.5445895,69.7315796 173.7535192,69.829224 175.0489602,69.9054657 176.4305135,69.9565743 177.897659,69.9788275 179.4497549,69.9685148 181.0860381,69.9219404 182.805625,69.8354277 184.6075116,69.705322 186.4905741,69.5279943 188.4535696,69.2998447 190.4951368,69.017306 192.6137972,68.6768472 194.8079554,68.2749766 197.0759007,67.8082455 199.4158081,67.2732514 201.8257394,66.6666415 204.3036444,65.9851159 206.8473627,65.2254309 209.4546249,64.3844023 212.1230542,63.4589085 214.8501682,62.4458937 216.2349278,61.9056297 216.3219334,61.8711035 216.3267355,61.8687603 218.6144714,53.2232365 218.6114567,53.2188248 218.5529148,53.1457845 217.6166033,51.9913302 215.7474435,49.7620721 213.8860002,47.6379057 212.0359423,45.617403 210.2008795,43.6990266 208.3843589,41.8811312 206.5898626,40.1619665 204.8208046,38.5396782 203.0805277,37.0123111 201.372301,35.5778106 199.6993169,34.2340256 198.064689,32.9787103 196.4714488,31.8095272 194.9225438,30.7240492 193.4208346,29.7197622 191.9690928,28.7940681 190.5699987,27.9442872 189.2261388,27.1676609 187.940004,26.4613547 186.7139874,25.822461 185.5503823,25.248002 184.4513802,24.7349329 183.4190691,24.2801445 182.4554318,23.8804666 181.5623442,23.532671 180.7415735,23.233475 179.9947773,22.9795439 179.3235015,22.7674949 178.7291795,22.5938999 178.2131308,22.4552894 177.77656,22.3481552 177.4205554,22.268954 177.1460887,22.2141111 176.9540135,22.1800235 176.845065,22.1630632 169.9208239,21.2949786 z" transform="matrix(1, 0, 0, 1, 5.684341886080802e-14, 0)"/>
</svg>