<svg xmlns="http://www.w3.org/2000/svg" xmlns:xlink="http://www.w3.org/1999/xlink" width="30" height="841.89" viewBox="0 0 60 841.89" fill-rule="evenodd">
<g>
<path style="stroke:white; stroke-width:2; stroke-linejoin:round; stroke-linecap:round; fill:none" d="M 25.2929 25.6545L 31.1972 26.557L 31.2619 26.5647L 31.3831 26.576L 31.561 26.5879L 31.7958 26.5972L 32.0874 26.601L 32.4356 26.5962L 32.84 26.5798L 33.3004 26.5486L 33.8162 26.4999L 34.3867 26.4305L 35.0111 26.3375L 35.6885 26.218L 36.418 26.0689L 37.1983 25.8875L 38.0283 25.671L 38.9066 25.4164L 39.8316 25.1212L 40.8019 24.7826L 41.8156 24.398L 42.871 23.9648L 43.9662 23.4806L 45.0992 22.9429L 46.2678 22.3492L 47.4698 21.6975L 48.7029 20.9854L 49.9647 20.2109L 51.2528 19.3718L 52.5644 18.4664L 53.8969 17.4926L 54.5702 16.9795L 54.9084 16.7164L 55.0779 16.5831L 55.1627 16.5161L 55.2052 16.4824L 55.2264 16.4656L 55.237 16.4572L 55.2382 16.455L 55.2118 11.7745L 55.2106 11.7723L 55.1999 11.764L 55.1785 11.7474L 55.1357 11.7143L 55.0501 11.6482L 54.8791 11.5169L 54.538 11.2576L 53.859 10.7521L 52.5155 9.7934L 51.1938 8.90271L 49.8965 8.07819L 48.626 7.31793L 47.3849 6.61975L 46.1757 5.98157L 45.0005 5.40118L 43.8615 4.87622L 42.7609 4.40436L 41.7007 3.98309L 40.6827 3.60992L 39.7087 3.28229L 38.7804 2.9975L 37.8993 2.75287L 37.0669 2.54565L 36.2846 2.37305L 35.5535 2.23224L 34.8748 2.1203L 34.2494 2.0343L 33.6781 1.97137L 33.1619 1.92841L 32.7011 1.90253L 32.2965 1.89062L 31.9483 1.88977L 31.6568 1.89685L 31.4221 1.90881L 31.2443 1.92267L 31.1233 1.9353L 31.0587 1.94379L 25.139 2.91699"/>
<path style="stroke:white; stroke-width:2; stroke-linejoin:round; stroke-linecap:round; fill:none" d="M 25.2468 37.8741L 25.2929 25.6545"/>
<path style="stroke:white; stroke-width:2; stroke-linejoin:round; stroke-linecap:round; fill:none" d="M 25.4007 60.6116L 31.305 61.5142L 31.3697 61.5219L 31.4909 61.5332L 31.6688 61.545L 31.9036 61.5544L 32.1952 61.5582L 32.5434 61.5534L 32.9478 61.5369L 33.4082 61.5059L 33.924 61.4572L 34.4945 61.3878L 35.1189 61.2947L 35.7963 61.1752L 36.5258 61.0261L 37.3061 60.8447L 38.1361 60.6281L 39.0144 60.3736L 39.9394 60.0784L 40.9096 59.7398L 41.9234 59.3552L 42.9788 58.9221L 44.074 58.4378L 45.207 57.9001L 46.3756 57.3065L 47.5776 56.6547L 48.8107 55.9426L 50.0725 55.1681L 51.3605 54.329L 52.6722 53.4235L 54.0047 52.4498L 54.678 51.9367L 55.0162 51.6735L 55.1857 51.5403L 55.2705 51.4733L 55.313 51.4396L 55.3342 51.4228L 55.3448 51.4144L 55.346 51.4122L 55.3196 46.7317L 55.3184 46.7296L 55.3077 46.7213L 55.2863 46.7047L 55.2435 46.6715L 55.1579 46.6054L 54.9869 46.4741L 54.6458 46.2147L 53.9668 45.7093L 52.6233 44.7505L 51.3016 43.8599L 50.0042 43.0354L 48.7338 42.2751L 47.4927 41.577L 46.2835 40.9388L 45.1083 40.3584L 43.9693 39.8334L 42.8687 39.3616L 41.8085 38.9403L 40.7905 38.5671L 39.8165 38.2395L 38.8882 37.9547L 38.0071 37.7101L 37.1747 37.5029L 36.3924 37.3303L 35.6613 37.1895L 34.9826 37.0775L 34.3571 36.9915L 33.7859 36.9285L 33.2697 36.8856L 32.8089 36.8597L 32.4043 36.8478L 32.0561 36.847L 31.7646 36.8541L 31.5299 36.866L 31.3521 36.8799L 31.231 36.8925L 31.1665 36.9009L 25.2468 37.8741"/>
<path style="stroke:white; stroke-width:2; stroke-linejoin:round; stroke-linecap:round; fill:none" d="M 25.3546 72.8314L 25.4007 60.6116"/>
<path style="stroke:white; stroke-width:2; stroke-linejoin:round; stroke-linecap:round; fill:none" d="M 25.5085 95.5688L 31.4128 96.4714L 31.4775 96.4791L 31.5987 96.4904L 31.7766 96.5023L 32.0114 96.5116L 32.303 96.5154L 32.6511 96.5106L 33.0556 96.4941L 33.516 96.4631L 34.0318 96.4143L 34.6023 96.3449L 35.2267 96.2519L 35.9041 96.1323L 36.6336 95.9833L 37.4139 95.8019L 38.2439 95.5853L 39.1222 95.3308L 40.0472 95.0356L 41.0174 94.697L 42.0312 94.3124L 43.0866 93.8793L 44.1818 93.395L 45.3148 92.8573L 46.4834 92.2637L 47.6854 91.6119L 48.9185 90.8998L 50.1803 90.1253L 51.4683 89.2863L 52.7799 88.3807L 54.1125 87.407L 54.7858 86.8939L 55.124 86.6307L 55.2935 86.4975L 55.3783 86.4305L 55.4207 86.3969L 55.442 86.38L 55.4526 86.3716L 55.4537 86.3694L 55.4274 81.6888L 55.4262 81.6868L 55.4155 81.6784L 55.3941 81.6619L 55.3513 81.6287L 55.2657 81.5626L 55.0947 81.4313L 54.7535 81.1719L 54.0746 80.6665L 52.7311 79.7078L 51.4094 78.8171L 50.112 77.9926L 48.8416 77.2323L 47.6005 76.5342L 46.3913 75.896L 45.216 75.3156L 44.0771 74.7906L 42.9765 74.3187L 41.9163 73.8975L 40.8983 73.5244L 39.9243 73.1967L 38.996 72.9119L 38.1149 72.6673L 37.2825 72.4601L 36.5002 72.2875L 35.7691 72.1467L 35.0904 72.0347L 34.4649 71.9487L 33.8937 71.8857L 33.3774 71.8428L 32.9167 71.8169L 32.5121 71.8051L 32.1639 71.8042L 31.8724 71.8112L 31.6377 71.8232L 31.4599 71.837L 31.3388 71.8497L 31.2743 71.8582L 25.3546 72.8314"/>
<path style="stroke:white; stroke-width:2; stroke-linejoin:round; stroke-linecap:round; fill:none" d="M 25.4624 107.789L 25.5085 95.5688"/>
<path style="stroke:white; stroke-width:2; stroke-linejoin:round; stroke-linecap:round; fill:none" d="M 25.6162 130.526L 31.5206 131.429L 31.5853 131.436L 31.7065 131.448L 31.8844 131.459L 32.1192 131.469L 32.4108 131.473L 32.7589 131.468L 33.1634 131.451L 33.6238 131.42L 34.1396 131.372L 34.7101 131.302L 35.3345 131.209L 36.0119 131.09L 36.7414 130.94L 37.5217 130.759L 38.3517 130.543L 39.2299 130.288L 40.155 129.993L 41.1252 129.654L 42.139 129.27L 43.1944 128.836L 44.2896 128.352L 45.4226 127.814L 46.5912 127.221L 47.7932 126.569L 49.0263 125.857L 50.2881 125.083L 51.5761 124.243L 52.8877 123.338L 54.2203 122.364L 54.8935 121.851L 55.2318 121.588L 55.4013 121.455L 55.4861 121.388L 55.5285 121.354L 55.5498 121.337L 55.5604 121.329L 55.5615 121.327L 55.5352 116.646L 55.534 116.644L 55.5233 116.636L 55.5019 116.619L 55.4591 116.586L 55.3735 116.52L 55.2025 116.388L 54.8613 116.129L 54.1823 115.624L 52.8389 114.665L 51.5172 113.774L 50.2198 112.95L 48.9494 112.19L 47.7083 111.491L 46.4991 110.853L 45.3238 110.273L 44.1849 109.748L 43.0843 109.276L 42.0241 108.855L 41.0061 108.482L 40.0321 108.154L 39.1038 107.869L 38.2227 107.624L 37.3903 107.417L 36.608 107.245L 35.8769 107.104L 35.1981 106.992L 34.5727 106.906L 34.0015 106.843L 33.4852 106.8L 33.0245 106.774L 32.6199 106.762L 32.2717 106.761L 31.9802 106.768L 31.7455 106.78L 31.5677 106.794L 31.4466 106.807L 31.3821 106.815L 25.4624 107.789"/>
<path style="stroke:white; stroke-width:2; stroke-linejoin:round; stroke-linecap:round; fill:none" d="M 25.5702 142.746L 25.6162 130.526"/>
<path style="stroke:white; stroke-width:2; stroke-linejoin:round; stroke-linecap:round; fill:none" d="M 25.724 165.483L 31.6284 166.386L 31.6931 166.394L 31.8143 166.405L 31.9922 166.417L 32.227 166.426L 32.5186 166.43L 32.8667 166.425L 33.2712 166.409L 33.7316 166.378L 34.2474 166.329L 34.8178 166.259L 35.4423 166.166L 36.1197 166.047L 36.8492 165.898L 37.6295 165.716L 38.4595 165.5L 39.3377 165.245L 40.2628 164.95L 41.233 164.611L 42.2468 164.227L 43.3022 163.794L 44.3974 163.309L 45.5304 162.772L 46.699 162.178L 47.901 161.526L 49.1341 160.814L 50.3959 160.04L 51.6839 159.201L 52.9955 158.295L 54.3281 157.321L 55.0013 156.808L 55.3396 156.545L 55.5091 156.412L 55.5939 156.345L 55.6363 156.311L 55.6576 156.294L 55.6682 156.286L 55.6693 156.284L 55.643 151.603L 55.6418 151.601L 55.6311 151.593L 55.6097 151.576L 55.5669 151.543L 55.4813 151.477L 55.3103 151.346L 54.9691 151.086L 54.2901 150.581L 52.9467 149.622L 51.625 148.732L 50.3276 147.907L 49.0572 147.147L 47.8161 146.449L 46.6068 145.81L 45.4316 145.23L 44.2927 144.705L 43.1921 144.233L 42.1319 143.812L 41.1138 143.439L 40.1399 143.111L 39.2115 142.826L 38.3305 142.582L 37.4981 142.374L 36.7158 142.202L 35.9847 142.061L 35.3059 141.949L 34.6805 141.863L 34.1093 141.8L 33.593 141.757L 33.1323 141.731L 32.7277 141.719L 32.3795 141.719L 32.088 141.726L 31.8533 141.738L 31.6755 141.751L 31.5544 141.764L 31.4899 141.773L 25.5702 142.746"/>
<path style="stroke:white; stroke-width:2; stroke-linejoin:round; stroke-linecap:round; fill:none" d="M 25.678 177.703L 25.724 165.483"/>
<path style="stroke:white; stroke-width:2; stroke-linejoin:round; stroke-linecap:round; fill:none" d="M 25.8318 200.44L 31.7362 201.343L 31.8008 201.351L 31.9221 201.362L 32.1 201.374L 32.3348 201.383L 32.6263 201.387L 32.9745 201.382L 33.379 201.366L 33.8394 201.335L 34.3552 201.286L 34.9256 201.217L 35.55 201.124L 36.2275 201.004L 36.9569 200.855L 37.7373 200.674L 38.5673 200.457L 39.4455 200.202L 40.3706 199.907L 41.3408 199.569L 42.3546 199.184L 43.41 198.751L 44.5052 198.267L 45.6382 197.729L 46.8068 197.135L 48.0088 196.484L 49.2419 195.771L 50.5037 194.997L 51.7917 194.158L 53.1033 193.252L 54.4359 192.279L 55.1091 191.766L 55.4474 191.502L 55.6168 191.369L 55.7017 191.302L 55.7441 191.268L 55.7654 191.252L 55.776 191.243L 55.7771 191.241L 55.7508 186.56L 55.7496 186.558L 55.7389 186.55L 55.7175 186.533L 55.6747 186.5L 55.5891 186.434L 55.4181 186.303L 55.0769 186.044L 54.3979 185.538L 53.0545 184.579L 51.7328 183.689L 50.4354 182.864L 49.165 182.104L 47.9239 181.406L 46.7146 180.768L 45.5394 180.187L 44.4005 179.662L 43.2999 179.19L 42.2396 178.769L 41.2216 178.396L 40.2476 178.068L 39.3193 177.784L 38.4383 177.539L 37.6059 177.332L 36.8236 177.159L 36.0925 177.018L 35.4137 176.906L 34.7883 176.82L 34.2171 176.757L 33.7008 176.714L 33.2401 176.689L 32.8355 176.677L 32.4873 176.676L 32.1958 176.683L 31.9611 176.695L 31.7833 176.709L 31.6622 176.721L 31.5977 176.73L 25.678 177.703"/>
<path style="stroke:white; stroke-width:2; stroke-linejoin:round; stroke-linecap:round; fill:none" d="M 25.7858 212.66L 25.8318 200.44"/>
<path style="stroke:white; stroke-width:2; stroke-linejoin:round; stroke-linecap:round; fill:none" d="M 25.9396 235.398L 31.844 236.3L 31.9086 236.308L 32.0298 236.319L 32.2078 236.331L 32.4426 236.34L 32.7341 236.344L 33.0823 236.339L 33.4868 236.323L 33.9472 236.292L 34.463 236.243L 35.0334 236.174L 35.6578 236.081L 36.3353 235.961L 37.0647 235.812L 37.8451 235.631L 38.6751 235.414L 39.5533 235.16L 40.4784 234.864L 41.4486 234.526L 42.4624 234.141L 43.5178 233.708L 44.613 233.224L 45.746 232.686L 46.9146 232.092L 48.1166 231.441L 49.3497 230.729L 50.6115 229.954L 51.8995 229.115L 53.2111 228.21L 54.5437 227.236L 55.2169 226.723L 55.5551 226.46L 55.7246 226.326L 55.8095 226.259L 55.8519 226.226L 55.8731 226.209L 55.8838 226.2L 55.8849 226.198L 55.8586 221.518L 55.8574 221.516L 55.8467 221.507L 55.8253 221.491L 55.7825 221.458L 55.6969 221.391L 55.5259 221.26L 55.1847 221.001L 54.5057 220.495L 53.1623 219.537L 51.8406 218.646L 50.5432 217.821L 49.2728 217.061L 48.0317 216.363L 46.8224 215.725L 45.6472 215.144L 44.5083 214.619L 43.4077 214.148L 42.3474 213.726L 41.3294 213.353L 40.3554 213.025L 39.4271 212.741L 38.5461 212.496L 37.7137 212.289L 36.9314 212.116L 36.2003 211.975L 35.5215 211.864L 34.8961 211.778L 34.3249 211.715L 33.8086 211.672L 33.3479 211.646L 32.9433 211.634L 32.595 211.633L 32.3035 211.64L 32.0689 211.652L 31.8911 211.666L 31.77 211.679L 31.7054 211.687L 25.7858 212.66"/>
<path style="stroke:white; stroke-width:2; stroke-linejoin:round; stroke-linecap:round; fill:none" d="M 25.8936 247.617L 25.9396 235.398"/>
<path style="stroke:white; stroke-width:2; stroke-linejoin:round; stroke-linecap:round; fill:none" d="M 26.0474 270.355L 31.9518 271.257L 32.0164 271.265L 32.1376 271.276L 32.3156 271.288L 32.5504 271.298L 32.8419 271.301L 33.1901 271.297L 33.5946 271.28L 34.055 271.249L 34.5707 271.2L 35.1412 271.131L 35.7656 271.038L 36.4431 270.918L 37.1725 270.769L 37.9529 270.588L 38.7829 270.371L 39.6611 270.117L 40.5862 269.822L 41.5564 269.483L 42.5701 269.098L 43.6256 268.665L 44.7208 268.181L 45.8537 267.643L 47.0223 267.05L 48.2244 266.398L 49.4575 265.686L 50.7193 264.911L 52.0073 264.072L 53.3189 263.167L 54.6515 262.193L 55.3247 261.68L 55.6629 261.417L 55.8324 261.284L 55.9173 261.216L 55.9597 261.183L 55.9809 261.166L 55.9916 261.158L 55.9927 261.155L 55.9664 256.475L 55.9652 256.473L 55.9545 256.464L 55.9331 256.448L 55.8902 256.415L 55.8047 256.349L 55.6337 256.217L 55.2925 255.958L 54.6135 255.453L 53.2701 254.494L 51.9484 253.603L 50.651 252.779L 49.3806 252.018L 48.1395 251.32L 46.9302 250.682L 45.755 250.102L 44.6161 249.577L 43.5155 249.105L 42.4552 248.683L 41.4372 248.31L 40.4632 247.983L 39.5349 247.698L 38.6539 247.453L 37.8215 247.246L 37.0392 247.073L 36.3081 246.933L 35.6293 246.821L 35.0039 246.735L 34.4327 246.672L 33.9164 246.629L 33.4557 246.603L 33.051 246.591L 32.7028 246.59L 32.4113 246.597L 32.1767 246.609L 31.9989 246.623L 31.8778 246.636L 31.8132 246.644L 25.8936 247.617"/>
<path style="stroke:white; stroke-width:2; stroke-linejoin:round; stroke-linecap:round; fill:none" d="M 26.0014 282.575L 26.0474 270.355"/>
<path style="stroke:white; stroke-width:2; stroke-linejoin:round; stroke-linecap:round; fill:none" d="M 26.1552 305.312L 32.0596 306.215L 32.1242 306.222L 32.2454 306.234L 32.4234 306.245L 32.6582 306.255L 32.9497 306.259L 33.2979 306.254L 33.7024 306.237L 34.1628 306.206L 34.6785 306.158L 35.249 306.088L 35.8734 305.995L 36.5509 305.876L 37.2803 305.727L 38.0607 305.545L 38.8907 305.329L 39.7689 305.074L 40.694 304.779L 41.6642 304.44L 42.6779 304.056L 43.7334 303.622L 44.8286 303.138L 45.9615 302.6L 47.1301 302.007L 48.3322 301.355L 49.5653 300.643L 50.8271 299.868L 52.1151 299.029L 53.4267 298.124L 54.7592 297.15L 55.4325 296.637L 55.7707 296.374L 55.9402 296.241L 56.0251 296.174L 56.0675 296.14L 56.0887 296.123L 56.0993 296.115L 56.1005 296.113L 56.0742 291.432L 56.073 291.43L 56.0623 291.422L 56.0409 291.405L 55.998 291.372L 55.9124 291.306L 55.7415 291.174L 55.4003 290.915L 54.7213 290.41L 53.3779 289.451L 52.0562 288.56L 50.7588 287.736L 49.4883 286.976L 48.2473 286.277L 47.038 285.639L 45.8628 285.059L 44.7239 284.534L 43.6233 284.062L 42.563 283.641L 41.545 283.268L 40.571 282.94L 39.6427 282.655L 38.7617 282.41L 37.9293 282.203L 37.1469 282.031L 36.4159 281.89L 35.7371 281.778L 35.1117 281.692L 34.5405 281.629L 34.0242 281.586L 33.5635 281.56L 33.1588 281.548L 32.8106 281.547L 32.5191 281.554L 32.2845 281.566L 32.1067 281.58L 31.9856 281.593L 31.921 281.601L 26.0014 282.575"/>
<path style="stroke:white; stroke-width:2; stroke-linejoin:round; stroke-linecap:round; fill:none" d="M 26.1092 317.532L 26.1552 305.312"/>
<path style="stroke:white; stroke-width:2; stroke-linejoin:round; stroke-linecap:round; fill:none" d="M 26.263 340.269L 32.1674 341.172L 32.232 341.18L 32.3532 341.191L 32.5312 341.203L 32.766 341.212L 33.0575 341.216L 33.4057 341.211L 33.8102 341.195L 34.2706 341.163L 34.7863 341.115L 35.3568 341.045L 35.9812 340.952L 36.6587 340.833L 37.3881 340.684L 38.1685 340.502L 38.9984 340.286L 39.8767 340.031L 40.8017 339.736L 41.772 339.397L 42.7857 339.013L 43.8412 338.58L 44.9364 338.095L 46.0693 337.558L 47.2379 336.964L 48.4399 336.312L 49.6731 335.6L 50.9349 334.826L 52.2229 333.987L 53.5345 333.081L 54.867 332.107L 55.5403 331.594L 55.8785 331.331L 56.048 331.198L 56.1329 331.131L 56.1753 331.097L 56.1965 331.08L 56.2071 331.072L 56.2083 331.07L 56.1819 326.389L 56.1808 326.387L 56.1701 326.379L 56.1486 326.362L 56.1058 326.329L 56.0202 326.263L 55.8493 326.132L 55.5081 325.872L 54.8291 325.367L 53.4857 324.408L 52.164 323.518L 50.8666 322.693L 49.5961 321.933L 48.3551 321.235L 47.1458 320.596L 45.9706 320.016L 44.8316 319.491L 43.7311 319.019L 42.6708 318.598L 41.6528 318.225L 40.6788 317.897L 39.7505 317.612L 38.8694 317.368L 38.0371 317.16L 37.2547 316.988L 36.5236 316.847L 35.8449 316.735L 35.2195 316.649L 34.6483 316.586L 34.132 316.543L 33.6713 316.517L 33.2666 316.505L 32.9184 316.505L 32.6269 316.512L 32.3923 316.524L 32.2145 316.537L 32.0934 316.55L 32.0288 316.559L 26.1092 317.532"/>
<path style="stroke:white; stroke-width:2; stroke-linejoin:round; stroke-linecap:round; fill:none" d="M 26.2169 352.489L 26.263 340.269"/>
<path style="stroke:white; stroke-width:2; stroke-linejoin:round; stroke-linecap:round; fill:none" d="M 26.3708 375.226L 32.2752 376.129L 32.3398 376.137L 32.461 376.148L 32.639 376.16L 32.8737 376.169L 33.1653 376.173L 33.5135 376.168L 33.918 376.152L 34.3784 376.121L 34.8941 376.072L 35.4646 376.003L 36.089 375.91L 36.7664 375.79L 37.4959 375.641L 38.2763 375.46L 39.1062 375.243L 39.9845 374.988L 40.9095 374.693L 41.8798 374.355L 42.8935 373.97L 43.949 373.537L 45.0442 373.053L 46.1771 372.515L 47.3457 371.921L 48.5477 371.27L 49.7809 370.557L 51.0427 369.783L 52.3307 368.944L 53.6423 368.038L 54.9748 367.065L 55.6481 366.552L 55.9863 366.288L 56.1558 366.155L 56.2407 366.088L 56.2831 366.054L 56.3043 366.038L 56.3149 366.029L 56.3161 366.027L 56.2897 361.346L 56.2886 361.344L 56.2779 361.336L 56.2564 361.319L 56.2136 361.286L 56.128 361.22L 55.9571 361.089L 55.6159 360.83L 54.9369 360.324L 53.5935 359.365L 52.2717 358.475L 50.9744 357.65L 49.7039 356.89L 48.4629 356.192L 47.2536 355.554L 46.0784 354.973L 44.9394 354.448L 43.8389 353.976L 42.7786 353.555L 41.7606 353.182L 40.7866 352.854L 39.8583 352.569L 38.9772 352.325L 38.1449 352.118L 37.3625 351.945L 36.6314 351.804L 35.9527 351.692L 35.3273 351.606L 34.7561 351.543L 34.2398 351.5L 33.7791 351.475L 33.3744 351.463L 33.0262 351.462L 32.7347 351.469L 32.5001 351.481L 32.3222 351.495L 32.2012 351.507L 32.1366 351.516L 26.2169 352.489"/>
<path style="stroke:white; stroke-width:2; stroke-linejoin:round; stroke-linecap:round; fill:none" d="M 26.3247 387.446L 26.3708 375.226"/>
<path style="stroke:white; stroke-width:2; stroke-linejoin:round; stroke-linecap:round; fill:none" d="M 26.4786 410.184L 32.3829 411.086L 32.4476 411.094L 32.5688 411.105L 32.7468 411.117L 32.9815 411.126L 33.2731 411.13L 33.6213 411.125L 34.0258 411.109L 34.4862 411.078L 35.0019 411.029L 35.5724 410.96L 36.1968 410.867L 36.8742 410.747L 37.6037 410.598L 38.3841 410.417L 39.214 410.2L 40.0923 409.946L 41.0173 409.65L 41.9876 409.312L 43.0013 408.927L 44.0567 408.494L 45.152 408.01L 46.2849 407.472L 47.4535 406.878L 48.6555 406.227L 49.8887 405.515L 51.1505 404.74L 52.4385 403.901L 53.7501 402.996L 55.0826 402.022L 55.7559 401.509L 56.0941 401.246L 56.2636 401.112L 56.3484 401.045L 56.3909 401.012L 56.4121 400.995L 56.4227 400.986L 56.4239 400.984L 56.3975 396.304L 56.3964 396.302L 56.3856 396.293L 56.3642 396.277L 56.3214 396.243L 56.2358 396.177L 56.0648 396.046L 55.7237 395.787L 55.0447 395.281L 53.7013 394.323L 52.3795 393.432L 51.0822 392.607L 49.8117 391.847L 48.5707 391.149L 47.3614 390.511L 46.1862 389.93L 45.0472 389.405L 43.9466 388.934L 42.8864 388.512L 41.8684 388.139L 40.8944 387.811L 39.9661 387.527L 39.085 387.282L 38.2527 387.075L 37.4703 386.902L 36.7392 386.761L 36.0605 386.65L 35.4351 386.564L 34.8639 386.501L 34.3476 386.458L 33.8869 386.432L 33.4822 386.42L 33.134 386.419L 32.8425 386.426L 32.6078 386.438L 32.43 386.452L 32.309 386.465L 32.2444 386.473L 26.3247 387.446"/>
<path style="stroke:white; stroke-width:2; stroke-linejoin:round; stroke-linecap:round; fill:none" d="M 26.4325 422.403L 26.4786 410.184"/>
<path style="stroke:white; stroke-width:2; stroke-linejoin:round; stroke-linecap:round; fill:none" d="M 26.5864 445.141L 32.4907 446.043L 32.5554 446.051L 32.6766 446.062L 32.8546 446.074L 33.0893 446.084L 33.3809 446.087L 33.7291 446.083L 34.1336 446.066L 34.5939 446.035L 35.1097 445.986L 35.6802 445.917L 36.3046 445.824L 36.982 445.704L 37.7115 445.555L 38.4918 445.374L 39.3218 445.157L 40.2001 444.903L 41.1251 444.608L 42.0954 444.269L 43.1091 443.884L 44.1645 443.451L 45.2597 442.967L 46.3927 442.429L 47.5613 441.836L 48.7633 441.184L 49.9964 440.472L 51.2583 439.697L 52.5463 438.858L 53.8579 437.953L 55.1904 436.979L 55.8637 436.466L 56.2019 436.203L 56.3714 436.07L 56.4562 436.002L 56.4987 435.969L 56.5199 435.952L 56.5305 435.944L 56.5317 435.941L 56.5053 431.261L 56.5041 431.259L 56.4934 431.25L 56.472 431.234L 56.4292 431.201L 56.3436 431.135L 56.1726 431.003L 55.8315 430.744L 55.1525 430.238L 53.8091 429.28L 52.4873 428.389L 51.19 427.565L 49.9195 426.804L 48.6785 426.106L 47.4692 425.468L 46.294 424.888L 45.155 424.363L 44.0544 423.891L 42.9942 423.469L 41.9762 423.096L 41.0022 422.769L 40.0739 422.484L 39.1928 422.239L 38.3605 422.032L 37.5781 421.859L 36.847 421.719L 36.1683 421.607L 35.5429 421.521L 34.9716 421.458L 34.4554 421.415L 33.9947 421.389L 33.59 421.377L 33.2418 421.376L 32.9503 421.383L 32.7156 421.395L 32.5378 421.409L 32.4168 421.422L 32.3522 421.43L 26.4325 422.403"/>
<path style="stroke:white; stroke-width:2; stroke-linejoin:round; stroke-linecap:round; fill:none" d="M 26.5403 457.361L 26.5864 445.141"/>
<path style="stroke:white; stroke-width:2; stroke-linejoin:round; stroke-linecap:round; fill:none" d="M 26.6942 480.098L 32.5985 481.001L 32.6632 481.008L 32.7844 481.02L 32.9623 481.031L 33.1971 481.041L 33.4887 481.045L 33.8369 481.04L 34.2413 481.023L 34.7017 480.992L 35.2175 480.944L 35.788 480.874L 36.4124 480.781L 37.0898 480.662L 37.8193 480.512L 38.5996 480.331L 39.4296 480.115L 40.3079 479.86L 41.2329 479.565L 42.2032 479.226L 43.2169 478.842L 44.2723 478.408L 45.3675 477.924L 46.5005 477.386L 47.6691 476.793L 48.8711 476.141L 50.1042 475.429L 51.3661 474.654L 52.6541 473.815L 53.9657 472.91L 55.2982 471.936L 55.9715 471.423L 56.3097 471.16L 56.4792 471.027L 56.564 470.96L 56.6065 470.926L 56.6277 470.909L 56.6383 470.901L 56.6395 470.899L 56.6131 466.218L 56.6119 466.216L 56.6012 466.208L 56.5798 466.191L 56.537 466.158L 56.4514 466.092L 56.2804 465.96L 55.9393 465.701L 55.2603 465.196L 53.9168 464.237L 52.5951 463.346L 51.2978 462.522L 50.0273 461.762L 48.7862 461.063L 47.577 460.425L 46.4018 459.845L 45.2628 459.32L 44.1622 458.848L 43.102 458.427L 42.084 458.054L 41.11 457.726L 40.1817 457.441L 39.3006 457.196L 38.4683 456.989L 37.6859 456.817L 36.9548 456.676L 36.2761 456.564L 35.6507 456.478L 35.0794 456.415L 34.5632 456.372L 34.1024 456.346L 33.6978 456.334L 33.3496 456.333L 33.0581 456.34L 32.8234 456.352L 32.6456 456.366L 32.5246 456.379L 32.46 456.387L 26.5403 457.361"/>
<path style="stroke:white; stroke-width:2; stroke-linejoin:round; stroke-linecap:round; fill:none" d="M 26.6481 492.318L 26.6942 480.098"/>
<path style="stroke:white; stroke-width:2; stroke-linejoin:round; stroke-linecap:round; fill:none" d="M 26.802 515.055L 32.7063 515.958L 32.771 515.966L 32.8922 515.977L 33.0701 515.989L 33.3049 515.998L 33.5965 516.002L 33.9447 515.997L 34.3491 515.981L 34.8095 515.949L 35.3253 515.901L 35.8958 515.831L 36.5202 515.738L 37.1976 515.619L 37.9271 515.47L 38.7074 515.288L 39.5374 515.072L 40.4157 514.817L 41.3407 514.522L 42.3109 514.183L 43.3247 513.799L 44.3801 513.366L 45.4753 512.881L 46.6083 512.344L 47.7769 511.75L 48.9789 511.098L 50.212 510.386L 51.4738 509.612L 52.7618 508.773L 54.0735 507.867L 55.406 506.893L 56.0793 506.38L 56.4175 506.117L 56.587 505.984L 56.6718 505.917L 56.7143 505.883L 56.7355 505.866L 56.7461 505.858L 56.7473 505.856L 56.7209 501.175L 56.7197 501.173L 56.709 501.165L 56.6876 501.148L 56.6448 501.115L 56.5592 501.049L 56.3882 500.918L 56.0471 500.658L 55.3681 500.153L 54.0246 499.194L 52.7029 498.304L 51.4056 497.479L 50.1351 496.719L 48.894 496.021L 47.6848 495.382L 46.5096 494.802L 45.3706 494.277L 44.27 493.805L 43.2098 493.384L 42.1918 493.011L 41.2178 492.683L 40.2895 492.398L 39.4084 492.154L 38.576 491.946L 37.7937 491.774L 37.0626 491.633L 36.3839 491.521L 35.7584 491.435L 35.1872 491.372L 34.671 491.329L 34.2102 491.303L 33.8056 491.291L 33.4574 491.291L 33.1659 491.298L 32.9312 491.31L 32.7534 491.323L 32.6323 491.336L 32.5678 491.345L 26.6481 492.318"/>
<path style="stroke:white; stroke-width:2; stroke-linejoin:round; stroke-linecap:round; fill:none" d="M 26.7559 527.275L 26.802 515.055"/>
<path style="stroke:white; stroke-width:2; stroke-linejoin:round; stroke-linecap:round; fill:none" d="M 26.9098 550.012L 32.8141 550.915L 32.8788 550.923L 33 550.934L 33.1779 550.946L 33.4127 550.955L 33.7043 550.959L 34.0524 550.954L 34.4569 550.938L 34.9173 550.907L 35.4331 550.858L 36.0036 550.789L 36.628 550.696L 37.3054 550.576L 38.0349 550.427L 38.8152 550.245L 39.6452 550.029L 40.5235 549.774L 41.4485 549.479L 42.4187 549.141L 43.4325 548.756L 44.4879 548.323L 45.5831 547.839L 46.7161 547.301L 47.8847 546.707L 49.0867 546.056L 50.3198 545.343L 51.5816 544.569L 52.8696 543.73L 54.1812 542.824L 55.5138 541.851L 56.1871 541.338L 56.5253 541.074L 56.6948 540.941L 56.7796 540.874L 56.8221 540.84L 56.8433 540.824L 56.8539 540.815L 56.855 540.813L 56.8287 536.132L 56.8275 536.13L 56.8168 536.122L 56.7954 536.105L 56.7526 536.072L 56.667 536.006L 56.496 535.875L 56.1548 535.616L 55.4759 535.11L 54.1324 534.151L 52.8107 533.261L 51.5133 532.436L 50.2429 531.676L 49.0018 530.978L 47.7926 530.34L 46.6173 529.759L 45.4784 529.234L 44.3778 528.762L 43.3176 528.341L 42.2996 527.968L 41.3256 527.64L 40.3973 527.355L 39.5162 527.111L 38.6838 526.904L 37.9015 526.731L 37.1704 526.59L 36.4917 526.478L 35.8662 526.392L 35.295 526.329L 34.7787 526.286L 34.318 526.26L 33.9134 526.249L 33.5652 526.248L 33.2737 526.255L 33.039 526.267L 32.8612 526.281L 32.7401 526.293L 32.6756 526.302L 26.7559 527.275"/>
<path style="stroke:white; stroke-width:2; stroke-linejoin:round; stroke-linecap:round; fill:none" d="M 26.8637 562.232L 26.9098 550.012"/>
<path style="stroke:white; stroke-width:2; stroke-linejoin:round; stroke-linecap:round; fill:none" d="M 27.0176 584.97L 32.9219 585.872L 32.9866 585.88L 33.1078 585.891L 33.2857 585.903L 33.5205 585.912L 33.8121 585.916L 34.1602 585.911L 34.5647 585.895L 35.0251 585.864L 35.5409 585.815L 36.1114 585.746L 36.7358 585.653L 37.4132 585.533L 38.1427 585.384L 38.923 585.203L 39.753 584.986L 40.6312 584.732L 41.5563 584.436L 42.5265 584.098L 43.5403 583.713L 44.5957 583.28L 45.6909 582.796L 46.8239 582.258L 47.9925 581.664L 49.1945 581.013L 50.4276 580.301L 51.6894 579.526L 52.9774 578.687L 54.289 577.782L 55.6216 576.808L 56.2948 576.295L 56.6331 576.032L 56.8026 575.898L 56.8874 575.831L 56.9298 575.798L 56.9511 575.781L 56.9617 575.772L 56.9628 575.77L 56.9365 571.09L 56.9353 571.088L 56.9246 571.079L 56.9032 571.063L 56.8604 571.03L 56.7748 570.963L 56.6038 570.832L 56.2626 570.573L 55.5836 570.067L 54.2402 569.109L 52.9185 568.218L 51.6211 567.393L 50.3507 566.633L 49.1096 565.935L 47.9004 565.297L 46.7251 564.716L 45.5862 564.191L 44.4856 563.72L 43.4254 563.298L 42.4074 562.925L 41.4334 562.597L 40.5051 562.313L 39.624 562.068L 38.7916 561.861L 38.0093 561.688L 37.2782 561.547L 36.5994 561.436L 35.974 561.349L 35.4028 561.287L 34.8865 561.244L 34.4258 561.218L 34.0212 561.206L 33.673 561.205L 33.3815 561.212L 33.1468 561.224L 32.969 561.238L 32.8479 561.25L 32.7834 561.259L 26.8637 562.232"/>
<path style="stroke:white; stroke-width:2; stroke-linejoin:round; stroke-linecap:round; fill:none" d="M 26.9715 597.189L 27.0176 584.97"/>
<path style="stroke:white; stroke-width:2; stroke-linejoin:round; stroke-linecap:round; fill:none" d="M 27.1253 619.927L 33.0297 620.829L 33.0944 620.837L 33.2156 620.848L 33.3935 620.86L 33.6283 620.87L 33.9199 620.873L 34.268 620.869L 34.6725 620.852L 35.1329 620.821L 35.6487 620.772L 36.2192 620.703L 36.8436 620.61L 37.521 620.49L 38.2505 620.341L 39.0308 620.16L 39.8608 619.943L 40.739 619.689L 41.6641 619.394L 42.6343 619.055L 43.6481 618.67L 44.7035 618.237L 45.7987 617.753L 46.9317 617.215L 48.1003 616.622L 49.3023 615.97L 50.5354 615.258L 51.7972 614.483L 53.0852 613.644L 54.3968 612.739L 55.7294 611.765L 56.4026 611.252L 56.7409 610.989L 56.9104 610.856L 56.9952 610.788L 57.0376 610.755L 57.0589 610.738L 57.0695 610.73L 57.0706 610.727L 57.0443 606.047L 57.0431 606.045L 57.0324 606.036L 57.011 606.02L 56.9682 605.987L 56.8826 605.921L 56.7116 605.789L 56.3704 605.53L 55.6914 605.025L 54.348 604.066L 53.0263 603.175L 51.7289 602.351L 50.4585 601.59L 49.2174 600.892L 48.0081 600.254L 46.8329 599.674L 45.694 599.149L 44.5934 598.677L 43.5332 598.255L 42.5152 597.882L 41.5412 597.555L 40.6128 597.27L 39.7318 597.025L 38.8994 596.818L 38.1171 596.646L 37.386 596.505L 36.7072 596.393L 36.0818 596.307L 35.5106 596.244L 34.9943 596.201L 34.5336 596.175L 34.129 596.163L 33.7808 596.162L 33.4893 596.169L 33.2546 596.181L 33.0768 596.195L 32.9557 596.208L 32.8912 596.216L 26.9715 597.189"/>
<path style="stroke:white; stroke-width:2; stroke-linejoin:round; stroke-linecap:round; fill:none" d="M 27.0793 632.147L 27.1253 619.927"/>
<path style="stroke:white; stroke-width:2; stroke-linejoin:round; stroke-linecap:round; fill:none" d="M 27.2331 654.884L 33.1375 655.787L 33.2022 655.794L 33.3234 655.806L 33.5013 655.818L 33.7361 655.827L 34.0276 655.831L 34.3758 655.826L 34.7803 655.809L 35.2407 655.778L 35.7565 655.73L 36.3269 655.66L 36.9513 655.567L 37.6288 655.448L 38.3582 655.298L 39.1386 655.117L 39.9686 654.901L 40.8468 654.646L 41.7719 654.351L 42.7421 654.012L 43.7559 653.628L 44.8113 653.194L 45.9065 652.71L 47.0395 652.172L 48.2081 651.579L 49.4101 650.927L 50.6432 650.215L 51.905 649.44L 53.193 648.601L 54.5046 647.696L 55.8372 646.722L 56.5104 646.209L 56.8487 645.946L 57.0182 645.813L 57.103 645.746L 57.1454 645.712L 57.1667 645.695L 57.1773 645.687L 57.1784 645.685L 57.1521 641.004L 57.1509 641.002L 57.1402 640.994L 57.1188 640.977L 57.076 640.944L 56.9904 640.878L 56.8194 640.746L 56.4782 640.487L 55.7992 639.982L 54.4558 639.023L 53.1341 638.132L 51.8367 637.308L 50.5663 636.547L 49.3252 635.849L 48.1159 635.211L 46.9407 634.631L 45.8018 634.106L 44.7012 633.634L 43.6409 633.213L 42.6229 632.84L 41.6489 632.512L 40.7206 632.227L 39.8396 631.982L 39.0072 631.775L 38.2249 631.603L 37.4938 631.462L 36.815 631.35L 36.1896 631.264L 35.6184 631.201L 35.1021 631.158L 34.6414 631.132L 34.2368 631.12L 33.8886 631.119L 33.5971 631.126L 33.3624 631.138L 33.1846 631.152L 33.0635 631.165L 32.999 631.173L 27.0793 632.147"/>
<path style="stroke:white; stroke-width:2; stroke-linejoin:round; stroke-linecap:round; fill:none" d="M 27.1871 667.104L 27.2331 654.884"/>
<path style="stroke:white; stroke-width:2; stroke-linejoin:round; stroke-linecap:round; fill:none" d="M 27.3409 689.841L 33.2453 690.744L 33.3099 690.752L 33.4311 690.763L 33.6091 690.775L 33.8439 690.784L 34.1354 690.788L 34.4836 690.783L 34.8881 690.767L 35.3485 690.735L 35.8643 690.687L 36.4347 690.617L 37.0591 690.524L 37.7366 690.405L 38.466 690.256L 39.2464 690.074L 40.0764 689.858L 40.9546 689.603L 41.8797 689.308L 42.8499 688.969L 43.8637 688.585L 44.9191 688.152L 46.0143 687.667L 47.1473 687.13L 48.3159 686.536L 49.5179 685.884L 50.751 685.172L 52.0128 684.398L 53.3008 683.559L 54.6124 682.653L 55.945 681.679L 56.6182 681.166L 56.9565 680.903L 57.1259 680.77L 57.2108 680.703L 57.2532 680.669L 57.2745 680.652L 57.2851 680.644L 57.2862 680.642L 57.2599 675.961L 57.2587 675.959L 57.248 675.951L 57.2266 675.934L 57.1838 675.901L 57.0982 675.835L 56.9272 675.704L 56.586 675.444L 55.907 674.939L 54.5636 673.98L 53.2419 673.09L 51.9445 672.265L 50.6741 671.505L 49.433 670.807L 48.2237 670.168L 47.0485 669.588L 45.9096 669.063L 44.809 668.591L 43.7487 668.17L 42.7307 667.797L 41.7567 667.469L 40.8284 667.184L 39.9474 666.94L 39.115 666.732L 38.3327 666.56L 37.6016 666.419L 36.9228 666.307L 36.2974 666.221L 35.7262 666.158L 35.2099 666.115L 34.7492 666.089L 34.3446 666.077L 33.9963 666.077L 33.7048 666.084L 33.4702 666.096L 33.2924 666.109L 33.1713 666.122L 33.1067 666.131L 27.1871 667.104"/>
<path style="stroke:white; stroke-width:2; stroke-linejoin:round; stroke-linecap:round; fill:none" d="M 27.2949 702.061L 27.3409 689.841"/>
<path style="stroke:white; stroke-width:2; stroke-linejoin:round; stroke-linecap:round; fill:none" d="M 27.4487 724.798L 33.3531 725.701L 33.4177 725.709L 33.5389 725.72L 33.7169 725.732L 33.9517 725.741L 34.2432 725.745L 34.5914 725.74L 34.9959 725.724L 35.4563 725.693L 35.9721 725.644L 36.5425 725.575L 37.1669 725.482L 37.8444 725.362L 38.5738 725.213L 39.3542 725.031L 40.1842 724.815L 41.0624 724.56L 41.9875 724.265L 42.9577 723.927L 43.9715 723.542L 45.0269 723.109L 46.1221 722.625L 47.2551 722.087L 48.4236 721.493L 49.6257 720.842L 50.8588 720.129L 52.1206 719.355L 53.4086 718.516L 54.7202 717.61L 56.0528 716.637L 56.726 716.124L 57.0642 715.86L 57.2337 715.727L 57.3186 715.66L 57.361 715.626L 57.3822 715.61L 57.3929 715.601L 57.394 715.599L 57.3677 710.918L 57.3665 710.916L 57.3558 710.908L 57.3344 710.891L 57.2915 710.858L 57.206 710.792L 57.035 710.661L 56.6938 710.402L 56.0148 709.896L 54.6714 708.937L 53.3497 708.047L 52.0523 707.222L 50.7819 706.462L 49.5408 705.764L 48.3315 705.126L 47.1563 704.545L 46.0174 704.02L 44.9168 703.548L 43.8565 703.127L 42.8385 702.754L 41.8645 702.426L 40.9362 702.141L 40.0552 701.897L 39.2228 701.69L 38.4405 701.517L 37.7094 701.376L 37.0306 701.264L 36.4052 701.178L 35.834 701.115L 35.3177 701.072L 34.857 701.047L 34.4523 701.035L 34.1041 701.034L 33.8126 701.041L 33.578 701.053L 33.4002 701.067L 33.2791 701.079L 33.2145 701.088L 27.2949 702.061"/>
<path style="stroke:white; stroke-width:2; stroke-linejoin:round; stroke-linecap:round; fill:none" d="M 27.4027 737.018L 27.4487 724.798"/>
<path style="stroke:white; stroke-width:2; stroke-linejoin:round; stroke-linecap:round; fill:none" d="M 27.5565 759.756L 33.4609 760.658L 33.5255 760.666L 33.6467 760.677L 33.8247 760.689L 34.0595 760.698L 34.351 760.702L 34.6992 760.697L 35.1037 760.681L 35.5641 760.65L 36.0798 760.601L 36.6503 760.532L 37.2747 760.439L 37.9522 760.319L 38.6816 760.17L 39.462 759.989L 40.292 759.772L 41.1702 759.518L 42.0953 759.222L 43.0655 758.884L 44.0792 758.499L 45.1347 758.066L 46.2299 757.582L 47.3628 757.044L 48.5314 756.451L 49.7335 755.799L 50.9666 755.087L 52.2284 754.312L 53.5164 753.473L 54.828 752.568L 56.1605 751.594L 56.8338 751.081L 57.172 750.818L 57.3415 750.684L 57.4264 750.617L 57.4688 750.584L 57.49 750.567L 57.5007 750.558L 57.5018 750.556L 57.4755 745.876L 57.4743 745.874L 57.4636 745.865L 57.4422 745.849L 57.3993 745.815L 57.3138 745.749L 57.1428 745.618L 56.8016 745.359L 56.1226 744.853L 54.7792 743.895L 53.4575 743.004L 52.1601 742.179L 50.8896 741.419L 49.6486 740.721L 48.4393 740.083L 47.2641 739.502L 46.1252 738.977L 45.0246 738.506L 43.9643 738.084L 42.9463 737.711L 41.9723 737.383L 41.044 737.099L 40.163 736.854L 39.3306 736.647L 38.5482 736.474L 37.8172 736.333L 37.1384 736.221L 36.513 736.135L 35.9418 736.073L 35.4255 736.03L 34.9648 736.004L 34.5601 735.992L 34.2119 735.991L 33.9204 735.998L 33.6858 736.01L 33.508 736.024L 33.3869 736.036L 33.3223 736.045L 27.4027 737.018"/>
<path style="stroke:white; stroke-width:2; stroke-linejoin:round; stroke-linecap:round; fill:none" d="M 27.5105 771.975L 27.5565 759.756"/>
<path style="stroke:white; stroke-width:2; stroke-linejoin:round; stroke-linecap:round; fill:none" d="M 27.6643 794.713L 33.5687 795.615L 33.6333 795.623L 33.7545 795.634L 33.9325 795.646L 34.1673 795.656L 34.4588 795.659L 34.807 795.655L 35.2115 795.638L 35.6719 795.607L 36.1876 795.558L 36.7581 795.489L 37.3825 795.396L 38.06 795.276L 38.7894 795.127L 39.5698 794.946L 40.3997 794.729L 41.278 794.475L 42.203 794.18L 43.1733 793.841L 44.187 793.456L 45.2425 793.023L 46.3377 792.539L 47.4706 792.001L 48.6392 791.408L 49.8413 790.756L 51.0744 790.044L 52.3362 789.269L 53.6242 788.43L 54.9358 787.525L 56.2683 786.551L 56.9416 786.038L 57.2798 785.775L 57.4493 785.641L 57.5342 785.574L 57.5766 785.541L 57.5978 785.524L 57.6084 785.516L 57.6096 785.513L 57.5833 780.833L 57.5821 780.831L 57.5714 780.822L 57.5499 780.806L 57.5071 780.773L 57.4215 780.707L 57.2506 780.575L 56.9094 780.316L 56.2304 779.81L 54.887 778.852L 53.5653 777.961L 52.2679 777.137L 50.9974 776.376L 49.7564 775.678L 48.5471 775.04L 47.3719 774.46L 46.233 773.935L 45.1324 773.463L 44.0721 773.042L 43.0541 772.668L 42.0801 772.341L 41.1518 772.056L 40.2707 771.811L 39.4384 771.604L 38.656 771.431L 37.9249 771.291L 37.2462 771.179L 36.6208 771.093L 36.0496 771.03L 35.5333 770.987L 35.0726 770.961L 34.6679 770.949L 34.3197 770.948L 34.0282 770.955L 33.7936 770.967L 33.6158 770.981L 33.4947 770.994L 33.4301 771.002L 27.5105 771.975"/>
<path style="stroke:white; stroke-width:2; stroke-linejoin:round; stroke-linecap:round; fill:none" d="M 27.6182 806.933L 27.6643 794.713"/>
<path style="stroke:white; stroke-width:2; stroke-linejoin:round; stroke-linecap:round; fill:none" d="M 27.7721 829.67L 33.6765 830.573L 33.7411 830.58L 33.8623 830.592L 34.0403 830.603L 34.2751 830.613L 34.5666 830.617L 34.9148 830.612L 35.3193 830.595L 35.7797 830.564L 36.2954 830.516L 36.8659 830.446L 37.4903 830.353L 38.1678 830.234L 38.8972 830.084L 39.6776 829.903L 40.5075 829.687L 41.3858 829.432L 42.3108 829.137L 43.2811 828.798L 44.2948 828.414L 45.3503 827.98L 46.4455 827.496L 47.5784 826.958L 48.747 826.365L 49.949 825.713L 51.1822 825.001L 52.444 824.227L 53.732 823.387L 55.0436 822.482L 56.3761 821.508L 57.0494 820.995L 57.3876 820.732L 57.5571 820.599L 57.642 820.532L 57.6844 820.498L 57.7056 820.481L 57.7162 820.473L 57.7174 820.471L 57.691 815.79L 57.6899 815.788L 57.6792 815.78L 57.6577 815.763L 57.6149 815.73L 57.5293 815.664L 57.3584 815.532L 57.0172 815.273L 56.3382 814.768L 54.9948 813.809L 53.673 812.918L 52.3757 812.094L 51.1052 811.333L 49.8642 810.635L 48.6549 809.997L 47.4797 809.417L 46.3407 808.892L 45.2402 808.42L 44.1799 807.999L 43.1619 807.626L 42.1879 807.298L 41.2596 807.013L 40.3785 806.768L 39.5462 806.561L 38.7638 806.389L 38.0327 806.248L 37.354 806.136L 36.7286 806.05L 36.1574 805.987L 35.6411 805.944L 35.1804 805.918L 34.7757 805.906L 34.4275 805.905L 34.136 805.912L 33.9014 805.924L 33.7235 805.938L 33.6025 805.951L 33.5379 805.959L 27.6182 806.933"/>
<path style="stroke:white; stroke-width:2; stroke-linejoin:round; stroke-linecap:round; fill:none" d="M 25.139 2.91699L 0 2.91699"/>
<path style="stroke:white; stroke-width:2; stroke-linejoin:round; stroke-linecap:round; fill:none" d="M 0 2.91699L 5.68434e-14 829.67"/>
<path style="stroke:white; stroke-width:2; stroke-linejoin:round; stroke-linecap:round; fill:none" d="M 27.7721 829.67L 5.68434e-14 829.67"/>
</g>
</svg>