<?xml version="1.0" encoding="utf-8"?>
<svg xmlns="http://www.w3.org/2000/svg" viewBox="-122.3407 -122.3407 244.6815 244.6815" width="244.681px" height="244.681px">
  <path id="gearpoly0" data-id="0" class="gear" fill="none" stroke="white" stroke-width="3" stroke-miterlimit="10" d="M71.25,0 89.1142222,-0.0001579 89.2667397,-0.0067676 89.5878628,-0.0340698 90.0757549,-0.0967592 90.7276197,-0.2093959 91.5397105,-0.3863492 92.5073416,-0.6417431 93.6249036,-0.9894011 94.8858812,-1.4427937 96.2828735,-2.0149847 97.8076183,-2.7185809 99.451018,-3.5656811 101.2031688,-4.5678282 103.0533926,-5.7359618 104.9902712,-7.0803729 107.0016831,-8.6106609 109.0748425,-10.3356916 111.196341,-12.2635584 113.3521906,-14.4015448 115.52787,-16.7560902 117.7083714,-19.3327571 119.8782501,-22.1362017 122.0216754,-25.1701469 122.2869417,-25.5657454 122.3200516,-25.6154518 122.3366025,-25.6403264 122.340732,-25.6465456 120.8711963,-31.8614798 120.8647188,-31.865191 120.8387802,-31.8800188 120.7869149,-31.9096326 120.3725652,-32.1445344 117.097329,-33.8972245 113.9016737,-35.4319761 110.7980864,-36.759208 107.7982908,-37.8900002 104.9132141,-38.8360479 102.152956,-39.609612 99.5267611,-40.2234695 97.042993,-40.6908617 94.709113,-41.0254421 92.5316596,-41.241222 90.5162329,-41.3525167 88.6674808,-41.3738895 86.9890885,-41.3200964 85.4837716,-41.2060297 84.1532714,-41.0466613 82.9983539,-40.8569863 82.0188117,-40.6519665 81.2134691,-40.446474 80.5801899,-40.2552354 80.1158886,-40.0927765 79.8165443,-39.9733677 79.6772179,-39.9109702 63.7047218,-31.9103575 50.3813582,-50.3813582 63.0131592,-63.0133825 63.1163316,-63.1259024 63.3240944,-63.3722763 63.624758,-63.7615962 64.0060499,-64.3021804 64.4551598,-65.0015402 64.9587877,-65.8663494 65.503192,-66.9024165 66.0742408,-68.1146592 66.6574634,-69.5070821 67.2381032,-71.0827571 67.8011719,-72.8438065 68.3315046,-74.7913892 68.8138153,-76.9256902 69.232753,-79.2459124 69.572959,-81.7502724 69.8191231,-84.4359984 69.9560414,-87.299332 69.9686727,-90.3355327 69.8421953,-93.5388853 69.562064,-96.9027113 69.1140653,-100.4193819 68.4843725,-104.0803357 68.3922138,-104.5476377 68.3804783,-104.6061977 68.3745925,-104.6354899 68.3731148,-104.6428075 62.9393742,-107.998311 62.9321697,-107.9963549 62.9033434,-107.9884984 62.845729,-107.9727642 62.3866389,-107.8458754 58.8313581,-106.7692727 55.4864553,-105.5948365 52.353393,-104.3387634 49.4326263,-103.0171785 46.7236123,-101.6460779 44.2248227,-100.2412732 41.9337596,-98.8183357 39.8469742,-97.3925427 37.9600877,-95.9788243 36.2678162,-94.5917117 34.7639971,-93.2452871 33.4416191,-91.9531348 32.292854,-90.7282948 31.3090915,-89.5832177 30.4809763,-88.5297214 29.7984468,-87.578951 29.2507768,-86.7413391 28.8266187,-86.0265708 28.5140488,-85.4435486 28.300614,-85.0003622 28.1733804,-84.7042591 28.1189834,-84.5616188 22.4820107,-67.610071 0,-71.25 -0.0001579,-89.1142222 -0.0067676,-89.2667397 -0.0340698,-89.5878628 -0.0967592,-90.0757549 -0.2093959,-90.7276197 -0.3863492,-91.5397105 -0.6417431,-92.5073416 -0.9894011,-93.6249036 -1.4427937,-94.8858812 -2.0149847,-96.2828735 -2.7185809,-97.8076183 -3.5656811,-99.451018 -4.5678282,-101.2031688 -5.7359618,-103.0533926 -7.0803729,-104.9902712 -8.6106609,-107.0016831 -10.3356916,-109.0748425 -12.2635584,-111.196341 -14.4015448,-113.3521906 -16.7560902,-115.52787 -19.3327571,-117.7083714 -22.1362017,-119.8782501 -25.1701469,-122.0216754 -25.5657454,-122.2869417 -25.6154518,-122.3200516 -25.6403264,-122.3366025 -25.6465456,-122.340732 -31.8614798,-120.8711963 -31.865191,-120.8647188 -31.8800188,-120.8387802 -31.9096326,-120.7869149 -32.1445344,-120.3725652 -33.8972245,-117.097329 -35.4319761,-113.9016737 -36.759208,-110.7980864 -37.8900002,-107.7982908 -38.8360479,-104.9132141 -39.609612,-102.152956 -40.2234695,-99.5267611 -40.6908617,-97.042993 -41.0254421,-94.709113 -41.241222,-92.5316596 -41.3525167,-90.5162329 -41.3738895,-88.6674808 -41.3200964,-86.9890885 -41.2060297,-85.4837716 -41.0466613,-84.1532714 -40.8569863,-82.9983539 -40.6519665,-82.0188117 -40.446474,-81.2134691 -40.2552354,-80.5801899 -40.0927765,-80.1158886 -39.9733677,-79.8165443 -39.9109702,-79.6772179 -31.9103575,-63.7047218 -50.3813582,-50.3813582 -63.0133825,-63.0131592 -63.1259024,-63.1163316 -63.3722763,-63.3240944 -63.7615962,-63.624758 -64.3021804,-64.0060499 -65.0015402,-64.4551598 -65.8663494,-64.9587877 -66.9024165,-65.503192 -68.1146592,-66.0742408 -69.5070821,-66.6574634 -71.0827571,-67.2381032 -72.8438065,-67.8011719 -74.7913892,-68.3315046 -76.9256902,-68.8138153 -79.2459124,-69.232753 -81.7502724,-69.572959 -84.4359984,-69.8191231 -87.299332,-69.9560414 -90.3355327,-69.9686727 -93.5388853,-69.8421953 -96.9027113,-69.562064 -100.4193819,-69.1140653 -104.0803357,-68.4843725 -104.5476377,-68.3922138 -104.6061977,-68.3804783 -104.6354899,-68.3745925 -104.6428075,-68.3731148 -107.998311,-62.9393742 -107.9963549,-62.9321697 -107.9884984,-62.9033434 -107.9727642,-62.845729 -107.8458754,-62.3866389 -106.7692727,-58.8313581 -105.5948365,-55.4864553 -104.3387634,-52.353393 -103.0171785,-49.4326263 -101.6460779,-46.7236123 -100.2412732,-44.2248227 -98.8183357,-41.9337596 -97.3925427,-39.8469742 -95.9788243,-37.9600877 -94.5917117,-36.2678162 -93.2452871,-34.7639971 -91.9531348,-33.4416191 -90.7282948,-32.292854 -89.5832177,-31.3090915 -88.5297214,-30.4809763 -87.578951,-29.7984468 -86.7413391,-29.2507768 -86.0265708,-28.8266187 -85.4435486,-28.5140488 -85.0003622,-28.300614 -84.7042591,-28.1733804 -84.5616188,-28.1189834 -67.610071,-22.4820107 -71.25,0 -89.1142222,0.0001579 -89.2667397,0.0067676 -89.5878628,0.0340698 -90.0757549,0.0967592 -90.7276197,0.2093959 -91.5397105,0.3863492 -92.5073416,0.6417431 -93.6249036,0.9894011 -94.8858812,1.4427937 -96.2828735,2.0149847 -97.8076183,2.7185809 -99.451018,3.5656811 -101.2031688,4.5678282 -103.0533926,5.7359618 -104.9902712,7.0803729 -107.0016831,8.6106609 -109.0748425,10.3356916 -111.196341,12.2635584 -113.3521906,14.4015448 -115.52787,16.7560902 -117.7083714,19.3327571 -119.8782501,22.1362017 -122.0216754,25.1701469 -122.2869417,25.5657454 -122.3200516,25.6154518 -122.3366025,25.6403264 -122.340732,25.6465456 -120.8711963,31.8614798 -120.8647188,31.865191 -120.8387802,31.8800188 -120.7869149,31.9096326 -120.3725652,32.1445344 -117.097329,33.8972245 -113.9016737,35.4319761 -110.7980864,36.759208 -107.7982908,37.8900002 -104.9132141,38.8360479 -102.152956,39.609612 -99.5267611,40.2234695 -97.042993,40.6908617 -94.709113,41.0254421 -92.5316596,41.241222 -90.5162329,41.3525167 -88.6674808,41.3738895 -86.9890885,41.3200964 -85.4837716,41.2060297 -84.1532714,41.0466613 -82.9983539,40.8569863 -82.0188117,40.6519665 -81.2134691,40.446474 -80.5801899,40.2552354 -80.1158886,40.0927765 -79.8165443,39.9733677 -79.6772179,39.9109702 -63.7047218,31.9103575 -50.3813582,50.3813582 -63.0131592,63.0133825 -63.1163316,63.1259024 -63.3240944,63.3722763 -63.624758,63.7615962 -64.0060499,64.3021804 -64.4551598,65.0015402 -64.9587877,65.8663494 -65.503192,66.9024165 -66.0742408,68.1146592 -66.6574634,69.5070821 -67.2381032,71.0827571 -67.8011719,72.8438065 -68.3315046,74.7913892 -68.8138153,76.9256902 -69.232753,79.2459124 -69.572959,81.7502724 -69.8191231,84.4359984 -69.9560414,87.299332 -69.9686727,90.3355327 -69.8421953,93.5388853 -69.562064,96.9027113 -69.1140653,100.4193819 -68.4843725,104.0803357 -68.3922138,104.5476377 -68.3804783,104.6061977 -68.3745925,104.6354899 -68.3731148,104.6428075 -62.9393742,107.998311 -62.9321697,107.9963549 -62.9033434,107.9884984 -62.845729,107.9727642 -62.3866389,107.8458754 -58.8313581,106.7692727 -55.4864553,105.5948365 -52.353393,104.3387634 -49.4326263,103.0171785 -46.7236123,101.6460779 -44.2248227,100.2412732 -41.9337596,98.8183357 -39.8469742,97.3925427 -37.9600877,95.9788243 -36.2678162,94.5917117 -34.7639971,93.2452871 -33.4416191,91.9531348 -32.292854,90.7282948 -31.3090915,89.5832177 -30.4809763,88.5297214 -29.7984468,87.578951 -29.2507768,86.7413391 -28.8266187,86.0265708 -28.5140488,85.4435486 -28.300614,85.0003622 -28.1733804,84.7042591 -28.1189834,84.5616188 -22.4820107,67.610071 0,71.25 0.0001579,89.1142222 0.0067676,89.2667397 0.0340698,89.5878628 0.0967592,90.0757549 0.2093959,90.7276197 0.3863492,91.5397105 0.6417431,92.5073416 0.9894011,93.6249036 1.4427937,94.8858812 2.0149847,96.2828735 2.7185809,97.8076183 3.5656811,99.451018 4.5678282,101.2031688 5.7359618,103.0533926 7.0803729,104.9902712 8.6106609,107.0016831 10.3356916,109.0748425 12.2635584,111.196341 14.4015448,113.3521906 16.7560902,115.52787 19.3327571,117.7083714 22.1362017,119.8782501 25.1701469,122.0216754 25.5657454,122.2869417 25.6154518,122.3200516 25.6403264,122.3366025 25.6465456,122.340732 31.8614798,120.8711963 31.865191,120.8647188 31.8800188,120.8387802 31.9096326,120.7869149 32.1445344,120.3725652 33.8972245,117.097329 35.4319761,113.9016737 36.759208,110.7980864 37.8900002,107.7982908 38.8360479,104.9132141 39.609612,102.152956 40.2234695,99.5267611 40.6908617,97.042993 41.0254421,94.709113 41.241222,92.5316596 41.3525167,90.5162329 41.3738895,88.6674808 41.3200964,86.9890885 41.2060297,85.4837716 41.0466613,84.1532714 40.8569863,82.9983539 40.6519665,82.0188117 40.446474,81.2134691 40.2552354,80.5801899 40.0927765,80.1158886 39.9733677,79.8165443 39.9109702,79.6772179 31.9103575,63.7047218 50.3813582,50.3813582 63.0133825,63.0131592 63.1259024,63.1163316 63.3722763,63.3240944 63.7615962,63.624758 64.3021804,64.0060499 65.0015402,64.4551598 65.8663494,64.9587877 66.9024165,65.503192 68.1146592,66.0742408 69.5070821,66.6574634 71.0827571,67.2381032 72.8438065,67.8011719 74.7913892,68.3315046 76.9256902,68.8138153 79.2459124,69.232753 81.7502724,69.572959 84.4359984,69.8191231 87.299332,69.9560414 90.3355327,69.9686727 93.5388853,69.8421953 96.9027113,69.562064 100.4193819,69.1140653 104.0803357,68.4843725 104.5476377,68.3922138 104.6061977,68.3804783 104.6354899,68.3745925 104.6428075,68.3731148 107.998311,62.9393742 107.9963549,62.9321697 107.9884984,62.9033434 107.9727642,62.845729 107.8458754,62.3866389 106.7692727,58.8313581 105.5948365,55.4864553 104.3387634,52.353393 103.0171785,49.4326263 101.6460779,46.7236123 100.2412732,44.2248227 98.8183357,41.9337596 97.3925427,39.8469742 95.9788243,37.9600877 94.5917117,36.2678162 93.2452871,34.7639971 91.9531348,33.4416191 90.7282948,32.292854 89.5832177,31.3090915 88.5297214,30.4809763 87.578951,29.7984468 86.7413391,29.2507768 86.0265708,28.8266187 85.4435486,28.5140488 85.0003622,28.300614 84.7042591,28.1733804 84.5616188,28.1189834 67.610071,22.4820107 z"/>
</svg>